<svg width="89" height="91" viewBox="0 0 89 91" fill="none" xmlns="http://www.w3.org/2000/svg">
<path d="M72.4373 84.7481C73.0183 84.3693 73.5919 83.9765 74.1609 83.5753C74.1624 83.5872 74.1635 83.5975 74.1655 83.6107C74.1927 83.7998 74.2051 83.9908 74.2027 84.1819C74.1859 84.5428 74.1403 84.9019 74.0664 85.2556C74.0309 85.4616 74.3424 85.5711 74.4215 85.3694C74.5886 84.9245 74.6816 84.4553 74.6969 83.9803C74.7274 83.7178 74.729 83.4526 74.7015 83.1898C75.048 82.9412 75.3933 82.6906 75.7374 82.438C75.7473 83.264 75.8802 84.0839 76.1316 84.8708C76.1431 84.899 76.1633 84.9228 76.1894 84.9387C76.2154 84.9546 76.2458 84.9617 76.2762 84.959C76.3066 84.9563 76.3353 84.9439 76.3581 84.9237C76.3809 84.9035 76.3966 84.8765 76.403 84.8466C76.5045 83.9004 76.477 82.9448 76.3214 82.0059C76.5225 81.8568 76.7236 81.7076 76.9248 81.5584C77.0964 82.3557 77.3108 83.1433 77.5671 83.9177C77.5833 83.9591 77.6087 83.9964 77.6414 84.0267C77.6741 84.057 77.7131 84.0795 77.7557 84.0926C77.7983 84.1056 77.8433 84.1089 77.8873 84.1021C77.9313 84.0953 77.9733 84.0787 78.0099 84.0534C78.6335 83.6915 79.2011 83.2408 79.6949 82.7155C79.7384 83.1357 79.7843 83.5557 79.8327 83.9756C79.6496 84.0735 79.4752 84.2067 79.3233 84.2956C78.7033 84.6588 78.0605 84.975 77.4138 85.2874C77.0901 85.4437 77.2726 85.9652 77.6127 85.8192C78.3563 85.3912 79.1264 85.0106 79.9181 84.68C79.9693 85.0846 80.0264 85.4876 80.0871 85.8896C79.9919 85.9544 79.9028 86.0243 79.8234 86.0788C79.4058 86.3655 78.9882 86.6523 78.5705 86.939C78.2812 87.1378 78.5978 87.5839 78.8863 87.3833C79.1887 87.1731 79.4912 86.9628 79.7937 86.7525C79.8922 86.6839 80.031 86.5733 80.1774 86.4743C80.2771 87.0768 80.3909 87.6749 80.5241 88.2662C80.5319 88.3275 80.5631 88.3834 80.6112 88.4221C80.6593 88.4608 80.7205 88.4794 80.782 88.4739C80.8435 88.4684 80.9005 88.4393 80.941 88.3927C80.9814 88.346 81.0023 88.2856 80.9991 88.2239C80.9706 87.5915 80.9214 86.9582 80.8602 86.3248C81.02 86.403 81.1997 86.5375 81.322 86.6003C81.6129 86.7497 81.9008 86.8977 82.2034 87.0224C82.3663 87.0896 82.5299 86.8643 82.3757 86.7524C82.0317 86.5026 81.6654 86.2895 81.3018 86.0697C81.142 85.9556 80.9749 85.8521 80.8015 85.7599C80.7604 85.3779 80.7164 84.9958 80.6694 84.6138C81.441 84.6819 82.2405 85.1111 82.9945 85.2433C83.0362 85.2496 83.0788 85.2408 83.1146 85.2186C83.1504 85.1964 83.1771 85.1622 83.19 85.122C83.2029 85.0819 83.201 85.0385 83.1848 84.9996C83.1686 84.9607 83.1391 84.9288 83.1015 84.9097C82.5011 84.6208 81.8816 84.3735 81.2473 84.1696C81.0452 84.0979 80.8121 83.9767 80.5801 83.9059C80.5343 83.5568 80.4876 83.2078 80.4401 82.8588C81.1633 83.2565 81.9338 83.5613 82.7335 83.7658C82.933 83.8226 83.0655 83.6243 83.071 83.4577C83.1363 82.6482 83.1134 81.834 83.0028 81.0294C83.2848 81.1607 83.5675 81.2899 83.8501 81.4193C83.8563 81.5171 83.8622 81.6125 83.8617 81.702C83.8579 82.4714 83.8069 83.2376 83.7675 84.0055C83.7484 84.3781 84.3113 84.5002 84.3534 84.1123C84.441 83.3052 84.4298 82.501 84.4539 81.6942C84.7555 81.8304 85.0585 81.9614 85.3608 82.0949C85.3511 82.2501 85.3604 82.4086 85.3591 82.5514C85.3548 83.0652 85.3473 83.5805 85.3636 84.094C85.3758 84.481 85.9421 84.4119 85.9516 84.0415C85.9009 83.4776 85.8931 82.9107 85.9283 82.3456C86.5893 82.6328 87.2519 82.9142 87.9176 83.1832C87.9711 83.2062 88.0314 83.2075 88.0859 83.1868C88.1403 83.1661 88.1846 83.1251 88.2094 83.0724C88.2342 83.0197 88.2376 82.9595 88.2189 82.9043C88.2001 82.8492 88.1607 82.8035 88.1089 82.7768C87.4963 82.4297 86.878 82.0902 86.2539 81.7582C86.5341 81.5831 86.8244 81.4247 87.1233 81.2836C87.4345 81.1065 87.7487 80.9343 88.0617 80.7602C88.2012 80.6825 88.075 80.4596 87.9326 80.5171C87.4132 80.7267 86.8912 80.9299 86.372 81.14C86.1271 81.2162 85.8922 81.3215 85.6723 81.4537C85.3065 81.2613 84.9419 81.0673 84.5735 80.8785C84.703 80.6448 84.9435 80.5432 85.278 80.3265C85.7163 80.0497 86.1327 79.7396 86.5236 79.399C86.6742 79.265 86.5594 78.969 86.3453 79.063C85.8037 79.3116 85.2823 79.6021 84.7859 79.9319C84.4654 80.0789 84.1814 80.2951 83.9543 80.5648C83.7358 80.4542 83.5179 80.343 83.2986 80.2334C83.9444 79.8731 84.5494 79.4441 85.103 78.9539C85.147 78.9213 85.1818 78.878 85.2043 78.8281C85.2267 78.7782 85.2359 78.7234 85.231 78.6689C85.2262 78.6144 85.2074 78.5621 85.1765 78.5169C85.1456 78.4718 85.1036 78.4353 85.0546 78.4111C84.2999 78.0554 83.5477 77.6918 82.7876 77.347C82.9842 77.2125 83.1807 77.0779 83.3771 76.9431C84.2466 77.5363 85.2303 77.9414 86.2653 78.1326C86.3103 78.1394 86.3562 78.13 86.3949 78.106C86.4335 78.0821 86.4623 78.0451 86.4762 78.0018C86.4901 77.9585 86.4881 77.9117 86.4706 77.8697C86.4531 77.8278 86.4212 77.7934 86.3806 77.7728C85.8379 77.5374 84.4986 77.1356 83.8982 76.586C84.3333 76.2867 84.7662 75.9848 85.1967 75.6802C85.7601 76.0189 86.3755 76.2625 87.0181 76.4012C87.0684 76.4089 87.1198 76.3984 87.1631 76.3715C87.2064 76.3447 87.2387 76.3034 87.2542 76.2549C87.2698 76.2064 87.2675 76.1539 87.2479 76.1069C87.2282 76.06 87.1925 76.0215 87.1471 75.9985C86.6489 75.8141 86.1679 75.5866 85.7094 75.3184C86.2254 74.9501 86.7382 74.578 87.2426 74.1956C87.3926 74.082 87.2653 73.812 87.0831 73.8951C86.4607 74.1813 85.8534 74.4989 85.2632 74.8467C85.1239 74.3446 85.0633 73.8238 85.0839 73.3031C85.0577 72.9034 84.4729 72.9696 84.4732 73.3576C84.4298 73.9768 84.5076 74.5987 84.7024 75.1881C84.33 75.4186 83.9605 75.6548 83.5963 75.9007C83.611 75.5699 83.7262 75.1465 83.7344 74.866C83.7498 74.336 83.723 73.8056 83.6543 73.2799C83.6445 73.1999 83.604 73.1268 83.5414 73.0762C83.4787 73.0255 83.3988 73.0011 83.3185 73.0083C83.2382 73.0154 83.1639 73.0535 83.1112 73.1145C83.0585 73.1755 83.0315 73.2545 83.0361 73.335C83.1242 74.3409 83.0925 75.3536 82.9416 76.352C82.7815 76.4642 82.622 76.5771 82.4629 76.6907C82.4867 76.2962 82.4759 75.9003 82.4305 75.5076C82.4061 75.1743 82.4784 74.404 82.1544 74.1846C81.8268 73.9628 81.4078 74.3741 81.1546 74.5352C80.6396 74.8629 80.1169 75.1824 79.6106 75.5237C79.5842 75.229 79.5575 74.9343 79.5305 74.6397C79.5369 74.6377 79.5436 74.6373 79.5498 74.6353C80.2524 74.3291 80.922 73.9523 81.5483 73.5106C82.0122 73.3061 82.4116 72.9792 82.7039 72.565C82.7929 72.4204 82.5778 72.2476 82.4511 72.3536C81.6803 72.9432 80.8223 73.4089 79.9079 73.7338C79.7612 73.7833 79.6094 73.8158 79.4553 73.8308C79.4286 73.5463 79.3984 73.2622 79.3703 72.9778C79.5023 72.8729 79.6221 72.7439 79.7362 72.6515C80.1352 72.3278 80.5477 72.0207 80.9464 71.6964C80.9779 71.6723 80.9988 71.637 81.0047 71.5978C81.0106 71.5587 81.0011 71.5188 80.9782 71.4865C80.9552 71.4542 80.9207 71.4321 80.8817 71.4248C80.8428 71.4175 80.8026 71.4256 80.7695 71.4474C80.4788 71.6289 80.1904 71.8139 79.9007 71.997C79.7635 72.0838 79.5269 72.2774 79.3125 72.3972C79.2376 71.6756 79.1579 70.9549 79.0638 70.2365C79.0542 70.1602 79.0155 70.0906 78.9556 70.0423C78.8958 69.9941 78.8196 69.9709 78.743 69.9777C78.6665 69.9846 78.5955 70.0208 78.5452 70.0789C78.4949 70.137 78.469 70.2124 78.4731 70.2891C78.5031 70.9698 78.5507 71.651 78.6056 72.3322C78.2227 72.0906 77.7975 71.6509 77.5204 71.4481C77.1938 71.209 76.7894 71.6829 77.1141 71.9339C77.5114 72.2409 77.9138 72.5419 78.3211 72.8369C78.4321 72.9261 78.5492 73.0075 78.6713 73.0807C78.6925 73.3154 78.7102 73.5502 78.7331 73.7849C77.8606 73.4918 77.0318 73.082 76.2692 72.5666C75.9087 72.3715 75.6453 72.9438 75.9994 73.1396C76.7229 73.5397 77.8445 74.4639 78.8209 74.6559C78.8537 74.9678 78.8865 75.2798 78.9213 75.5916C78.2563 75.1755 77.574 74.7878 76.8875 74.4085C76.8467 74.3899 76.8022 74.3807 76.7573 74.3818C76.7124 74.3828 76.6684 74.3941 76.6285 74.4146C76.5886 74.4351 76.5538 74.4644 76.5269 74.5003C76.5 74.5362 76.4816 74.5778 76.473 74.6219C76.2822 75.3504 76.1912 76.1015 76.2023 76.8546C76.0719 76.7941 75.9416 76.7336 75.8115 76.6732C75.8231 76.3758 75.8036 76.078 75.7534 75.7846C75.6941 75.0398 75.6191 74.2956 75.5099 73.5564C75.504 73.5101 75.4804 73.4678 75.4441 73.4385C75.4077 73.4092 75.3614 73.3952 75.3148 73.3993C75.2683 73.4035 75.2252 73.4255 75.1946 73.4608C75.1639 73.496 75.1482 73.5418 75.1506 73.5884C75.1296 74.3515 75.3646 75.5254 75.1191 76.352C74.8202 76.2134 74.524 76.0742 74.2256 75.9355C74.2266 75.925 74.2271 75.9143 74.2269 75.9037C74.1761 75.3606 74.0917 74.8212 73.974 74.2885C73.9684 74.2441 73.9458 74.2036 73.911 74.1755C73.8761 74.1474 73.8317 74.1339 73.7871 74.1379C73.7425 74.1419 73.7012 74.163 73.6719 74.1968C73.6425 74.2306 73.6274 74.2745 73.6298 74.3192C73.6612 74.7717 73.6746 75.2269 73.6797 75.6811C73.149 75.434 72.6161 75.1875 72.0887 74.9395C72.0135 74.9072 71.9287 74.9054 71.8521 74.9344C71.7756 74.9634 71.7134 75.021 71.6785 75.0951C71.6436 75.1691 71.6389 75.2538 71.6653 75.3313C71.6917 75.4087 71.7471 75.4729 71.8199 75.5103C72.2093 75.7034 72.6004 75.9009 72.9905 76.0958C72.6321 76.2597 72.2915 76.4598 71.9739 76.6931C71.9255 76.7299 71.8917 76.7826 71.8786 76.842C71.8655 76.9014 71.874 76.9635 71.9025 77.0172C71.931 77.0709 71.9776 77.1127 72.0341 77.1351C72.0906 77.1575 72.1533 77.1591 72.2109 77.1396C72.7113 76.9511 73.1902 76.7101 73.6397 76.4205C74.011 76.6066 74.3813 76.7906 74.7529 76.9774C74.0815 77.6996 72.9737 78.1666 72.2409 78.8276C72.1859 78.8698 72.1495 78.9316 72.1392 79.0001C72.1289 79.0687 72.1456 79.1385 72.1857 79.195C72.2258 79.2515 72.2863 79.2902 72.3544 79.303C72.4225 79.3158 72.4929 79.3016 72.5508 79.2636C73.2416 78.8305 73.9092 78.3616 74.5509 77.8588C74.7742 77.6959 75.1219 77.5143 75.3945 77.2999C75.5817 77.3941 75.7687 77.4881 75.9556 77.582C75.5264 78.1636 75.0049 78.671 74.4118 79.0842C74.2078 79.2631 74.0001 79.4461 74.1086 79.7387C74.2552 80.1345 74.964 80.3218 75.2998 80.4905C75.6617 80.6722 76.0278 80.8821 76.4085 81.0392C76.1691 81.2073 75.9303 81.3762 75.6919 81.5459C74.7629 81.3562 73.8539 81.0791 72.9771 80.7183C72.9046 80.6872 72.8229 80.6855 72.7492 80.7135C72.6755 80.7415 72.6155 80.797 72.5819 80.8684C72.5483 80.9397 72.5438 81.0213 72.5691 81.0959C72.5945 81.1706 72.6479 81.2325 72.718 81.2685C73.4306 81.6332 74.1897 81.8989 74.9742 82.0583C74.6866 82.2648 74.403 82.4757 74.1178 82.6849C73.8869 82.6566 73.6326 82.6746 73.4522 82.6615C72.9715 82.6031 72.4873 82.5782 72.0031 82.5871C71.9345 82.5953 71.8711 82.6275 71.8241 82.6781C71.7771 82.7287 71.7496 82.7943 71.7464 82.8632C71.7433 82.9322 71.7647 83 71.8069 83.0547C71.8491 83.1093 71.9093 83.1472 71.9769 83.1616C72.3313 83.2169 72.6892 83.2474 73.0479 83.253C73.1307 83.2578 73.2386 83.2541 73.3534 83.2504C72.9226 83.5749 72.4945 83.9021 72.0747 84.2381C72.0102 84.2874 71.9674 84.3597 71.9553 84.44C71.9432 84.5202 71.9627 84.602 72.0097 84.6682C72.0567 84.7343 72.1276 84.7796 72.2073 84.7945C72.2871 84.8094 72.3695 84.7928 72.4373 84.7481ZM80.5561 78.8912C81.0955 78.5103 81.6383 78.1336 82.1844 77.7608C82.8884 78.1101 83.6043 78.4366 84.3182 78.7661C83.7867 79.1332 83.2871 79.5447 82.825 79.9961C82.0716 79.6231 81.3153 79.2548 80.5561 78.8912ZM80.0117 79.6031C80.8441 80.0102 81.6792 80.4102 82.517 80.803C82.4701 81.5658 82.4661 82.3306 82.5052 83.0938C81.7644 82.8031 81.0403 82.4718 80.3361 82.1012C80.2214 81.2671 80.1084 80.434 80.0117 79.6031ZM79.6688 76.1683C79.7188 76.1651 79.7674 76.1503 79.8108 76.1251C80.1882 75.9044 80.5535 75.6615 80.9223 75.4268C81.1211 75.3003 81.3198 75.1738 81.5186 75.0474C81.562 75.0198 81.6779 74.9264 81.7765 74.8525C81.9232 75.553 81.7592 76.3521 82.0018 77.0251C81.2951 77.5386 80.5958 78.0596 79.8981 78.5681C79.8154 77.7693 79.7412 76.969 79.6688 76.1683ZM79.2286 78.2645C78.3695 77.8601 77.5089 77.4617 76.6488 77.0626C76.7041 77.0228 76.7421 76.9635 76.7551 76.8967C76.8756 76.318 76.9091 75.7178 76.9902 75.1271C77.6446 75.4727 78.3042 75.8085 78.9797 76.1114C79.0615 76.83 79.1459 77.5479 79.2286 78.2645ZM77.4119 81.1949C78.0712 80.7029 78.7299 80.2113 79.3916 79.7282C79.479 80.5461 79.5587 81.3716 79.6421 82.1984C79.1135 82.5999 78.584 82.998 78.0252 83.3553C77.8858 82.6183 77.6805 81.8953 77.4119 81.1949ZM75.8912 80.1255C75.6687 80.0043 75.4448 79.8855 75.2212 79.7662C74.9291 79.6105 74.8669 79.6678 74.9851 79.4237C75.0886 79.2101 75.5371 78.9774 75.7203 78.8224C75.8447 78.7171 75.9735 78.6156 76.0883 78.4997C76.2775 78.3225 76.4192 78.1005 76.5002 77.8543C77.3625 78.2875 78.2244 78.7219 79.0908 79.15C78.3613 79.6711 77.6242 80.1866 76.8871 80.7033C76.5679 80.4895 76.2353 80.2965 75.8912 80.1255Z" fill="#C29C5B"/>
<path d="M2.02404 81.3281C3.91373 82.4198 5.94186 81.9227 7.52976 80.7334C7.25847 81.1609 7.03024 81.6142 6.84842 82.0868C6.42694 83.1018 6.27884 84.2095 6.41888 85.2996C6.55891 86.3897 6.98219 87.424 7.64654 88.2995C7.64117 88.3458 7.64832 88.3927 7.66726 88.4353C7.6862 88.4779 7.71623 88.5146 7.75421 88.5417C7.85098 88.6185 7.95332 88.6775 8.05216 88.7478C8.75637 89.4451 9.61585 89.9656 10.5601 90.2665C11.5044 90.5674 12.5065 90.6401 13.4844 90.4788C15.4727 90.2105 17.6628 89.2542 17.6947 86.9555C17.7197 85.1606 16.4777 83.9385 15.0537 83.0767C15.0396 83.0429 15.0176 83.013 14.9894 82.9896C14.6468 82.7221 14.2512 82.5306 13.8288 82.4278C13.806 82.4171 13.783 82.4056 13.7602 82.395C13.7149 82.3738 13.6641 82.3668 13.6147 82.375C13.0999 82.2545 12.5599 82.3053 12.0765 82.5196C12.0508 82.5334 12.0293 82.554 12.0143 82.5791C11.9993 82.6042 11.9913 82.6329 11.9912 82.6621C11.3968 82.8126 10.8736 83.1656 10.5115 83.6604C8.92654 85.8502 11.9976 88.2037 13.8025 86.2401C14.0463 85.9749 13.6337 85.6593 13.3845 85.8905C12.3434 86.8562 10.5091 85.9871 11.0766 84.5397C11.2144 84.2492 11.4199 83.9959 11.6757 83.8012C11.9315 83.6064 12.2302 83.4757 12.5469 83.4201C13.2129 83.3495 13.8835 83.5013 14.4541 83.8519C15.9852 85.3832 16.8674 88.0294 14.2957 89.0471C11.899 89.8247 9.27739 88.9291 8.30185 86.4423C7.52085 84.4512 7.98674 82.3789 8.86693 80.5218C9.43164 79.861 10.0994 79.2958 10.8444 78.8479C16.441 75.5113 23.5541 77.5741 28.2783 81.3816C31.2957 83.8135 34.5239 87.1174 38.7434 86.901C41.2493 86.7725 43.4054 85.193 43.9093 82.9344C44.4827 84.2891 45.541 85.3811 46.877 85.9966C49.7331 87.3952 53.1076 86.5974 55.7064 85.0151C58.6609 83.2163 60.9478 79.3896 64.0847 77.8015C64.1064 77.8069 64.1287 77.8098 64.1511 77.8103C65.3852 77.7501 66.6636 77.6189 67.5686 78.6551C68.3726 79.5756 68.1386 81.1339 67.0099 81.5185C66.6189 81.5091 66.2357 81.4075 65.8914 81.222C65.5471 81.0365 65.2515 80.7722 65.0287 80.4508C64.9808 80.3876 64.9119 80.3435 64.8344 80.3263C64.757 80.3092 64.6759 80.3203 64.6059 80.3575C64.5358 80.3946 64.4812 80.4556 64.4519 80.5293C64.4227 80.603 64.4206 80.6848 64.4461 80.7599C65.3241 83.4439 69.0159 83.2014 69.8747 80.6347C70.9063 77.5514 67.1995 75.977 64.7515 76.6286C64.6866 76.6436 64.6302 76.6834 64.5944 76.7396C61.4889 77.5559 59.4313 80.8044 56.9761 82.8193C54.7047 84.6834 51.6986 86.243 48.673 85.6025C48.6405 85.5612 48.5993 85.5275 48.5524 85.5039C44.7665 83.628 44.0116 79.026 47.3102 76.6821C47.5696 76.5565 47.8376 76.4495 48.1123 76.3619C48.3502 76.3411 48.5895 76.3394 48.8277 76.3568C48.5709 76.682 48.4243 77.0804 48.4089 77.4945C48.3935 77.9085 48.5102 78.3167 48.7421 78.66C48.8901 78.8384 49.077 78.9806 49.2884 79.0757C49.4998 79.1708 49.7302 79.2163 49.9618 79.2087C49.9725 79.2464 49.9947 79.2799 50.0254 79.3043C50.0561 79.3287 50.0937 79.3428 50.1329 79.3446C51.5475 79.418 51.9444 77.532 51.1963 76.5899C50.9661 76.3014 50.6749 76.0674 50.3436 75.9047C51.4653 75.2558 52.7794 75.0216 54.0563 75.243C54.1467 75.256 54.2386 75.2335 54.3127 75.1801C54.3868 75.1268 54.4374 75.0468 54.4537 74.957C54.4701 74.8671 54.451 74.7745 54.4004 74.6984C54.3499 74.6224 54.2718 74.5689 54.1827 74.5493C53.3796 74.3144 52.5295 74.2914 51.7149 74.4825C50.9003 74.6736 50.149 75.0722 49.5341 75.6396C49.2184 75.5885 48.8975 75.5765 48.5788 75.6039C48.5453 75.5603 48.499 75.5283 48.4464 75.5122C48.3939 75.4962 48.3376 75.4968 48.2854 75.5142C48.0728 75.5764 47.8639 75.6509 47.6599 75.7372C46.7129 75.967 45.8447 76.4462 45.1456 77.1252C44.4465 77.8042 43.9422 78.6581 43.6849 79.598C43.3336 78.8341 42.7938 78.172 42.1163 77.6739C41.4389 77.1759 40.6459 76.8582 39.812 76.7507C39.1332 76.6733 38.4457 76.7631 37.8095 77.0121C37.5968 76.5759 37.2913 76.1914 36.9144 75.8857C36.5375 75.5799 36.0984 75.3602 35.6276 75.242C35.5533 75.2308 35.4774 75.2464 35.4135 75.286C35.3496 75.3257 35.302 75.3868 35.279 75.4584C35.2561 75.5299 35.2594 75.6074 35.2883 75.6767C35.3172 75.7461 35.3699 75.8029 35.4369 75.837C36.0471 76.0908 36.5754 76.5079 36.9638 77.0426C37.0294 77.1464 37.0878 77.2546 37.1388 77.3663C36.8708 77.5321 36.647 77.7604 36.4868 78.0318C36.3265 78.3031 36.2346 78.6093 36.2188 78.924C36.1389 79.0511 36.1093 79.2035 36.1359 79.3512C36.1624 79.499 36.2433 79.6314 36.3625 79.7226C36.3862 79.7594 36.4221 79.7866 36.4639 79.7996C36.5881 79.8848 36.73 79.941 36.8789 79.9638C37.0278 79.9867 37.1799 79.9757 37.324 79.9317C37.4681 79.8877 37.6004 79.8117 37.711 79.7095C37.8217 79.6073 37.9079 79.4814 37.9633 79.3413C38.218 78.7884 38.2476 78.158 38.0459 77.5836C38.3102 77.4959 38.5849 77.443 38.8629 77.4262C38.9146 77.5042 38.9934 77.5601 39.0841 77.5831C40.0138 77.8284 40.8178 78.4133 41.3376 79.2223C41.8573 80.0313 42.0549 81.0058 41.8915 81.9534C41.5549 83.6922 40.1193 84.8326 38.6159 85.5702C38.5647 85.5969 38.5218 85.6372 38.4919 85.6866C37.2518 85.6888 36.0263 85.4182 34.9024 84.894C33.0924 84.0294 31.61 82.681 30.0857 81.4088C27.5249 79.2717 24.8775 77.5251 21.5839 76.7444C17.637 75.8089 12.2103 76.1569 8.99243 79.0024C8.97984 78.9889 8.96468 78.9781 8.94784 78.9706C8.931 78.963 8.91282 78.959 8.89438 78.9586C8.87594 78.9582 8.85762 78.9615 8.84048 78.9683C8.82334 78.9751 8.80773 78.9853 8.79458 78.9982C7.63197 80.0536 5.94807 81.0943 4.35407 81.1606C4.32807 81.1303 4.29817 81.1037 4.26513 81.0814C3.11597 80.3594 2.04189 79.4834 1.89363 78.0264C1.8306 77.3654 2.0008 76.7032 2.3747 76.1545C2.74861 75.6058 3.30267 75.2053 3.94089 75.0222C4.21674 74.9843 4.49634 74.9824 4.77267 75.0166C5.16154 75.0536 5.53339 75.1941 5.8496 75.4235C6.16581 75.6528 6.41483 75.9627 6.5708 76.3208C6.75384 77.8766 6.14608 78.4767 4.74753 78.121C4.66589 78.086 4.57383 78.084 4.49076 78.1155C4.40769 78.147 4.34011 78.2096 4.30226 78.29C4.26441 78.3704 4.25926 78.4623 4.28788 78.5464C4.31651 78.6305 4.37668 78.7002 4.4557 78.7408C6.46787 79.8091 8.12723 77.4041 7.08794 75.6132C5.83271 73.4502 2.53585 73.8582 0.98221 75.4414C-0.771728 77.2287 -0.024985 80.1444 2.02404 81.3281ZM37.3979 78.4454C37.4671 79.0325 37.2712 79.2089 36.81 78.9747C36.8697 78.5934 37.058 78.2439 37.3436 77.9844C37.3754 78.1361 37.3935 78.2904 37.3979 78.4454ZM49.5283 76.4818C49.6061 76.5047 49.685 76.524 49.7606 76.5535C50.776 76.9505 51.4089 78.3347 50.0981 78.8555C49.8989 78.8481 49.7057 78.7859 49.5396 78.6757C49.3736 78.5655 49.2411 78.4116 49.1569 78.231C49.0583 77.9327 49.0407 77.6135 49.1059 77.3062C49.1712 76.9988 49.317 76.7143 49.5283 76.4818Z" fill="#C29C5B"/>
<path d="M28.0217 82.4072C28.1803 82.3985 28.3361 82.4518 28.4562 82.5559C28.5763 82.6599 28.6513 82.8064 28.6654 82.9647C28.6795 83.1229 28.6316 83.2804 28.5318 83.404C28.432 83.5276 28.2881 83.6077 28.1304 83.6272C27.9718 83.6359 27.816 83.5825 27.696 83.4785C27.5759 83.3745 27.5009 83.228 27.4868 83.0697C27.4727 82.9115 27.5206 82.7539 27.6204 82.6303C27.7202 82.5067 27.8641 82.4267 28.0217 82.4072Z" fill="#C29C5B"/>
<path d="M23.0027 79.5771C23.1626 79.5684 23.3197 79.6221 23.4408 79.727C23.5619 79.8318 23.6375 79.9796 23.6517 80.1391C23.666 80.2987 23.6177 80.4575 23.5171 80.5821C23.4164 80.7068 23.2714 80.7875 23.1124 80.8072C22.9525 80.8159 22.7954 80.7622 22.6743 80.6573C22.5532 80.5524 22.4776 80.4047 22.4634 80.2451C22.4492 80.0856 22.4975 79.9267 22.5981 79.8021C22.6987 79.6775 22.8438 79.5968 23.0027 79.5771Z" fill="#C29C5B"/>
<path d="M16.0911 78.7051L16.24 78.707C16.3965 78.6988 16.5501 78.7516 16.6684 78.8543C16.7868 78.9571 16.8607 79.1017 16.8746 79.2578C16.8885 79.4139 16.8414 79.5693 16.7431 79.6913C16.6447 79.8133 16.5029 79.8925 16.3475 79.9121L16.2012 79.9402C15.4145 80.0914 15.2885 78.6955 16.0911 78.7051Z" fill="#C29C5B"/>
<path d="M10.6963 80.5549C10.7409 80.4649 10.8079 80.3878 10.8909 80.331C10.9739 80.2742 11.07 80.2398 11.1702 80.2308C11.2703 80.2219 11.371 80.2388 11.4628 80.28C11.5545 80.3212 11.6341 80.3852 11.6939 80.466C11.7566 80.5498 11.801 80.6457 11.8244 80.7477C11.8478 80.8496 11.8495 80.9554 11.8295 81.058C11.8029 81.1861 11.7358 81.3022 11.6381 81.3892C11.5404 81.4762 11.4173 81.5294 11.2869 81.541C11.1566 81.5526 11.0261 81.522 10.9145 81.4537C10.803 81.3854 10.7163 81.283 10.6675 81.1616C10.6299 81.064 10.6131 80.9597 10.618 80.8553C10.623 80.7508 10.6496 80.6485 10.6963 80.5549Z" fill="#C29C5B"/>
<path d="M60.3947 76.2929L60.4086 76.2633C60.4362 76.1956 60.4769 76.1341 60.5283 76.0822C60.5798 76.0302 60.6409 75.989 60.7084 75.9608C60.7758 75.9327 60.8481 75.9181 60.9212 75.918C60.9943 75.9178 61.0667 75.9322 61.1342 75.9601C61.2172 75.9605 61.2987 75.982 61.371 76.0226C61.4434 76.0632 61.5042 76.1216 61.5478 76.1922L61.5632 76.2204C61.6336 76.3295 61.6686 76.4576 61.6635 76.5874C61.6584 76.7171 61.6133 76.8421 61.5346 76.9453C61.4666 77.0244 61.3817 77.0871 61.2863 77.1289C61.1908 77.1708 61.0871 77.1906 60.983 77.187C60.8788 77.1833 60.7767 77.1563 60.6844 77.1079C60.5921 77.0596 60.5118 76.991 60.4495 76.9074C60.3864 76.8192 60.348 76.7157 60.3383 76.6076C60.3287 76.4996 60.3482 76.3909 60.3947 76.2929Z" fill="#C29C5B"/>
<path d="M56.2754 80.6398C56.2906 80.5448 56.3159 80.4517 56.3509 80.3621C56.3931 80.2742 56.4574 80.1987 56.5376 80.1432C56.6177 80.0876 56.7109 80.0538 56.8081 80.0452C56.9052 80.0365 57.0029 80.0533 57.0916 80.0938C57.1804 80.1343 57.257 80.1972 57.3141 80.2762C57.3643 80.3583 57.4057 80.4454 57.4375 80.5363C57.4701 80.6235 57.4821 80.7171 57.4726 80.8098C57.4631 80.9025 57.4324 80.9918 57.3827 81.0706C57.333 81.1495 57.2659 81.2158 57.1864 81.2644C57.1069 81.313 57.0172 81.3426 56.9244 81.3508C56.8316 81.3591 56.7382 81.3458 56.6513 81.3121C56.5645 81.2783 56.4866 81.2249 56.4238 81.1561C56.361 81.0873 56.3149 81.0049 56.2892 80.9153C56.2634 80.8258 56.2587 80.7315 56.2754 80.6398Z" fill="#C29C5B"/>
<path d="M51.1225 83.1945C51.312 83.1249 51.5108 83.0837 51.7124 83.0723C52.0962 83.0707 52.4296 83.5297 52.1232 83.8583C51.9887 83.999 51.833 84.1179 51.6618 84.2107C51.5945 84.2577 51.518 84.2899 51.4374 84.3052C51.3567 84.3205 51.2737 84.3184 51.1939 84.2992C51.1141 84.28 51.0393 84.2441 50.9744 84.1938C50.9095 84.1435 50.8561 84.08 50.8176 84.0074C50.7791 83.9349 50.7565 83.8551 50.7512 83.7732C50.7459 83.6912 50.7581 83.6091 50.7869 83.5323C50.8157 83.4554 50.8605 83.3855 50.9184 83.3273C50.9762 83.2691 51.0458 83.2238 51.1225 83.1945Z" fill="#C29C5B"/>
<path d="M47.1375 81.8111C47.0593 81.7505 46.9987 81.6702 46.9618 81.5783C46.925 81.4865 46.9133 81.3865 46.9281 81.2887C46.9428 81.1908 46.9833 81.0987 47.0455 81.0217C47.1077 80.9447 47.1892 80.8857 47.2818 80.8508C47.4023 80.8068 47.5323 80.7954 47.6586 80.8178C47.7837 80.8436 47.8973 80.9083 47.9834 81.0026C48.0694 81.0969 48.1234 81.216 48.1377 81.3428L48.1438 81.3771C48.2392 81.9158 47.6164 82.1213 47.2397 81.8829C47.2084 81.8661 47.1789 81.8462 47.1516 81.8235C47.1469 81.8192 47.142 81.8156 47.1375 81.8111Z" fill="#C29C5B"/>
<path d="M62.8621 1.45264C61.5787 3.26175 61.7603 6.5788 64.1112 7.43162C66.0577 8.13778 68.1314 6.07915 66.7239 4.28771C66.67 4.21714 66.5907 4.17028 66.5029 4.157C66.415 4.14372 66.3255 4.16506 66.2531 4.21653C66.1807 4.268 66.1311 4.34557 66.1147 4.43288C66.0984 4.5202 66.1166 4.61045 66.1655 4.68461C66.7629 5.99813 66.2798 6.70243 64.7162 6.79752C64.3361 6.70735 63.9872 6.51704 63.7055 6.24638C63.4238 5.97572 63.2198 5.63457 63.1145 5.25838C63.032 4.99246 62.9844 4.71694 62.9729 4.43874C63.0402 3.7782 63.3365 3.16202 63.8104 2.69696C64.2842 2.2319 64.9059 1.94728 65.5676 1.89238C67.0279 1.78063 68.0799 2.68281 68.9939 3.68608C69.0217 3.71469 69.0532 3.73943 69.0876 3.75967C69.3042 5.34027 68.5779 7.18167 67.7448 8.51263C67.7344 8.52785 67.7271 8.54502 67.7234 8.5631C67.7198 8.58117 67.7198 8.59981 67.7234 8.61789C67.7271 8.63597 67.7343 8.65314 67.7447 8.66838C67.7551 8.68362 67.7684 8.69664 67.7839 8.70665C65.5525 12.3771 66.1699 17.7797 67.7887 21.4989C69.1397 24.6025 71.3271 26.8992 73.8835 29.0416C75.4052 30.3169 76.9945 31.5374 78.1657 33.1659C78.8804 34.1794 79.3634 35.3376 79.5807 36.5586C79.5373 36.5968 79.5053 36.6461 79.4881 36.7012C79.028 38.3114 78.1595 39.9262 76.5077 40.5649C75.6039 40.8934 74.6099 40.8712 73.7217 40.5028C72.8335 40.1344 72.1156 39.4465 71.7096 38.5748C71.671 38.4896 71.602 38.4219 71.5162 38.3848C71.4835 38.1083 71.487 37.8286 71.5265 37.5529C72.1276 37.6499 72.7428 37.5092 73.242 37.1607C73.3701 37.0814 73.4787 36.9743 73.5597 36.8473C73.6407 36.7203 73.6921 36.5766 73.7099 36.427C73.7278 36.2775 73.7117 36.1258 73.6628 35.9833C73.614 35.8408 73.5337 35.7111 73.4278 35.6039C73.4077 35.5651 73.3745 35.5346 73.3342 35.5178C73.2233 35.4165 73.0786 35.3604 72.9285 35.3603C72.7783 35.3603 72.6336 35.4164 72.5227 35.5176C72.2157 35.5887 71.9306 35.7334 71.6919 35.9391C71.4532 36.1448 71.268 36.4055 71.1523 36.6986C71.0333 36.6681 70.9165 36.6297 70.8026 36.5836C70.2078 36.2959 69.7037 35.8497 69.3461 35.2941C69.3007 35.2341 69.2354 35.1923 69.162 35.1761C69.0886 35.1599 69.0118 35.1703 68.9454 35.2056C68.879 35.2408 68.8273 35.2986 68.7996 35.3684C68.7719 35.4383 68.77 35.5158 68.7942 35.587C68.9938 36.0294 69.2876 36.4228 69.6553 36.7397C70.0229 37.0565 70.4553 37.2892 70.9223 37.4213C70.7897 38.0915 70.823 38.784 71.0192 39.4385C71.2725 40.2403 71.7254 40.9645 72.3355 41.5432C72.9455 42.1219 73.6927 42.536 74.5067 42.7467C73.6271 43.1662 72.8759 43.8136 72.3313 44.6218C71.7866 45.4299 71.4685 46.3692 71.4099 47.342C71.361 47.5581 71.3246 47.7768 71.301 47.997C71.2931 48.0514 71.3024 48.1069 71.3276 48.1558C71.3527 48.2048 71.3924 48.2446 71.4412 48.27C71.4706 48.5884 71.5391 48.9021 71.6453 49.2038C71.1956 49.9094 70.9362 50.7193 70.8922 51.5549C70.8483 52.3904 71.0213 53.2231 71.3944 53.972C71.4296 54.0562 71.496 54.1236 71.5798 54.1599C71.6636 54.1962 71.7582 54.1986 71.8437 54.1666C71.9292 54.1346 71.999 54.0707 72.0384 53.9884C72.0778 53.906 72.0837 53.8116 72.0549 53.7249C71.6111 52.5073 71.6092 51.1725 72.0494 49.9537C72.2681 50.251 72.5499 50.4962 72.8746 50.6718C73.9342 51.2414 75.7203 50.5171 75.3977 49.1379C75.389 49.0996 75.3685 49.0651 75.3391 49.0392C75.3097 49.0133 75.2728 48.9973 75.2338 48.9935C75.2003 48.7642 75.1147 48.5455 74.9838 48.3542C74.8528 48.163 74.6798 48.0042 74.478 47.89C74.0991 47.7225 73.6767 47.6799 73.2719 47.7683C72.8671 47.8566 72.5009 48.0714 72.2263 48.3816C72.167 48.1503 72.1263 47.9145 72.1047 47.6767C72.1424 47.3909 72.2003 47.1081 72.278 46.8305C74.0014 43.1695 78.6645 43.0985 81.1805 46.4927C81.2119 46.5348 81.2524 46.5694 81.2988 46.594C82.4644 49.4586 81.4611 52.6932 80.0282 55.2585C78.4793 58.0314 75.646 60.6312 75.3919 63.8321C75.343 63.8772 75.3137 63.9398 75.3104 64.0063C75.1022 66.531 77.3075 69.9009 80.1596 68.3402C82.5339 67.0409 82.1196 63.3644 79.3227 62.975C79.2442 62.9631 79.1641 62.9796 79.0967 63.0215C79.0293 63.0633 78.979 63.1278 78.9548 63.2034C78.9306 63.2789 78.934 63.3606 78.9646 63.4339C78.9951 63.5071 79.0507 63.5671 79.1214 63.603C79.4772 63.7655 79.7895 64.0097 80.0331 64.3158C80.2766 64.6218 80.4444 64.981 80.5228 65.3642C80.3438 66.5431 78.8515 67.0491 77.8033 66.4206C76.6233 65.7132 76.5263 64.4316 76.3673 63.2064C76.3629 63.1844 76.356 63.163 76.3469 63.1426C77.3551 59.7742 80.717 56.8465 81.9648 53.6204C83.0624 50.7827 83.2508 47.3203 81.369 44.7567C80.5268 43.5505 79.2649 42.7021 77.8301 42.3774C79.964 41.4819 81.1372 39.0804 80.8205 36.5913C80.287 32.4 76.4642 29.8072 73.537 27.2676C68.9538 23.2913 65.6653 16.6553 67.9594 10.5567C68.2684 9.74423 68.7067 8.98701 69.2572 8.3143C70.9292 7.11957 72.8865 6.29442 74.9843 6.71093C77.6045 7.23121 78.9497 9.65308 78.6082 12.1495C78.0616 14.8607 75.301 14.4604 73.5229 13.2244C73.077 12.7247 72.809 12.0915 72.7607 11.4236C72.7594 11.1021 72.8351 10.7849 72.9816 10.4987C73.1281 10.2125 73.341 9.96549 73.6025 9.77846C74.9267 8.96386 76.1066 10.6156 75.3402 11.811C75.1567 12.0972 75.5404 12.4474 75.7583 12.1606C77.3717 10.0368 74.5121 7.4305 72.6371 9.37778C72.2142 9.82168 71.9593 10.3992 71.9163 11.0108C71.8876 11.016 71.8607 11.0289 71.8387 11.0482C71.8166 11.0674 71.8002 11.0922 71.791 11.1199C71.6657 11.6336 71.7113 12.1741 71.9209 12.6595C71.9216 12.7095 71.9374 12.7583 71.9664 12.7991C71.9808 12.8196 71.9962 12.8403 72.0107 12.8609C72.1867 13.2583 72.4451 13.6138 72.7689 13.9038C72.797 13.9273 72.8304 13.9438 72.8661 13.9517C73.9662 15.2007 75.3887 16.207 77.151 15.8649C79.4077 15.4269 79.9615 13.1021 79.8739 11.0977C79.8597 10.1068 79.6108 9.13329 79.1476 8.25714C78.6845 7.38099 78.0202 6.62711 77.2093 6.05734C77.1226 5.97254 77.0464 5.88224 76.9537 5.80059C76.9204 5.76799 76.8789 5.74493 76.8336 5.73382C76.7884 5.72271 76.7409 5.72395 76.6963 5.73742C75.7171 5.23842 74.6242 5.00477 73.5265 5.05977C72.4289 5.11477 71.3648 5.4565 70.4404 6.05088C70.0074 6.31336 69.6016 6.61818 69.2289 6.96083C70.1185 5.18764 70.2491 3.10352 68.8403 1.43669C67.3127 -0.370628 64.311 -0.589808 62.8621 1.45264ZM71.7969 36.7908C72.0018 36.4638 72.3124 36.2167 72.6771 36.0905C72.989 36.5028 72.85 36.7269 72.2601 36.7627C72.1069 36.7858 71.9518 36.7952 71.7969 36.7908ZM74.1291 48.3742C74.3218 48.4252 74.4967 48.5283 74.6345 48.6723C74.7723 48.8162 74.8678 48.9954 74.9103 49.1901C74.6296 50.5723 73.1552 50.1942 72.585 49.2651C72.5425 49.1959 72.5095 49.1217 72.4733 49.0492C72.6647 48.8 72.919 48.6063 73.2099 48.4877C73.5008 48.3691 73.8181 48.3299 74.1291 48.3742Z" fill="#C29C5B"/>
<path d="M74.5009 26.8297C74.5205 26.9873 74.6005 27.1312 74.7241 27.231C74.8477 27.3308 75.0052 27.3787 75.1635 27.3646C75.3217 27.3505 75.4683 27.2755 75.5723 27.1554C75.6763 27.0353 75.7296 26.8796 75.721 26.7209C75.7014 26.5633 75.6214 26.4194 75.4978 26.3196C75.3742 26.2198 75.2167 26.1719 75.0584 26.186C74.9002 26.2001 74.7536 26.2751 74.6496 26.3952C74.5456 26.5153 74.4923 26.671 74.5009 26.8297Z" fill="#C29C5B"/>
<path d="M70.829 22.3974C70.8488 22.5564 70.9294 22.7014 71.0541 22.802C71.1787 22.9026 71.3375 22.9509 71.497 22.9367C71.6566 22.9225 71.8043 22.8469 71.9092 22.7258C72.0141 22.6048 72.0678 22.4477 72.0591 22.2878C72.0394 22.1289 71.9587 21.9838 71.8341 21.8832C71.7095 21.7826 71.5507 21.7343 71.3911 21.7485C71.2316 21.7628 71.0838 21.8384 70.979 21.9594C70.8741 22.0805 70.8204 22.2375 70.829 22.3974Z" fill="#C29C5B"/>
<path d="M68.7459 15.7422L68.774 15.8884C68.7936 16.0439 68.8727 16.1857 68.9948 16.284C69.1168 16.3823 69.2722 16.4294 69.4283 16.4155C69.5844 16.4016 69.729 16.3277 69.8317 16.2094C69.9345 16.091 69.9873 15.9375 69.9791 15.781C69.9797 15.7313 69.9803 15.6817 69.9809 15.632C69.9905 14.831 68.5944 14.9539 68.7459 15.7422Z" fill="#C29C5B"/>
<path d="M69.6125 10.1062C69.5317 10.166 69.4677 10.2456 69.4265 10.3373C69.3853 10.429 69.3684 10.5298 69.3773 10.6299C69.3862 10.73 69.4207 10.8262 69.4775 10.9092C69.5342 10.9922 69.6113 11.0592 69.7014 11.1038C69.7949 11.1507 69.8972 11.1775 70.0017 11.1824C70.1062 11.1874 70.2105 11.1704 70.3081 11.1326C70.4294 11.0838 70.5318 10.9971 70.6002 10.8856C70.6685 10.774 70.6991 10.6434 70.6875 10.5131C70.6759 10.3828 70.6226 10.2597 70.5357 10.162C70.4487 10.0643 70.3326 9.99717 70.2045 9.97054C70.1018 9.95083 69.9961 9.95271 69.8942 9.97606C69.7923 9.99941 69.6964 10.0437 69.6125 10.1062Z" fill="#C29C5B"/>
<path d="M74.2141 59.7776L74.1875 59.7965C74.1258 59.8356 74.0724 59.8866 74.0304 59.9464C73.9884 60.0062 73.9586 60.0737 73.9428 60.1451C73.927 60.2164 73.9255 60.2902 73.9383 60.3621C73.9511 60.4341 73.978 60.5028 74.0174 60.5643C74.0325 60.6459 74.0681 60.7223 74.1209 60.7863C74.1736 60.8503 74.2418 60.8999 74.319 60.9303L74.3495 60.9405C74.4693 60.9905 74.6016 61.0022 74.7284 60.9743C74.8552 60.9463 74.9702 60.8799 75.0579 60.7841C75.1237 60.7032 75.1704 60.6086 75.1947 60.5072C75.219 60.4058 75.2202 60.3003 75.1982 60.1984C75.1762 60.0965 75.1316 60.0009 75.0676 59.9185C75.0036 59.8362 74.922 59.7693 74.8287 59.7228C74.7307 59.6763 74.622 59.6568 74.5139 59.6665C74.4059 59.6761 74.3024 59.7145 74.2141 59.7776Z" fill="#C29C5B"/>
<path d="M77.7589 54.9563C77.6681 54.9881 77.5809 55.0294 77.4989 55.0797C77.4198 55.1368 77.3569 55.2135 77.3164 55.3022C77.2759 55.3909 77.2592 55.4886 77.2678 55.5857C77.2765 55.6829 77.3103 55.7761 77.3658 55.8562C77.4214 55.9364 77.4968 56.0007 77.5847 56.0429C77.6744 56.0779 77.7675 56.1032 77.8625 56.1184C77.9541 56.135 78.0484 56.1303 78.138 56.1046C78.2275 56.0788 78.3099 56.0328 78.3787 55.97C78.4475 55.9071 78.5009 55.8293 78.5347 55.7424C78.5685 55.6556 78.5818 55.5621 78.5735 55.4693C78.5652 55.3765 78.5356 55.2869 78.487 55.2074C78.4384 55.1279 78.3721 55.0607 78.2932 55.0111C78.2144 54.9614 78.1252 54.9306 78.0325 54.9211C77.9398 54.9116 77.8462 54.9237 77.7589 54.9563Z" fill="#C29C5B"/>
<path d="M79.3591 49.4325C79.3241 49.6313 79.3187 49.8343 79.3431 50.0347C79.3542 50.1277 79.392 50.2156 79.4518 50.2877C79.5117 50.3598 79.5911 50.413 79.6805 50.441C79.7699 50.4691 79.8655 50.4707 79.9558 50.4456C80.0461 50.4206 80.1272 50.37 80.1894 50.3C80.3042 50.1427 80.3937 49.9684 80.4547 49.7835C80.4891 49.709 80.5073 49.628 80.508 49.5459C80.5088 49.4638 80.4921 49.3825 80.4591 49.3073C80.4261 49.2322 80.3774 49.1649 80.3165 49.11C80.2555 49.055 80.1835 49.0136 80.1053 48.9886C80.0271 48.9635 79.9446 48.9554 79.863 48.9647C79.7814 48.9739 79.7028 49.0004 79.6322 49.0424C79.5616 49.0844 79.5008 49.1408 79.4537 49.2081C79.4066 49.2753 79.3744 49.3518 79.3591 49.4325Z" fill="#C29C5B"/>
<path d="M77.2976 45.7526C77.2241 45.6863 77.1343 45.6409 77.0374 45.6209C76.9405 45.6009 76.84 45.6071 76.7463 45.6388C76.6526 45.6706 76.5691 45.7268 76.5044 45.8016C76.4396 45.8765 76.396 45.9672 76.378 46.0645C76.356 46.1909 76.3678 46.3209 76.4122 46.4412C76.4597 46.5597 76.5434 46.6602 76.6514 46.7282C76.7595 46.7962 76.8863 46.8282 77.0136 46.8198L77.0485 46.8198C77.5955 46.8184 77.6876 46.1691 77.3864 45.8405C77.3643 45.8127 77.3395 45.7872 77.3123 45.7643C77.3072 45.7605 77.3029 45.7563 77.2976 45.7526Z" fill="#C29C5B"/>
</svg>
