<svg width="89" height="91" viewBox="0 0 89 91" fill="none" xmlns="http://www.w3.org/2000/svg">
<path d="M15.7893 84.7481C15.2083 84.3693 14.6347 83.9765 14.0657 83.5753C14.0642 83.5872 14.063 83.5975 14.0611 83.6107C14.0339 83.7998 14.0214 83.9908 14.0239 84.1819C14.0407 84.5428 14.0862 84.9019 14.1601 85.2556C14.1956 85.4616 13.8841 85.5711 13.8051 85.3694C13.638 84.9245 13.545 84.4553 13.5297 83.9803C13.4991 83.7178 13.4975 83.4526 13.525 83.1898C13.1786 82.9412 12.8333 82.6906 12.4892 82.438C12.4792 83.264 12.3464 84.0839 12.095 84.8708C12.0835 84.899 12.0632 84.9228 12.0372 84.9387C12.0112 84.9546 11.9807 84.9617 11.9504 84.959C11.92 84.9563 11.8913 84.9439 11.8685 84.9237C11.8457 84.9035 11.8299 84.8765 11.8236 84.8466C11.7221 83.9004 11.7495 82.9448 11.9052 82.0059C11.7041 81.8568 11.5029 81.7076 11.3017 81.5584C11.1301 82.3557 10.9157 83.1433 10.6594 83.9177C10.6432 83.9591 10.6178 83.9964 10.5852 84.0267C10.5525 84.057 10.5134 84.0795 10.4708 84.0926C10.4283 84.1056 10.3833 84.1089 10.3393 84.1021C10.2952 84.0953 10.2533 84.0787 10.2166 84.0534C9.59309 83.6915 9.0255 83.2408 8.53166 82.7155C8.48817 83.1357 8.44222 83.5557 8.39383 83.9756C8.57699 84.0735 8.75139 84.2067 8.90326 84.2956C9.52327 84.6588 10.1661 84.975 10.8128 85.2874C11.1365 85.4437 10.954 85.9652 10.6139 85.8192C9.87023 85.3912 9.1002 85.0106 8.30844 84.68C8.2573 85.0846 8.20012 85.4876 8.1395 85.8896C8.23467 85.9544 8.32374 86.0243 8.40314 86.0788C8.82077 86.3655 9.2384 86.6523 9.65605 86.939C9.9454 87.1378 9.62879 87.5839 9.34027 87.3833C9.03783 87.1731 8.73534 86.9628 8.43282 86.7525C8.33433 86.6839 8.19556 86.5733 8.04919 86.4743C7.94946 87.0768 7.83569 87.6749 7.70242 88.2662C7.69465 88.3275 7.66346 88.3834 7.61537 88.4221C7.56728 88.4608 7.50604 88.4794 7.44455 88.4739C7.38305 88.4684 7.32607 88.4393 7.28559 88.3927C7.24511 88.346 7.22429 88.2856 7.22749 88.2239C7.25599 87.5915 7.30518 86.9582 7.36639 86.3248C7.20652 86.403 7.0269 86.5375 6.90453 86.6003C6.6137 86.7497 6.32572 86.8977 6.02316 87.0224C5.86026 87.0896 5.69666 86.8643 5.85084 86.7524C6.19483 86.5026 6.56115 86.2895 6.92481 86.0697C7.08458 85.9556 7.25169 85.8521 7.42505 85.7599C7.46617 85.3779 7.51021 84.9958 7.55719 84.6138C6.78555 84.6819 5.98607 85.1111 5.23203 85.2433C5.19036 85.2496 5.14779 85.2408 5.11197 85.2186C5.07616 85.1964 5.04942 85.1622 5.03655 85.122C5.02368 85.0819 5.02552 85.0385 5.04174 84.9996C5.05796 84.9607 5.0875 84.9288 5.12507 84.9097C5.72545 84.6208 6.34496 84.3735 6.97926 84.1696C7.18138 84.0979 7.41444 83.9767 7.64643 83.9059C7.6923 83.5568 7.73899 83.2078 7.78651 82.8588C7.06329 83.2565 6.29272 83.5613 5.49311 83.7658C5.29359 83.8226 5.16108 83.6243 5.15552 83.4577C5.09026 82.6482 5.11315 81.834 5.22379 81.0294C4.94178 81.1607 4.65907 81.2899 4.37648 81.4193C4.37026 81.5171 4.3644 81.6125 4.36481 81.702C4.36866 82.4714 4.41968 83.2376 4.45908 84.0055C4.47816 84.3781 3.91523 84.5002 3.87316 84.1123C3.78551 83.3052 3.79678 82.501 3.77266 81.6942C3.4711 81.8304 3.16805 81.9614 2.86579 82.0949C2.87545 82.2501 2.86621 82.4086 2.86745 82.5514C2.87172 83.0652 2.8793 83.5805 2.863 84.094C2.85074 84.481 2.28448 84.4119 2.27494 84.0415C2.32568 83.4776 2.3335 82.9107 2.2983 82.3456C1.63724 82.6328 0.974683 82.9142 0.308996 83.1832C0.25547 83.2062 0.195118 83.2075 0.140673 83.1868C0.0862274 83.1661 0.0419331 83.1251 0.0171261 83.0724C-0.0076828 83.0197 -0.0110664 82.9595 0.00768661 82.9043C0.0264378 82.8492 0.0658646 82.8035 0.117653 82.7768C0.730247 82.4297 1.3486 82.0902 1.97269 81.7582C1.69244 81.5831 1.40212 81.4247 1.10327 81.2836C0.79205 81.1065 0.47788 80.9343 0.164886 80.7602C0.0253258 80.6825 0.151545 80.4596 0.293949 80.5171C0.813393 80.7267 1.33533 80.9299 1.85453 81.14C2.09949 81.2162 2.33441 81.3215 2.55428 81.4537C2.92007 81.2613 3.28468 81.0673 3.65308 80.8785C3.52354 80.6448 3.28308 80.5432 2.94858 80.3265C2.51024 80.0497 2.09383 79.7396 1.70301 79.399C1.55237 79.265 1.66716 78.969 1.88124 79.063C2.42285 79.3116 2.94424 79.6021 3.44065 79.9319C3.76115 80.0789 4.04514 80.2951 4.27224 80.5648C4.49073 80.4542 4.70867 80.343 4.92792 80.2334C4.28212 79.8731 3.67716 79.4441 3.12357 78.9539C3.0796 78.9213 3.04472 78.878 3.0223 78.8281C2.99988 78.7782 2.99066 78.7234 2.99552 78.6689C3.00038 78.6144 3.01916 78.5621 3.05006 78.5169C3.08096 78.4718 3.12294 78.4353 3.17198 78.4111C3.92667 78.0554 4.67886 77.6918 5.43895 77.347C5.24233 77.2125 5.04585 77.0779 4.84947 76.9431C3.97997 77.5363 2.99624 77.9414 1.96123 78.1326C1.91627 78.1394 1.87035 78.13 1.83171 78.106C1.79307 78.0821 1.76423 78.0451 1.75035 78.0018C1.73648 77.9585 1.73846 77.9117 1.75598 77.8697C1.77349 77.8278 1.80538 77.7934 1.84592 77.7728C2.38865 77.5374 3.72797 77.1356 4.32836 76.586C3.89324 76.2867 3.4604 75.9848 3.02982 75.6802C2.46642 76.0189 1.85108 76.2625 1.20851 76.4012C1.15817 76.4089 1.10675 76.3984 1.06346 76.3715C1.02018 76.3447 0.987875 76.3034 0.97234 76.2549C0.956804 76.2064 0.959048 76.1539 0.978687 76.1069C0.998326 76.06 1.03408 76.0215 1.0795 75.9985C1.57761 75.8141 2.05865 75.5866 2.51713 75.3184C2.00113 74.9501 1.48832 74.578 0.983986 74.1956C0.833948 74.082 0.9613 73.812 1.1435 73.8951C1.76582 74.1813 2.37321 74.4989 2.96333 74.8467C3.10271 74.3446 3.16323 73.8238 3.1427 73.3031C3.16888 72.9034 3.75369 72.9696 3.75333 73.3576C3.79677 73.9768 3.71894 74.5987 3.52419 75.1881C3.89655 75.4186 4.26609 75.6548 4.63028 75.9007C4.61553 75.5699 4.50038 75.1465 4.49221 74.866C4.47675 74.336 4.50352 73.8056 4.57227 73.2799C4.58205 73.1999 4.62254 73.1268 4.6852 73.0762C4.74786 73.0255 4.82778 73.0011 4.90805 73.0083C4.98832 73.0154 5.06265 73.0535 5.11536 73.1145C5.16806 73.1755 5.19501 73.2545 5.19049 73.335C5.10234 74.3409 5.13406 75.3536 5.285 76.352C5.44505 76.4642 5.60461 76.5771 5.76367 76.6907C5.73984 76.2962 5.75068 75.9003 5.79608 75.5076C5.82043 75.1743 5.74815 74.404 6.07216 74.1846C6.39973 73.9628 6.8188 74.3741 7.07201 74.5352C7.587 74.8629 8.10965 75.1824 8.61593 75.5237C8.6424 75.229 8.6691 74.9343 8.69604 74.6397C8.6897 74.6377 8.68301 74.6373 8.67673 74.6353C7.97419 74.3291 7.30458 73.9523 6.67824 73.5106C6.21438 73.3061 5.81492 72.9792 5.52267 72.565C5.43366 72.4204 5.64876 72.2476 5.77546 72.3536C6.54624 72.9432 7.40431 73.4089 8.31869 73.7338C8.46536 73.7833 8.61719 73.8158 8.77124 73.8308C8.79796 73.5463 8.82812 73.2622 8.85627 72.9778C8.72424 72.8729 8.60443 72.7439 8.49036 72.6515C8.09132 72.3278 7.67884 72.0207 7.28017 71.6964C7.2487 71.6723 7.2278 71.637 7.22187 71.5978C7.21593 71.5587 7.22544 71.5188 7.24838 71.4865C7.27132 71.4542 7.30589 71.4321 7.34482 71.4248C7.38374 71.4175 7.42398 71.4256 7.45704 71.4474C7.74776 71.6289 8.03617 71.8139 8.32587 71.997C8.46311 72.0838 8.69965 72.2774 8.9141 72.3972C8.98894 71.6756 9.0687 70.9549 9.1628 70.2365C9.17233 70.1602 9.21109 70.0906 9.27092 70.0423C9.33075 69.9941 9.40697 69.9709 9.48353 69.9777C9.5601 69.9846 9.63103 70.0208 9.68137 70.0789C9.73171 70.137 9.75754 70.2124 9.75341 70.2891C9.72349 70.9698 9.67583 71.651 9.62097 72.3322C10.0038 72.0906 10.429 71.6509 10.7061 71.4481C11.0328 71.209 11.4371 71.6829 11.1125 71.9339C10.7151 72.2409 10.3128 72.5419 9.90546 72.8369C9.79441 72.9261 9.6774 73.0075 9.55525 73.0807C9.5341 73.3154 9.51639 73.5502 9.49346 73.7849C10.3659 73.4918 11.1947 73.082 11.9573 72.5666C12.3179 72.3715 12.5813 72.9438 12.2271 73.1396C11.5037 73.5397 10.3821 74.4639 9.4057 74.6559C9.37281 74.9678 9.34005 75.2798 9.30526 75.5916C9.97024 75.1755 10.6525 74.7878 11.3391 74.4085C11.3799 74.3899 11.4244 74.3807 11.4693 74.3818C11.5141 74.3828 11.5582 74.3941 11.5981 74.4146C11.638 74.4351 11.6727 74.4644 11.6996 74.5003C11.7266 74.5362 11.745 74.5778 11.7536 74.6219C11.9443 75.3504 12.0354 76.1015 12.0242 76.8546C12.1547 76.7941 12.2849 76.7336 12.415 76.6732C12.4035 76.3758 12.4229 76.078 12.4732 75.7846C12.5324 75.0398 12.6075 74.2956 12.7167 73.5564C12.7225 73.5101 12.7461 73.4678 12.7825 73.4385C12.8189 73.4092 12.8652 73.3952 12.9117 73.3993C12.9582 73.4035 13.0014 73.4255 13.032 73.4608C13.0626 73.496 13.0784 73.5418 13.076 73.5884C13.097 74.3515 12.8619 75.5254 13.1074 76.352C13.4064 76.2134 13.7026 76.0742 14.001 75.9355C13.9999 75.925 13.9995 75.9143 13.9997 75.9037C14.0505 75.3606 14.1349 74.8212 14.2525 74.2885C14.2581 74.2441 14.2807 74.2036 14.3156 74.1755C14.3505 74.1474 14.3949 74.1339 14.4394 74.1379C14.484 74.1419 14.5253 74.163 14.5547 74.1968C14.584 74.2306 14.5991 74.2745 14.5968 74.3192C14.5653 74.7717 14.552 75.2269 14.5469 75.6811C15.0776 75.434 15.6104 75.1875 16.1379 74.9395C16.2131 74.9072 16.2979 74.9054 16.3744 74.9344C16.4509 74.9634 16.5132 75.021 16.5481 75.0951C16.5829 75.1691 16.5877 75.2538 16.5613 75.3313C16.5349 75.4087 16.4794 75.4729 16.4066 75.5103C16.0173 75.7034 15.6262 75.9009 15.2361 76.0958C15.5944 76.2597 15.9351 76.4598 16.2527 76.6931C16.3011 76.7299 16.3349 76.7826 16.348 76.842C16.3611 76.9014 16.3526 76.9635 16.3241 77.0172C16.2956 77.0709 16.2489 77.1127 16.1924 77.1351C16.1359 77.1575 16.0733 77.1591 16.0157 77.1396C15.5153 76.9511 15.0363 76.7101 14.5868 76.4205C14.2155 76.6066 13.8453 76.7906 13.4737 76.9774C14.145 77.6996 15.2529 78.1666 15.9857 78.8276C16.0406 78.8698 16.0771 78.9316 16.0874 79.0001C16.0977 79.0687 16.081 79.1385 16.0409 79.195C16.0007 79.2515 15.9403 79.2902 15.8722 79.303C15.8041 79.3158 15.7337 79.3016 15.6758 79.2636C14.985 78.8305 14.3174 78.3616 13.6756 77.8588C13.4523 77.6959 13.1047 77.5143 12.8321 77.2999C12.6449 77.3941 12.4579 77.4881 12.271 77.582C12.7002 78.1636 13.2217 78.671 13.8148 79.0842C14.0187 79.2631 14.2264 79.4461 14.118 79.7387C13.9713 80.1345 13.2626 80.3218 12.9267 80.4905C12.5649 80.6722 12.1988 80.8821 11.818 81.0392C12.0574 81.2073 12.2963 81.3762 12.5346 81.5459C13.4636 81.3562 14.3726 81.0791 15.2495 80.7183C15.322 80.6872 15.4037 80.6855 15.4774 80.7135C15.5511 80.7415 15.611 80.797 15.6446 80.8684C15.6782 80.9397 15.6828 81.0213 15.6574 81.0959C15.6321 81.1706 15.5787 81.2325 15.5086 81.2685C14.7959 81.6332 14.0369 81.8989 13.2524 82.0583C13.54 82.2648 13.8236 82.4757 14.1087 82.6849C14.3397 82.6566 14.594 82.6746 14.7743 82.6615C15.2551 82.6031 15.7393 82.5782 16.2235 82.5871C16.2921 82.5953 16.3555 82.6275 16.4025 82.6781C16.4495 82.7287 16.477 82.7943 16.4801 82.8632C16.4833 82.9322 16.4618 83 16.4196 83.0547C16.3774 83.1093 16.3172 83.1472 16.2497 83.1616C15.8952 83.2169 15.5373 83.2474 15.1786 83.253C15.0959 83.2578 14.988 83.2541 14.8732 83.2504C15.304 83.5749 15.732 83.9021 16.1519 84.2381C16.2163 84.2874 16.2591 84.3597 16.2713 84.44C16.2834 84.5202 16.2639 84.602 16.2169 84.6682C16.1698 84.7343 16.099 84.7796 16.0192 84.7945C15.9394 84.8094 15.857 84.7928 15.7893 84.7481ZM7.67043 78.8912C7.13102 78.5103 6.58825 78.1336 6.04213 77.7608C5.33816 78.1101 4.62227 78.4366 3.90835 78.7661C4.43991 79.1332 4.93945 79.5447 5.40157 79.9961C6.15495 79.6231 6.91124 79.2548 7.67043 78.8912ZM8.21487 79.6031C7.38244 80.0102 6.54732 80.4102 5.70951 80.803C5.75651 81.5658 5.76046 82.3306 5.72136 83.0938C6.46213 82.8031 7.18629 82.4718 7.89051 82.1012C8.00517 81.2671 8.11816 80.434 8.21487 79.6031ZM8.55774 76.1683C8.50771 76.1651 8.45912 76.1503 8.41577 76.1251C8.03836 75.9044 7.67309 75.6615 7.30422 75.4268C7.10547 75.3003 6.90673 75.1738 6.70798 75.0474C6.66461 75.0198 6.5487 74.9264 6.45004 74.8525C6.30332 75.553 6.4674 76.3521 6.22481 77.0251C6.93144 77.5386 7.63073 78.0596 8.32848 78.5681C8.4112 77.7693 8.48533 76.969 8.55774 76.1683ZM8.998 78.2645C9.85711 77.8601 10.7176 77.4617 11.5777 77.0626C11.5225 77.0228 11.4845 76.9635 11.4715 76.8967C11.351 76.318 11.3174 75.7178 11.2364 75.1271C10.582 75.4727 9.92234 75.8085 9.24689 76.1114C9.16504 76.83 9.08067 77.5479 8.998 78.2645ZM10.8146 81.1949C10.1553 80.7029 9.49666 80.2113 8.83494 79.7282C8.7476 80.5461 8.66784 81.3716 8.58447 82.1984C9.11304 82.5999 9.6426 82.998 10.2013 83.3553C10.3408 82.6183 10.5461 81.8953 10.8146 81.1949ZM12.3353 80.1255C12.5578 80.0043 12.7817 79.8855 13.0054 79.7662C13.2975 79.6105 13.3596 79.6678 13.2414 79.4237C13.138 79.2101 12.6895 78.9774 12.5062 78.8224C12.3819 78.7171 12.253 78.6156 12.1382 78.4997C11.949 78.3225 11.8074 78.1005 11.7264 77.8543C10.8641 78.2875 10.0021 78.7219 9.13573 79.15C9.8653 79.6711 10.6024 80.1866 11.3394 80.7033C11.6586 80.4895 11.9913 80.2965 12.3353 80.1255Z" fill="#C29C5B"/>
<path d="M86.2025 81.3281C84.3128 82.4198 82.2847 81.9227 80.6968 80.7334C80.9681 81.1609 81.1963 81.6142 81.3781 82.0868C81.7996 83.1018 81.9477 84.2095 81.8077 85.2996C81.6676 86.3897 81.2444 87.424 80.58 88.2995C80.5854 88.3458 80.5782 88.3927 80.5593 88.4353C80.5404 88.4779 80.5103 88.5146 80.4724 88.5417C80.3756 88.6185 80.2732 88.6775 80.1744 88.7478C79.4702 89.4451 78.6107 89.9656 77.6664 90.2665C76.7222 90.5674 75.72 90.6401 74.7422 90.4788C72.7539 90.2105 70.5638 89.2542 70.5318 86.9555C70.5069 85.1606 71.7488 83.9385 73.1728 83.0767C73.1869 83.0429 73.209 83.013 73.2371 82.9896C73.5798 82.7221 73.9754 82.5306 74.3977 82.4278C74.4205 82.4171 74.4436 82.4056 74.4663 82.395C74.5117 82.3738 74.5624 82.3668 74.6118 82.375C75.1266 82.2545 75.6667 82.3053 76.1501 82.5196C76.1758 82.5334 76.1973 82.554 76.2123 82.5791C76.2273 82.6042 76.2353 82.6329 76.2353 82.6621C76.8297 82.8126 77.353 83.1656 77.7151 83.6604C79.3 85.8502 76.229 88.2037 74.424 86.2401C74.1803 85.9749 74.5929 85.6593 74.8421 85.8905C75.8831 86.8562 77.7175 85.9871 77.15 84.5397C77.0121 84.2492 76.8067 83.9959 76.5509 83.8012C76.2951 83.6064 75.9963 83.4757 75.6796 83.4201C75.0137 83.3495 74.3431 83.5013 73.7725 83.8519C72.2414 85.3832 71.3591 88.0294 73.9308 89.0471C76.3275 89.8247 78.9492 88.9291 79.9247 86.4423C80.7057 84.4512 80.2398 82.3789 79.3596 80.5218C78.7949 79.861 78.1272 79.2958 77.3822 78.8479C71.7855 75.5113 64.6724 77.5741 59.9482 81.3816C56.9309 83.8135 53.7027 87.1174 49.4832 86.901C46.9773 86.7725 44.8212 85.193 44.3173 82.9344C43.7439 84.2891 42.6856 85.3811 41.3495 85.9966C38.4935 87.3952 35.119 86.5974 32.5201 85.0151C29.5657 83.2163 27.2788 79.3896 24.1419 77.8015C24.1201 77.8069 24.0978 77.8098 24.0754 77.8103C22.8414 77.7501 21.5629 77.6189 20.6579 78.6551C19.8539 79.5756 20.088 81.1339 21.2166 81.5185C21.6076 81.5091 21.9909 81.4075 22.3351 81.222C22.6794 81.0365 22.975 80.7722 23.1979 80.4508C23.2458 80.3876 23.3146 80.3435 23.3921 80.3263C23.4696 80.3092 23.5506 80.3203 23.6207 80.3575C23.6908 80.3946 23.7454 80.4556 23.7746 80.5293C23.8039 80.603 23.806 80.6848 23.7804 80.7599C22.9024 83.4439 19.2107 83.2014 18.3518 80.6347C17.3202 77.5514 21.0271 75.977 23.4751 76.6286C23.54 76.6436 23.5964 76.6834 23.6322 76.7396C26.7376 77.5559 28.7953 80.8044 31.2504 82.8193C33.5219 84.6834 36.528 86.243 39.5536 85.6025C39.586 85.5612 39.6272 85.5275 39.6742 85.5039C43.46 83.628 44.2149 79.026 40.9164 76.6821C40.657 76.5565 40.3889 76.4495 40.1143 76.3619C39.8764 76.3411 39.6371 76.3394 39.3989 76.3568C39.6556 76.682 39.8023 77.0804 39.8177 77.4945C39.8331 77.9085 39.7164 78.3167 39.4845 78.66C39.3364 78.8384 39.1496 78.9806 38.9382 79.0757C38.7268 79.1708 38.4964 79.2163 38.2647 79.2087C38.2541 79.2464 38.2318 79.2799 38.2011 79.3043C38.1704 79.3287 38.1328 79.3428 38.0937 79.3446C36.6791 79.418 36.2822 77.532 37.0302 76.5899C37.2605 76.3014 37.5517 76.0674 37.883 75.9047C36.7612 75.2558 35.4471 75.0216 34.1702 75.243C34.0799 75.256 33.988 75.2335 33.9139 75.1801C33.8398 75.1268 33.7892 75.0468 33.7728 74.957C33.7565 74.8671 33.7756 74.7745 33.8261 74.6984C33.8767 74.6224 33.9547 74.5689 34.0439 74.5493C34.8469 74.3144 35.6971 74.2914 36.5117 74.4825C37.3263 74.6736 38.0775 75.0722 38.6924 75.6396C39.0082 75.5885 39.329 75.5765 39.6477 75.6039C39.6813 75.5603 39.7275 75.5283 39.7801 75.5122C39.8327 75.4962 39.889 75.4968 39.9412 75.5142C40.1538 75.5764 40.3626 75.6509 40.5666 75.7372C41.5137 75.967 42.3819 76.4462 43.081 77.1252C43.78 77.8042 44.2844 78.6581 44.5417 79.598C44.893 78.8341 45.4327 78.172 46.1102 77.6739C46.7877 77.1759 47.5806 76.8582 48.4146 76.7507C49.0934 76.6733 49.7808 76.7631 50.417 77.0121C50.6297 76.5759 50.9352 76.1914 51.3121 75.8857C51.689 75.5799 52.1282 75.3602 52.5989 75.242C52.6733 75.2308 52.7492 75.2464 52.813 75.286C52.8769 75.3257 52.9246 75.3868 52.9475 75.4584C52.9705 75.5299 52.9672 75.6074 52.9383 75.6767C52.9093 75.7461 52.8566 75.8029 52.7896 75.837C52.1795 76.0908 51.6511 76.5079 51.2627 77.0426C51.1972 77.1464 51.1388 77.2546 51.0878 77.3663C51.3558 77.5321 51.5795 77.7604 51.7398 78.0318C51.9 78.3031 51.992 78.6093 52.0077 78.924C52.0877 79.0511 52.1173 79.2035 52.0907 79.3512C52.0641 79.499 51.9833 79.6314 51.864 79.7226C51.8403 79.7594 51.8044 79.7866 51.7626 79.7996C51.6384 79.8848 51.4966 79.941 51.3477 79.9638C51.1988 79.9867 51.0466 79.9757 50.9026 79.9317C50.7585 79.8877 50.6262 79.8117 50.5155 79.7095C50.4048 79.6073 50.3186 79.4814 50.2633 79.3413C50.0086 78.7884 49.979 78.158 50.1807 77.5836C49.9164 77.4959 49.6417 77.443 49.3637 77.4262C49.312 77.5042 49.2332 77.5601 49.1425 77.5831C48.2128 77.8284 47.4087 78.4133 46.889 79.2223C46.3693 80.0313 46.1716 81.0058 46.335 81.9534C46.6716 83.6922 48.1073 84.8326 49.6107 85.5702C49.6619 85.5969 49.7048 85.6372 49.7346 85.6866C50.9748 85.6888 52.2002 85.4182 53.3242 84.894C55.1342 84.0294 56.6165 82.681 58.1409 81.4088C60.7017 79.2717 63.3491 77.5251 66.6427 76.7444C70.5896 75.8089 76.0163 76.1569 79.2341 79.0024C79.2467 78.9889 79.2619 78.9781 79.2787 78.9706C79.2956 78.963 79.3137 78.959 79.3322 78.9586C79.3506 78.9582 79.3689 78.9615 79.3861 78.9683C79.4032 78.9751 79.4188 78.9853 79.432 78.9982C80.5946 80.0536 82.2785 81.0943 83.8725 81.1606C83.8985 81.1303 83.9284 81.1037 83.9614 81.0814C85.1106 80.3594 86.1847 79.4834 86.3329 78.0264C86.396 77.3654 86.2258 76.7032 85.8519 76.1545C85.478 75.6058 84.9239 75.2053 84.2857 75.0222C84.0098 74.9843 83.7302 74.9824 83.4539 75.0166C83.065 75.0536 82.6932 75.1941 82.377 75.4235C82.0607 75.6528 81.8117 75.9627 81.6558 76.3208C81.4727 77.8766 82.0805 78.4767 83.479 78.121C83.5607 78.086 83.6527 78.084 83.7358 78.1155C83.8189 78.147 83.8865 78.2096 83.9243 78.29C83.9622 78.3704 83.9673 78.4623 83.9387 78.5464C83.9101 78.6305 83.8499 78.7002 83.7709 78.7408C81.7587 79.8091 80.0993 77.4041 81.1386 75.6132C82.3939 73.4502 85.6907 73.8582 87.2444 75.4414C88.9983 77.2287 88.2515 80.1444 86.2025 81.3281ZM50.8287 78.4454C50.7594 79.0325 50.9554 79.2089 51.4165 78.9747C51.3569 78.5934 51.1686 78.2439 50.883 77.9844C50.8512 78.1361 50.833 78.2904 50.8287 78.4454ZM38.6983 76.4818C38.6204 76.5047 38.5416 76.524 38.466 76.5535C37.4506 76.9505 36.8177 78.3347 38.1285 78.8555C38.3277 78.8481 38.5209 78.7859 38.6869 78.6757C38.853 78.5655 38.9854 78.4116 39.0697 78.231C39.1683 77.9327 39.1859 77.6135 39.1206 77.3062C39.0554 76.9988 38.9096 76.7143 38.6983 76.4818Z" fill="#C29C5B"/>
<path d="M60.2049 82.4072C60.0462 82.3985 59.8905 82.4518 59.7704 82.5559C59.6503 82.6599 59.5753 82.8064 59.5612 82.9647C59.5471 83.1229 59.595 83.2804 59.6948 83.404C59.7946 83.5276 59.9385 83.6077 60.0961 83.6272C60.2547 83.6359 60.4105 83.5825 60.5306 83.4785C60.6507 83.3745 60.7257 83.228 60.7398 83.0697C60.7539 82.9115 60.706 82.7539 60.6062 82.6303C60.5064 82.5067 60.3625 82.4267 60.2049 82.4072Z" fill="#C29C5B"/>
<path d="M65.2239 79.5771C65.0639 79.5684 64.9068 79.6221 64.7858 79.727C64.6647 79.8318 64.5891 79.9796 64.5748 80.1391C64.5606 80.2987 64.6089 80.4575 64.7095 80.5821C64.8101 80.7068 64.9552 80.7875 65.1142 80.8072C65.2741 80.8159 65.4312 80.7622 65.5522 80.6573C65.6733 80.5524 65.749 80.4047 65.7632 80.2451C65.7774 80.0856 65.7291 79.9267 65.6285 79.8021C65.5279 79.6775 65.3828 79.5968 65.2239 79.5771Z" fill="#C29C5B"/>
<path d="M72.1354 78.7051L71.9865 78.707C71.83 78.6988 71.6765 78.7516 71.5581 78.8543C71.4398 78.9571 71.3659 79.1017 71.3519 79.2578C71.338 79.4139 71.3852 79.5693 71.4835 79.6913C71.5818 79.8133 71.7236 79.8925 71.8791 79.9121L72.0253 79.9402C72.8121 80.0914 72.9381 78.6955 72.1354 78.7051Z" fill="#C29C5B"/>
<path d="M77.5303 80.5549C77.4857 80.4649 77.4187 80.3878 77.3357 80.331C77.2527 80.2742 77.1565 80.2398 77.0564 80.2308C76.9563 80.2219 76.8555 80.2388 76.7638 80.28C76.6721 80.3212 76.5925 80.3852 76.5326 80.466C76.47 80.5498 76.4255 80.6457 76.4022 80.7477C76.3788 80.8496 76.3771 80.9554 76.397 81.058C76.4236 81.1861 76.4908 81.3022 76.5885 81.3892C76.6862 81.4762 76.8093 81.5294 76.9396 81.541C77.0699 81.5526 77.2005 81.522 77.312 81.4537C77.4236 81.3854 77.5102 81.283 77.5591 81.1616C77.5966 81.064 77.6135 80.9597 77.6085 80.8553C77.6036 80.7508 77.5769 80.6485 77.5303 80.5549Z" fill="#C29C5B"/>
<path d="M27.8319 76.2929L27.8179 76.2633C27.7904 76.1956 27.7497 76.1341 27.6983 76.0822C27.6468 76.0302 27.5856 75.989 27.5182 75.9608C27.4508 75.9327 27.3784 75.9181 27.3053 75.918C27.2323 75.9178 27.1599 75.9322 27.0923 75.9601C27.0094 75.9605 26.9279 75.982 26.8556 76.0226C26.7832 76.0632 26.7224 76.1216 26.6788 76.1922L26.6634 76.2204C26.593 76.3295 26.558 76.4576 26.5631 76.5874C26.5682 76.7171 26.6132 76.8421 26.692 76.9453C26.7599 77.0244 26.8448 77.0871 26.9403 77.1289C27.0358 77.1708 27.1394 77.1906 27.2436 77.187C27.3478 77.1833 27.4498 77.1563 27.5422 77.1079C27.6345 77.0596 27.7148 76.991 27.777 76.9074C27.8402 76.8192 27.8786 76.7157 27.8882 76.6076C27.8979 76.4996 27.8784 76.3909 27.8319 76.2929Z" fill="#C29C5B"/>
<path d="M31.9512 80.6398C31.936 80.5448 31.9107 80.4517 31.8757 80.3621C31.8335 80.2742 31.7692 80.1987 31.689 80.1432C31.6089 80.0876 31.5156 80.0538 31.4185 80.0452C31.3214 80.0365 31.2236 80.0533 31.1349 80.0938C31.0462 80.1343 30.9695 80.1972 30.9125 80.2762C30.8622 80.3583 30.8209 80.4454 30.7891 80.5363C30.7565 80.6235 30.7444 80.7171 30.7539 80.8098C30.7634 80.9025 30.7942 80.9918 30.8439 81.0706C30.8935 81.1495 30.9607 81.2158 31.0402 81.2644C31.1197 81.313 31.2093 81.3426 31.3021 81.3508C31.3949 81.3591 31.4884 81.3458 31.5752 81.3121C31.6621 81.2783 31.7399 81.2249 31.8028 81.1561C31.8656 81.0873 31.9116 81.0049 31.9374 80.9153C31.9631 80.8258 31.9678 80.7315 31.9512 80.6398Z" fill="#C29C5B"/>
<path d="M37.1041 83.1945C36.9145 83.1249 36.7157 83.0837 36.5141 83.0723C36.1304 83.0707 35.7969 83.5297 36.1033 83.8583C36.2379 83.999 36.3936 84.1179 36.5648 84.2107C36.6321 84.2577 36.7086 84.2899 36.7892 84.3052C36.8699 84.3205 36.9528 84.3184 37.0326 84.2992C37.1125 84.28 37.1873 84.2441 37.2521 84.1938C37.317 84.1435 37.3705 84.08 37.409 84.0074C37.4474 83.9349 37.4701 83.8551 37.4754 83.7732C37.4807 83.6912 37.4685 83.6091 37.4397 83.5323C37.4109 83.4554 37.366 83.3855 37.3082 83.3273C37.2503 83.2691 37.1807 83.2238 37.1041 83.1945Z" fill="#C29C5B"/>
<path d="M41.089 81.8111C41.1673 81.7505 41.2279 81.6702 41.2647 81.5783C41.3016 81.4865 41.3132 81.3865 41.2985 81.2887C41.2838 81.1908 41.2433 81.0987 41.1811 81.0217C41.1189 80.9447 41.0373 80.8857 40.9447 80.8508C40.8242 80.8068 40.6943 80.7954 40.5679 80.8178C40.4429 80.8436 40.3292 80.9083 40.2432 81.0026C40.1572 81.0969 40.1032 81.216 40.0889 81.3428L40.0828 81.3771C39.9874 81.9158 40.6102 82.1213 40.9869 81.8829C41.0181 81.8661 41.0476 81.8462 41.0749 81.8235C41.0796 81.8192 41.0845 81.8156 41.089 81.8111Z" fill="#C29C5B"/>
<path d="M25.3645 1.45264C26.6478 3.26175 26.4662 6.5788 24.1153 7.43162C22.1689 8.13778 20.0952 6.07915 21.5027 4.28771C21.5566 4.21714 21.6359 4.17028 21.7237 4.157C21.8115 4.14372 21.9011 4.16506 21.9735 4.21653C22.0459 4.268 22.0955 4.34557 22.1118 4.43288C22.1281 4.5202 22.11 4.61045 22.061 4.68461C21.4636 5.99813 21.9467 6.70243 23.5103 6.79752C23.8904 6.70735 24.2394 6.51704 24.5211 6.24638C24.8027 5.97572 25.0068 5.63457 25.112 5.25838C25.1946 4.99246 25.2422 4.71694 25.2537 4.43874C25.1863 3.7782 24.8901 3.16202 24.4162 2.69696C23.9423 2.2319 23.3207 1.94728 22.659 1.89238C21.1987 1.78063 20.1466 2.68281 19.2327 3.68608C19.2049 3.71469 19.1733 3.73943 19.139 3.75967C18.9223 5.34027 19.6487 7.18167 20.4818 8.51263C20.4922 8.52785 20.4994 8.54502 20.5031 8.5631C20.5068 8.58117 20.5068 8.59981 20.5032 8.61789C20.4995 8.63597 20.4923 8.65314 20.4819 8.66838C20.4715 8.68362 20.4582 8.69664 20.4427 8.70665C22.6741 12.3771 22.0567 17.7797 20.4378 21.4989C19.0869 24.6025 16.8995 26.8992 14.3431 29.0416C12.8214 30.3169 11.232 31.5374 10.0609 33.1659C9.34619 34.1794 8.86314 35.3376 8.6459 36.5586C8.68923 36.5968 8.72124 36.6461 8.73846 36.7012C9.19852 38.3114 10.067 39.9262 11.7189 40.5649C12.6226 40.8934 13.6167 40.8712 14.5049 40.5028C15.3931 40.1344 16.111 39.4465 16.5169 38.5748C16.5556 38.4896 16.6245 38.4219 16.7104 38.3848C16.7431 38.1083 16.7396 37.8286 16.7 37.5529C16.099 37.6499 15.4838 37.5092 14.9846 37.1607C14.8565 37.0814 14.7478 36.9743 14.6668 36.8473C14.5858 36.7203 14.5345 36.5766 14.5166 36.427C14.4988 36.2775 14.5149 36.1258 14.5637 35.9833C14.6126 35.8408 14.6929 35.7111 14.7988 35.6039C14.8189 35.5651 14.852 35.5346 14.8924 35.5178C15.0033 35.4165 15.148 35.3604 15.2981 35.3603C15.4482 35.3603 15.593 35.4164 15.7039 35.5176C16.0109 35.5887 16.296 35.7334 16.5347 35.9391C16.7734 36.1448 16.9586 36.4055 17.0743 36.6986C17.1933 36.6681 17.3101 36.6297 17.4239 36.5836C18.0188 36.2959 18.5228 35.8497 18.8805 35.2941C18.9259 35.2341 18.9911 35.1923 19.0645 35.1761C19.1379 35.1599 19.2147 35.1703 19.2811 35.2056C19.3475 35.2408 19.3992 35.2986 19.4269 35.3684C19.4546 35.4383 19.4566 35.5158 19.4323 35.587C19.2328 36.0294 18.9389 36.4228 18.5713 36.7397C18.2037 37.0565 17.7713 37.2892 17.3043 37.4213C17.4369 38.0915 17.4036 38.784 17.2074 39.4385C16.9541 40.2403 16.5011 40.9645 15.8911 41.5432C15.281 42.1219 14.5339 42.536 13.7198 42.7467C14.5995 43.1662 15.3507 43.8136 15.8953 44.6218C16.4399 45.4299 16.7581 46.3692 16.8167 47.342C16.8656 47.5581 16.9019 47.7768 16.9256 47.997C16.9334 48.0514 16.9241 48.1069 16.899 48.1558C16.8739 48.2048 16.8342 48.2446 16.7854 48.27C16.756 48.5884 16.6874 48.9021 16.5813 49.2038C17.0309 49.9094 17.2904 50.7193 17.3343 51.5549C17.3783 52.3904 17.2053 53.2231 16.8321 53.972C16.797 54.0562 16.7306 54.1236 16.6468 54.1599C16.563 54.1962 16.4684 54.1986 16.3829 54.1666C16.2974 54.1346 16.2276 54.0707 16.1882 53.9884C16.1488 53.906 16.1429 53.8116 16.1717 53.7249C16.6155 52.5073 16.6174 51.1725 16.1772 49.9537C15.9584 50.251 15.6766 50.4962 15.352 50.6718C14.2923 51.2414 12.5063 50.5171 12.8288 49.1379C12.8375 49.0996 12.858 49.0651 12.8875 49.0392C12.9169 49.0133 12.9537 48.9973 12.9928 48.9935C13.0263 48.7642 13.1118 48.5455 13.2428 48.3542C13.3738 48.163 13.5468 48.0042 13.7485 47.89C14.1275 47.7225 14.5499 47.6799 14.9547 47.7683C15.3594 47.8566 15.7256 48.0714 16.0003 48.3816C16.0596 48.1503 16.1002 47.9145 16.1219 47.6767C16.0842 47.3909 16.0263 47.1081 15.9486 46.8305C14.2251 43.1695 9.56205 43.0985 7.04608 46.4927C7.01462 46.5348 6.9742 46.5694 6.92774 46.594C5.76217 49.4586 6.76545 52.6932 8.19839 55.2585C9.74729 58.0314 12.5805 60.6312 12.8346 63.8321C12.8836 63.8772 12.9128 63.9398 12.9162 64.0063C13.1244 66.531 10.9191 69.9009 8.06701 68.3402C5.69266 67.0409 6.10694 63.3644 8.9039 62.975C8.98236 62.9631 9.06247 62.9796 9.12988 63.0215C9.19729 63.0633 9.24759 63.1278 9.2718 63.2034C9.29601 63.2789 9.29253 63.3606 9.262 63.4339C9.23146 63.5071 9.17586 63.5671 9.10514 63.603C8.74939 63.7655 8.43702 64.0097 8.19351 64.3158C7.94999 64.6218 7.7822 64.981 7.70378 65.3642C7.88274 66.5431 9.37503 67.0491 10.4233 66.4206C11.6033 65.7132 11.7003 64.4316 11.8593 63.2064C11.8637 63.1844 11.8706 63.163 11.8797 63.1426C10.8715 59.7742 7.5096 56.8465 6.26177 53.6204C5.16417 50.7827 4.97579 47.3203 6.85759 44.7567C7.69975 43.5505 8.9617 42.7021 10.3965 42.3774C8.26257 41.4819 7.08935 39.0804 7.40607 36.5913C7.93956 32.4 11.7624 29.8072 14.6896 27.2676C19.2727 23.2913 22.5612 16.6553 20.2672 10.5567C19.9581 9.74423 19.5199 8.98701 18.9694 8.3143C17.2973 7.11957 15.3401 6.29442 13.2422 6.71093C10.6221 7.23121 9.27686 9.65308 9.61835 12.1495C10.165 14.8607 12.9255 14.4604 14.7036 13.2244C15.1495 12.7247 15.4176 12.0915 15.4659 11.4236C15.4672 11.1021 15.3914 10.7849 15.245 10.4987C15.0985 10.2125 14.8856 9.96549 14.624 9.77846C13.2999 8.96386 12.12 10.6156 12.8864 11.811C13.0698 12.0972 12.6862 12.4474 12.4683 12.1606C10.8549 10.0368 13.7145 7.4305 15.5894 9.37778C16.0124 9.82168 16.2673 10.3992 16.3102 11.0108C16.339 11.016 16.3658 11.0289 16.3879 11.0482C16.4099 11.0674 16.4264 11.0922 16.4355 11.1199C16.5609 11.6336 16.5153 12.1741 16.3056 12.6595C16.305 12.7095 16.2891 12.7583 16.2602 12.7991C16.2458 12.8196 16.2304 12.8403 16.2158 12.8609C16.0399 13.2583 15.7814 13.6138 15.4576 13.9038C15.4295 13.9273 15.3962 13.9438 15.3604 13.9517C14.2604 15.2007 12.8379 16.207 11.0756 15.8649C8.81886 15.4269 8.26505 13.1021 8.3527 11.0977C8.36688 10.1068 8.61575 9.13329 9.07892 8.25714C9.54208 7.38099 10.2064 6.62711 11.0172 6.05734C11.104 5.97254 11.1802 5.88224 11.2729 5.80059C11.3062 5.76799 11.3476 5.74493 11.3929 5.73382C11.4382 5.72271 11.4856 5.72395 11.5303 5.73742C12.5095 5.23842 13.6024 5.00477 14.7 5.05977C15.7977 5.11477 16.8617 5.4565 17.7862 6.05088C18.2191 6.31336 18.6249 6.61818 18.9977 6.96083C18.108 5.18764 17.9775 3.10352 19.3863 1.43669C20.9138 -0.370628 23.9156 -0.589808 25.3645 1.45264ZM16.4297 36.7908C16.2248 36.4638 15.9142 36.2167 15.5495 36.0905C15.2376 36.5028 15.3766 36.7269 15.9664 36.7627C16.1197 36.7858 16.2748 36.7952 16.4297 36.7908ZM14.0974 48.3742C13.9048 48.4252 13.7299 48.5283 13.5921 48.6723C13.4542 48.8162 13.3588 48.9954 13.3162 49.1901C13.597 50.5723 15.0713 50.1942 15.6416 49.2651C15.6841 49.1959 15.717 49.1217 15.7533 49.0492C15.5618 48.8 15.3076 48.6063 15.0167 48.4877C14.7257 48.3691 14.4085 48.3299 14.0974 48.3742Z" fill="#C29C5B"/>
<path d="M13.7257 26.8297C13.7061 26.9873 13.6261 27.1312 13.5025 27.231C13.3788 27.3308 13.2213 27.3787 13.0631 27.3646C12.9049 27.3505 12.7583 27.2755 12.6543 27.1554C12.5503 27.0353 12.497 26.8796 12.5056 26.7209C12.5251 26.5633 12.6052 26.4194 12.7288 26.3196C12.8524 26.2198 13.0099 26.1719 13.1681 26.186C13.3264 26.2001 13.4729 26.2751 13.5769 26.3952C13.6809 26.5153 13.7343 26.671 13.7257 26.8297Z" fill="#C29C5B"/>
<path d="M17.3975 22.3974C17.3778 22.5564 17.2971 22.7014 17.1725 22.802C17.0479 22.9026 16.8891 22.9509 16.7295 22.9367C16.57 22.9225 16.4222 22.8469 16.3174 22.7258C16.2125 22.6048 16.1587 22.4477 16.1674 22.2878C16.1872 22.1289 16.2679 21.9838 16.3925 21.8832C16.5171 21.7826 16.6759 21.7343 16.8354 21.7485C16.9949 21.7628 17.1427 21.8384 17.2476 21.9594C17.3524 22.0805 17.4062 22.2375 17.3975 22.3974Z" fill="#C29C5B"/>
<path d="M19.4807 15.7422L19.4526 15.8884C19.433 16.0439 19.3538 16.1857 19.2318 16.284C19.1097 16.3823 18.9543 16.4294 18.7982 16.4155C18.6421 16.4016 18.4976 16.3277 18.3948 16.2094C18.2921 16.091 18.2393 15.9375 18.2474 15.781C18.2469 15.7313 18.2463 15.6817 18.2457 15.632C18.2361 14.831 19.6321 14.9539 19.4807 15.7422Z" fill="#C29C5B"/>
<path d="M18.6141 10.1062C18.6948 10.166 18.7589 10.2456 18.8 10.3373C18.8412 10.429 18.8582 10.5298 18.8492 10.6299C18.8403 10.73 18.8058 10.8262 18.7491 10.9092C18.6924 10.9922 18.6152 11.0592 18.5252 11.1038C18.4317 11.1507 18.3294 11.1775 18.2249 11.1824C18.1204 11.1874 18.016 11.1704 17.9185 11.1326C17.7971 11.0838 17.6947 10.9971 17.6264 10.8856C17.5581 10.774 17.5275 10.6434 17.5391 10.5131C17.5507 10.3828 17.6039 10.2597 17.6909 10.162C17.7779 10.0643 17.894 9.99717 18.0221 9.97054C18.1248 9.95083 18.2304 9.95271 18.3323 9.97606C18.4343 9.99941 18.5302 10.0437 18.6141 10.1062Z" fill="#C29C5B"/>
<path d="M14.0124 59.7776L14.039 59.7965C14.1008 59.8356 14.1542 59.8866 14.1962 59.9464C14.2382 60.0062 14.2679 60.0737 14.2837 60.1451C14.2995 60.2164 14.3011 60.2902 14.2883 60.3621C14.2755 60.4341 14.2486 60.5028 14.2092 60.5643C14.1941 60.6459 14.1585 60.7223 14.1057 60.7863C14.0529 60.8503 13.9848 60.8999 13.9076 60.9303L13.8771 60.9405C13.7572 60.9905 13.6249 61.0022 13.4982 60.9743C13.3714 60.9463 13.2563 60.8799 13.1687 60.7841C13.1029 60.7032 13.0561 60.6086 13.0318 60.5072C13.0076 60.4058 13.0064 60.3003 13.0284 60.1984C13.0504 60.0965 13.095 60.0009 13.159 59.9185C13.2229 59.8362 13.3046 59.7693 13.3979 59.7228C13.4959 59.6763 13.6046 59.6568 13.7126 59.6665C13.8207 59.6761 13.9242 59.7145 14.0124 59.7776Z" fill="#C29C5B"/>
<path d="M10.4677 54.9563C10.5585 54.9881 10.6457 55.0294 10.7277 55.0797C10.8068 55.1368 10.8696 55.2135 10.9101 55.3022C10.9506 55.3909 10.9674 55.4886 10.9587 55.5857C10.9501 55.6829 10.9163 55.7761 10.8607 55.8562C10.8052 55.9364 10.7298 56.0007 10.6418 56.0429C10.5522 56.0779 10.4591 56.1032 10.3641 56.1184C10.2724 56.135 10.1781 56.1303 10.0886 56.1046C9.99905 56.0788 9.91665 56.0328 9.84784 55.97C9.77902 55.9071 9.72565 55.8293 9.69186 55.7424C9.65808 55.6556 9.6448 55.5621 9.65308 55.4693C9.66135 55.3765 9.69094 55.2869 9.73955 55.2074C9.78816 55.1279 9.85448 55.0607 9.93332 55.0111C10.0122 54.9614 10.1014 54.9306 10.1941 54.9211C10.2868 54.9116 10.3804 54.9237 10.4677 54.9563Z" fill="#C29C5B"/>
<path d="M8.8675 49.4325C8.90246 49.6313 8.90782 49.8343 8.88343 50.0347C8.87233 50.1277 8.83458 50.2156 8.77473 50.2877C8.71488 50.3598 8.63548 50.413 8.54608 50.441C8.45667 50.4691 8.36108 50.4707 8.27079 50.4456C8.1805 50.4206 8.09936 50.37 8.03713 50.3C7.92236 50.1427 7.83287 49.9684 7.7719 49.7835C7.73748 49.709 7.7193 49.628 7.71853 49.5459C7.71777 49.4638 7.73444 49.3825 7.76747 49.3073C7.80049 49.2322 7.84913 49.1649 7.91011 49.11C7.9711 49.055 8.04306 49.0136 8.12124 48.9886C8.19942 48.9635 8.28201 48.9554 8.36358 48.9647C8.44514 48.9739 8.52381 49.0004 8.59436 49.0424C8.66491 49.0844 8.72576 49.1408 8.77285 49.2081C8.81993 49.2753 8.85219 49.3518 8.8675 49.4325Z" fill="#C29C5B"/>
<path d="M10.929 45.7526C11.0024 45.6863 11.0922 45.6409 11.1891 45.6209C11.286 45.6009 11.3865 45.6071 11.4802 45.6388C11.5739 45.6706 11.6575 45.7268 11.7222 45.8016C11.787 45.8765 11.8306 45.9672 11.8486 46.0645C11.8706 46.1909 11.8588 46.3209 11.8144 46.4412C11.7669 46.5597 11.6832 46.6602 11.5751 46.7282C11.4671 46.7962 11.3403 46.8282 11.2129 46.8198L11.1781 46.8198C10.6311 46.8184 10.5389 46.1691 10.8402 45.8405C10.8623 45.8127 10.8871 45.7872 10.9143 45.7643C10.9194 45.7605 10.9237 45.7563 10.929 45.7526Z" fill="#C29C5B"/>
</svg>
