<svg width="89" height="91" viewBox="0 0 89 91" fill="none" xmlns="http://www.w3.org/2000/svg">
<path d="M72.4373 5.81442C73.0183 6.19319 73.5919 6.586 74.1609 6.98717C74.1624 6.97532 74.1635 6.96501 74.1655 6.95179C74.1927 6.76266 74.2051 6.57169 74.2027 6.38062C74.1859 6.01966 74.1403 5.6606 74.0664 5.30689C74.0309 5.10085 74.3424 4.9914 74.4215 5.19311C74.5886 5.63798 74.6816 6.10724 74.6969 6.5822C74.7274 6.84474 74.729 7.10986 74.7015 7.37275C75.048 7.62133 75.3933 7.87189 75.7374 8.12446C75.7473 7.29847 75.8802 6.47856 76.1316 5.69169C76.1431 5.66346 76.1633 5.63966 76.1894 5.62379C76.2154 5.60791 76.2458 5.60081 76.2762 5.60351C76.3066 5.60622 76.3353 5.61859 76.3581 5.63881C76.3809 5.65904 76.3966 5.68604 76.403 5.71587C76.5045 6.6621 76.477 7.61773 76.3214 8.55657C76.5225 8.70572 76.7236 8.85492 76.9248 9.00414C77.0964 8.20675 77.3108 7.41918 77.5671 6.64484C77.5833 6.60336 77.6087 6.56608 77.6414 6.5358C77.6741 6.50551 77.7131 6.48299 77.7557 6.46994C77.7983 6.45688 77.8433 6.45363 77.8873 6.46041C77.9313 6.46719 77.9733 6.48383 78.0099 6.50909C78.6335 6.87105 79.2011 7.32175 79.6949 7.84704C79.7384 7.4268 79.7843 7.00675 79.8327 6.58694C79.6496 6.48899 79.4752 6.35584 79.3233 6.2669C78.7033 5.90365 78.0605 5.58747 77.4138 5.27513C77.0901 5.11882 77.2726 4.59729 77.6127 4.74329C78.3563 5.17134 79.1264 5.55185 79.9181 5.88251C79.9693 5.47791 80.0264 5.07495 80.0871 4.67289C79.9919 4.60807 79.9028 4.53816 79.8234 4.4837C79.4058 4.19696 78.9882 3.91021 78.5705 3.62346C78.2812 3.42472 78.5978 2.97864 78.8863 3.17917C79.1887 3.38941 79.4912 3.59969 79.7937 3.81001C79.8922 3.87857 80.031 3.9892 80.1774 4.08816C80.2771 3.4857 80.3909 2.88757 80.5241 2.29625C80.5319 2.235 80.5631 2.17914 80.6112 2.14042C80.6593 2.10171 80.7205 2.08315 80.782 2.08863C80.8435 2.09412 80.9005 2.12323 80.941 2.16985C80.9814 2.21646 81.0023 2.27695 80.9991 2.3386C80.9706 2.97105 80.9214 3.60428 80.8602 4.23773C81.02 4.15945 81.1997 4.025 81.322 3.96219C81.6129 3.8128 81.9008 3.66477 82.2034 3.5401C82.3663 3.4729 82.5299 3.69819 82.3757 3.81007C82.0317 4.05989 81.6654 4.27304 81.3018 4.49276C81.142 4.6069 80.9749 4.7104 80.8015 4.80261C80.7604 5.18462 80.7164 5.56666 80.6694 5.94875C81.441 5.8806 82.2405 5.45142 82.9945 5.31922C83.0362 5.31292 83.0788 5.32165 83.1146 5.34387C83.1504 5.36609 83.1771 5.40032 83.19 5.44045C83.2029 5.48059 83.201 5.524 83.1848 5.5629C83.1686 5.6018 83.1391 5.63367 83.1015 5.65277C82.5011 5.94167 81.8816 6.18895 81.2473 6.39288C81.0452 6.46464 80.8121 6.58582 80.5801 6.65663C80.5343 7.00571 80.4876 7.35475 80.4401 7.70375C81.1633 7.30602 81.9338 7.00124 82.7335 6.79666C82.933 6.73995 83.0655 6.93815 83.071 7.10478C83.1363 7.91431 83.1134 8.72854 83.0028 9.53313C83.2848 9.40181 83.5675 9.27262 83.8501 9.14321C83.8563 9.04543 83.8622 8.94998 83.8617 8.86051C83.8579 8.09112 83.8069 7.32486 83.7675 6.55696C83.7484 6.18435 84.3113 6.06229 84.3534 6.45024C84.441 7.25726 84.4298 8.06148 84.4539 8.86832C84.7555 8.73209 85.0585 8.60107 85.3608 8.46762C85.3511 8.31243 85.3604 8.15387 85.3591 8.01106C85.3548 7.49731 85.3473 6.982 85.3636 6.46855C85.3758 6.08148 85.9421 6.15058 85.9516 6.52099C85.9009 7.08489 85.8931 7.65183 85.9283 8.21691C86.5893 7.92969 87.2519 7.64834 87.9176 7.37926C87.9711 7.35631 88.0314 7.35504 88.0859 7.37571C88.1403 7.39638 88.1846 7.43738 88.2094 7.49007C88.2342 7.54276 88.2376 7.60302 88.2189 7.65816C88.2001 7.7133 88.1607 7.75901 88.1089 7.78565C87.4963 8.13277 86.878 8.47231 86.2539 8.80427C86.5341 8.97936 86.8244 9.13783 87.1233 9.27885C87.4345 9.45603 87.7487 9.62823 88.0617 9.80227C88.2012 9.87995 88.075 10.1029 87.9326 10.0454C87.4132 9.83581 86.8912 9.63255 86.372 9.42255C86.1271 9.34631 85.8922 9.24097 85.6723 9.10878C85.3065 9.30118 84.9419 9.49519 84.5735 9.68398C84.703 9.91769 84.9435 10.0193 85.278 10.236C85.7163 10.5128 86.1327 10.8229 86.5236 11.1635C86.6742 11.2975 86.5594 11.5935 86.3453 11.4995C85.8037 11.2509 85.2823 10.9604 84.7859 10.6306C84.4654 10.4836 84.1814 10.2674 83.9543 9.99769C83.7358 10.1083 83.5179 10.2195 83.2986 10.3291C83.9444 10.6894 84.5494 11.1184 85.103 11.6086C85.147 11.6412 85.1818 11.6845 85.2043 11.7344C85.2267 11.7843 85.2359 11.8391 85.231 11.8936C85.2262 11.9481 85.2074 12.0004 85.1765 12.0456C85.1456 12.0907 85.1036 12.1272 85.0546 12.1514C84.2999 12.5071 83.5477 12.8707 82.7876 13.2155C82.9842 13.35 83.1807 13.4846 83.3771 13.6194C84.2466 13.0262 85.2303 12.6211 86.2653 12.4299C86.3103 12.4231 86.3562 12.4325 86.3949 12.4565C86.4335 12.4804 86.4623 12.5174 86.4762 12.5607C86.4901 12.604 86.4881 12.6508 86.4706 12.6928C86.4531 12.7347 86.4212 12.7691 86.3806 12.7897C85.8379 13.0251 84.4986 13.4269 83.8982 13.9765C84.3333 14.2758 84.7662 14.5777 85.1967 14.8823C85.7601 14.5436 86.3755 14.3 87.0181 14.1613C87.0684 14.1536 87.1198 14.1641 87.1631 14.191C87.2064 14.2178 87.2387 14.2591 87.2542 14.3076C87.2698 14.3561 87.2675 14.4086 87.2479 14.4556C87.2282 14.5025 87.1925 14.541 87.1471 14.564C86.6489 14.7484 86.1679 14.9759 85.7094 15.2441C86.2254 15.6124 86.7382 15.9845 87.2426 16.3669C87.3926 16.4805 87.2653 16.7505 87.0831 16.6674C86.4607 16.3812 85.8534 16.0636 85.2632 15.7158C85.1239 16.2179 85.0633 16.7387 85.0839 17.2594C85.0577 17.6591 84.4729 17.5929 84.4732 17.2049C84.4298 16.5857 84.5076 15.9638 84.7024 15.3744C84.33 15.1439 83.9605 14.9077 83.5963 14.6618C83.611 14.9926 83.7262 15.416 83.7344 15.6965C83.7498 16.2265 83.723 16.7569 83.6543 17.2826C83.6445 17.3626 83.604 17.4357 83.5414 17.4863C83.4787 17.537 83.3988 17.5614 83.3185 17.5542C83.2382 17.5471 83.1639 17.509 83.1112 17.448C83.0585 17.387 83.0315 17.308 83.0361 17.2275C83.1242 16.2216 83.0925 15.2089 82.9416 14.2105C82.7815 14.0983 82.622 13.9854 82.4629 13.8718C82.4867 14.2663 82.4759 14.6622 82.4305 15.0549C82.4061 15.3882 82.4784 16.1585 82.1544 16.3779C81.8268 16.5997 81.4078 16.1884 81.1546 16.0273C80.6396 15.6996 80.1169 15.3801 79.6106 15.0388C79.5842 15.3335 79.5575 15.6282 79.5305 15.9228C79.5369 15.9248 79.5436 15.9252 79.5498 15.9272C80.2524 16.2334 80.922 16.6102 81.5483 17.0519C82.0122 17.2564 82.4116 17.5833 82.7039 17.9975C82.7929 18.1421 82.5778 18.3149 82.4511 18.2089C81.6803 17.6193 80.8223 17.1536 79.9079 16.8287C79.7612 16.7792 79.6094 16.7467 79.4553 16.7317C79.4286 17.0162 79.3984 17.3003 79.3703 17.5847C79.5023 17.6896 79.6221 17.8186 79.7362 17.911C80.1352 18.2347 80.5477 18.5418 80.9464 18.8661C80.9779 18.8902 80.9988 18.9255 81.0047 18.9647C81.0106 19.0038 81.0011 19.0437 80.9782 19.076C80.9552 19.1083 80.9207 19.1304 80.8817 19.1377C80.8428 19.145 80.8026 19.1369 80.7695 19.1151C80.4788 18.9336 80.1904 18.7486 79.9007 18.5655C79.7635 18.4787 79.5269 18.2851 79.3125 18.1653C79.2376 18.8869 79.1579 19.6076 79.0638 20.326C79.0542 20.4023 79.0155 20.4719 78.9556 20.5202C78.8958 20.5684 78.8196 20.5916 78.743 20.5848C78.6665 20.5779 78.5955 20.5417 78.5452 20.4836C78.4949 20.4255 78.469 20.3501 78.4731 20.2734C78.5031 19.5927 78.5507 18.9115 78.6056 18.2303C78.2227 18.4719 77.7975 18.9116 77.5204 19.1144C77.1938 19.3535 76.7894 18.8796 77.1141 18.6286C77.5114 18.3216 77.9138 18.0206 78.3211 17.7256C78.4321 17.6364 78.5492 17.555 78.6713 17.4818C78.6925 17.2471 78.7102 17.0123 78.7331 16.7776C77.8606 17.0707 77.0318 17.4805 76.2692 17.9959C75.9087 18.191 75.6453 17.6187 75.9994 17.4229C76.7229 17.0228 77.8445 16.0986 78.8209 15.9066C78.8537 15.5947 78.8865 15.2827 78.9213 14.9709C78.2563 15.387 77.574 15.7747 76.8875 16.154C76.8467 16.1726 76.8022 16.1818 76.7573 16.1807C76.7124 16.1797 76.6684 16.1684 76.6285 16.1479C76.5886 16.1274 76.5538 16.0981 76.5269 16.0622C76.5 16.0263 76.4816 15.9847 76.473 15.9406C76.2822 15.2121 76.1912 14.461 76.2023 13.7079C76.0719 13.7684 75.9416 13.8289 75.8115 13.8893C75.8231 14.1867 75.8036 14.4845 75.7534 14.7779C75.6941 15.5227 75.6191 16.2669 75.5099 17.0061C75.504 17.0524 75.4804 17.0947 75.4441 17.124C75.4077 17.1533 75.3614 17.1673 75.3148 17.1632C75.2683 17.159 75.2252 17.137 75.1946 17.1017C75.1639 17.0665 75.1482 17.0207 75.1506 16.9741C75.1296 16.211 75.3646 15.0371 75.1191 14.2105C74.8202 14.3491 74.524 14.4883 74.2256 14.627C74.2266 14.6375 74.2271 14.6482 74.2269 14.6588C74.1761 15.2019 74.0917 15.7413 73.974 16.274C73.9684 16.3184 73.9458 16.3589 73.911 16.387C73.8761 16.4151 73.8317 16.4286 73.7871 16.4246C73.7425 16.4206 73.7012 16.3995 73.6719 16.3657C73.6425 16.3319 73.6274 16.288 73.6298 16.2433C73.6612 15.7908 73.6746 15.3356 73.6797 14.8814C73.149 15.1285 72.6161 15.375 72.0887 15.623C72.0135 15.6553 71.9287 15.6571 71.8521 15.6281C71.7756 15.5991 71.7134 15.5415 71.6785 15.4674C71.6436 15.3934 71.6389 15.3087 71.6653 15.2312C71.6917 15.1538 71.7471 15.0896 71.8199 15.0522C72.2093 14.8591 72.6004 14.6616 72.9905 14.4667C72.6321 14.3028 72.2915 14.1027 71.9739 13.8694C71.9255 13.8326 71.8917 13.7799 71.8786 13.7205C71.8655 13.6611 71.874 13.599 71.9025 13.5453C71.931 13.4916 71.9776 13.4498 72.0341 13.4274C72.0906 13.405 72.1533 13.4034 72.2109 13.4229C72.7113 13.6114 73.1902 13.8524 73.6397 14.142C74.011 13.9559 74.3813 13.7719 74.7529 13.5851C74.0815 12.8629 72.9737 12.3959 72.2409 11.7349C72.1859 11.6927 72.1495 11.6309 72.1392 11.5624C72.1289 11.4938 72.1456 11.424 72.1857 11.3675C72.2258 11.311 72.2863 11.2723 72.3544 11.2595C72.4225 11.2467 72.4929 11.2609 72.5508 11.2989C73.2416 11.732 73.9092 12.2009 74.5509 12.7037C74.7742 12.8666 75.1219 13.0482 75.3945 13.2626C75.5817 13.1684 75.7687 13.0744 75.9556 12.9805C75.5264 12.3989 75.0049 11.8915 74.4118 11.4783C74.2078 11.2994 74.0001 11.1164 74.1086 10.8238C74.2552 10.428 74.964 10.2407 75.2998 10.072C75.6617 9.89032 76.0278 9.68043 76.4085 9.52334C76.1691 9.35517 75.9303 9.18627 75.6919 9.01664C74.7629 9.20633 73.8539 9.48343 72.9771 9.84422C72.9046 9.87527 72.8229 9.87697 72.7492 9.84898C72.6755 9.82098 72.6155 9.76548 72.5819 9.69414C72.5483 9.62281 72.5438 9.54123 72.5691 9.46658C72.5945 9.39193 72.6479 9.33003 72.718 9.29395C73.4306 8.92934 74.1897 8.66364 74.9742 8.50419C74.6866 8.29774 74.403 8.08684 74.1178 7.87761C73.8869 7.90593 73.6326 7.88786 73.4522 7.90095C72.9715 7.95937 72.4873 7.98426 72.0031 7.97544C71.9345 7.96725 71.8711 7.935 71.8241 7.88442C71.7771 7.83385 71.7496 7.76823 71.7464 7.69926C71.7433 7.6303 71.7647 7.56245 71.8069 7.50781C71.8491 7.45317 71.9093 7.41528 71.9769 7.40088C72.3313 7.3456 72.6892 7.31509 73.0479 7.30953C73.1307 7.30467 73.2386 7.3084 73.3534 7.31213C72.9226 6.98764 72.4945 6.66036 72.0747 6.32444C72.0102 6.27515 71.9674 6.20275 71.9553 6.12252C71.9432 6.04228 71.9627 5.96046 72.0097 5.89432C72.0567 5.82818 72.1276 5.78289 72.2073 5.76799C72.2871 5.75308 72.3695 5.76973 72.4373 5.81442ZM80.5561 11.6713C81.0955 12.0522 81.6383 12.4289 82.1844 12.8017C82.8884 12.4524 83.6043 12.1259 84.3182 11.7964C83.7867 11.4293 83.2871 11.0178 82.825 10.5664C82.0716 10.9394 81.3153 11.3077 80.5561 11.6713ZM80.0117 10.9594C80.8441 10.5523 81.6792 10.1523 82.517 9.75953C82.4701 8.99674 82.4661 8.23191 82.5052 7.46868C81.7644 7.75936 81.0403 8.09073 80.3361 8.46129C80.2214 9.29539 80.1084 10.1285 80.0117 10.9594ZM79.6688 14.3942C79.7188 14.3974 79.7674 14.4122 79.8108 14.4374C80.1882 14.6581 80.5535 14.901 80.9223 15.1357C81.1211 15.2622 81.3198 15.3887 81.5186 15.5151C81.562 15.5427 81.6779 15.6361 81.7765 15.71C81.9232 15.0095 81.7592 14.2104 82.0018 13.5374C81.2951 13.0239 80.5958 12.5029 79.8981 11.9944C79.8154 12.7932 79.7412 13.5935 79.6688 14.3942ZM79.2286 12.298C78.3695 12.7024 77.5089 13.1008 76.6488 13.4999C76.7041 13.5397 76.7421 13.599 76.7551 13.6658C76.8756 14.2445 76.9091 14.8447 76.9902 15.4354C77.6446 15.0898 78.3042 14.754 78.9797 14.4511C79.0615 13.7325 79.1459 13.0146 79.2286 12.298ZM77.4119 9.36755C78.0712 9.85962 78.7299 10.3512 79.3916 10.8343C79.479 10.0164 79.5587 9.19092 79.6421 8.36411C79.1135 7.96259 78.584 7.56451 78.0252 7.20719C77.8858 7.94419 77.6805 8.6672 77.4119 9.36755ZM75.8912 10.437C75.6687 10.5582 75.4448 10.677 75.2212 10.7963C74.9291 10.952 74.8669 10.8947 74.9851 11.1388C75.0886 11.3524 75.5371 11.5851 75.7203 11.7401C75.8447 11.8454 75.9735 11.9469 76.0883 12.0628C76.2775 12.24 76.4192 12.462 76.5002 12.7082C77.3625 12.275 78.2244 11.8406 79.0908 11.4125C78.3613 10.8914 77.6242 10.3759 76.8871 9.85921C76.5679 10.073 76.2353 10.266 75.8912 10.437Z" fill="#C29C5B"/>
<path d="M2.02404 9.23437C3.91373 8.14269 5.94186 8.63979 7.52976 9.82912C7.25847 9.40161 7.03024 8.94826 6.84842 8.47571C6.42694 7.46072 6.27884 6.35298 6.41888 5.26291C6.55891 4.17285 6.98219 3.13852 7.64654 2.26302C7.64117 2.21671 7.64832 2.16981 7.66726 2.12721C7.6862 2.08461 7.71623 2.04788 7.75421 2.02084C7.85098 1.94405 7.95332 1.88503 8.05216 1.81469C8.75637 1.11736 9.61585 0.596902 10.5601 0.296007C11.5044 -0.00488853 12.5065 -0.0776463 13.4844 0.0836868C15.4727 0.351999 17.6628 1.30828 17.6947 3.60696C17.7197 5.4019 16.4777 6.62401 15.0537 7.48577C15.0396 7.51959 15.0176 7.5495 14.9894 7.57294C14.6468 7.84038 14.2512 8.03188 13.8288 8.13474C13.806 8.14541 13.783 8.15691 13.7602 8.16745C13.7149 8.18871 13.6641 8.19568 13.6147 8.18747C13.0999 8.30796 12.5599 8.25722 12.0765 8.04295C12.0508 8.02905 12.0293 8.00847 12.0143 7.98338C11.9993 7.95829 11.9913 7.92962 11.9912 7.90038C11.3968 7.74991 10.8736 7.39688 10.5115 6.90209C8.92654 4.71227 11.9976 2.35878 13.8025 4.32242C14.0463 4.58759 13.6337 4.90325 13.3845 4.67203C12.3434 3.70627 10.5091 4.57544 11.0766 6.02284C11.2144 6.31333 11.4199 6.56656 11.6757 6.76134C11.9315 6.95612 12.2302 7.0868 12.5469 7.14238C13.2129 7.21297 13.8835 7.06116 14.4541 6.71064C15.9852 5.17927 16.8674 2.53305 14.2957 1.51544C11.899 0.737759 9.27739 1.63335 8.30185 4.12023C7.52085 6.1113 7.98674 8.18363 8.86693 10.0407C9.43164 10.7015 10.0994 11.2667 10.8444 11.7146C16.441 15.0512 23.5541 12.9884 28.2783 9.18092C31.2957 6.74903 34.5239 3.44512 38.7434 3.66146C41.2493 3.78999 43.4054 5.36947 43.9093 7.62809C44.4827 6.2734 45.541 5.18145 46.877 4.5659C49.7331 3.16727 53.1076 3.9651 55.7064 5.54737C58.6609 7.34622 60.9478 11.1729 64.0847 12.761C64.1064 12.7556 64.1287 12.7527 64.1511 12.7522C65.3852 12.8124 66.6636 12.9436 67.5686 11.9074C68.3726 10.9869 68.1386 9.4286 67.0099 9.04397C66.6189 9.05337 66.2357 9.15497 65.8914 9.3405C65.5471 9.52604 65.2515 9.79027 65.0287 10.1117C64.9808 10.1749 64.9119 10.219 64.8344 10.2362C64.757 10.2533 64.6759 10.2422 64.6059 10.205C64.5358 10.1679 64.4812 10.1069 64.4519 10.0332C64.4227 9.95945 64.4206 9.8777 64.4461 9.80258C65.3241 7.11856 69.0159 7.36115 69.8747 9.92784C70.9063 13.0111 67.1995 14.5855 64.7515 13.9339C64.6866 13.9189 64.6302 13.8791 64.5944 13.8229C61.4889 13.0066 59.4313 9.75813 56.9761 7.74323C54.7047 5.87908 51.6986 4.31945 48.673 4.96001C48.6405 5.00132 48.5993 5.03498 48.5524 5.05857C44.7665 6.93445 44.0116 11.5365 47.3102 13.8804C47.5696 14.006 47.8376 14.113 48.1123 14.2006C48.3502 14.2214 48.5895 14.2231 48.8277 14.2057C48.5709 13.8805 48.4243 13.4821 48.4089 13.068C48.3935 12.654 48.5102 12.2458 48.7421 11.9025C48.8901 11.7241 49.077 11.5819 49.2884 11.4868C49.4998 11.3917 49.7302 11.3462 49.9618 11.3538C49.9725 11.3161 49.9947 11.2826 50.0254 11.2582C50.0561 11.2338 50.0937 11.2197 50.1329 11.2179C51.5475 11.1445 51.9444 13.0305 51.1963 13.9726C50.9661 14.2611 50.6749 14.4951 50.3436 14.6578C51.4653 15.3067 52.7794 15.5409 54.0563 15.3195C54.1467 15.3065 54.2386 15.329 54.3127 15.3824C54.3868 15.4357 54.4374 15.5157 54.4537 15.6055C54.4701 15.6954 54.451 15.788 54.4004 15.8641C54.3499 15.9401 54.2718 15.9936 54.1827 16.0132C53.3796 16.2481 52.5295 16.2711 51.7149 16.08C50.9003 15.8889 50.149 15.4903 49.5341 14.9229C49.2184 14.974 48.8975 14.986 48.5788 14.9586C48.5453 15.0022 48.499 15.0342 48.4464 15.0503C48.3939 15.0663 48.3376 15.0657 48.2854 15.0483C48.0728 14.9861 47.8639 14.9116 47.6599 14.8253C46.7129 14.5955 45.8447 14.1163 45.1456 13.4373C44.4465 12.7583 43.9422 11.9044 43.6849 10.9645C43.3336 11.7284 42.7938 12.3905 42.1163 12.8886C41.4389 13.3866 40.6459 13.7043 39.812 13.8118C39.1332 13.8892 38.4457 13.7994 37.8095 13.5504C37.5968 13.9866 37.2913 14.3711 36.9144 14.6768C36.5375 14.9826 36.0984 15.2023 35.6276 15.3205C35.5533 15.3317 35.4774 15.3161 35.4135 15.2765C35.3496 15.2368 35.302 15.1757 35.279 15.1041C35.2561 15.0326 35.2594 14.9551 35.2883 14.8858C35.3172 14.8164 35.3699 14.7596 35.4369 14.7255C36.0471 14.4717 36.5754 14.0546 36.9638 13.5199C37.0294 13.4161 37.0878 13.3079 37.1388 13.1962C36.8708 13.0304 36.647 12.8021 36.4868 12.5307C36.3265 12.2594 36.2346 11.9532 36.2188 11.6385C36.1389 11.5114 36.1093 11.359 36.1359 11.2113C36.1624 11.0635 36.2433 10.9311 36.3625 10.8399C36.3862 10.8031 36.4221 10.7759 36.4639 10.7629C36.5881 10.6777 36.73 10.6215 36.8789 10.5987C37.0278 10.5758 37.1799 10.5868 37.324 10.6308C37.4681 10.6748 37.6004 10.7508 37.711 10.853C37.8217 10.9552 37.9079 11.0811 37.9633 11.2212C38.218 11.7741 38.2476 12.4045 38.0459 12.9789C38.3102 13.0666 38.5849 13.1195 38.8629 13.1363C38.9146 13.0583 38.9934 13.0024 39.0841 12.9794C40.0138 12.7341 40.8178 12.1492 41.3376 11.3402C41.8573 10.5312 42.0549 9.55673 41.8915 8.60915C41.5549 6.87033 40.1193 5.72988 38.6159 4.99226C38.5647 4.96557 38.5218 4.9253 38.4919 4.87587C37.2518 4.87374 36.0263 5.14435 34.9024 5.66849C33.0924 6.5331 31.61 7.88149 30.0857 9.15366C27.5249 11.2908 24.8775 13.0374 21.5839 13.8181C17.637 14.7536 12.2103 14.4056 8.99243 11.5601C8.97984 11.5736 8.96468 11.5844 8.94784 11.5919C8.931 11.5995 8.91282 11.6035 8.89438 11.6039C8.87594 11.6043 8.85762 11.601 8.84048 11.5942C8.82334 11.5874 8.80773 11.5772 8.79458 11.5643C7.63197 10.5089 5.94807 9.46824 4.35407 9.40193C4.32807 9.43216 4.29817 9.45878 4.26513 9.4811C3.11597 10.2031 2.04189 11.0791 1.89363 12.5361C1.8306 13.1971 2.0008 13.8593 2.3747 14.408C2.74861 14.9567 3.30267 15.3572 3.94089 15.5403C4.21674 15.5782 4.49634 15.5801 4.77267 15.5459C5.16154 15.5089 5.53339 15.3684 5.8496 15.139C6.16581 14.9097 6.41483 14.5998 6.5708 14.2417C6.75384 12.6859 6.14608 12.0858 4.74753 12.4415C4.66589 12.4765 4.57383 12.4785 4.49076 12.447C4.40769 12.4155 4.34011 12.3529 4.30226 12.2725C4.26441 12.1921 4.25926 12.1002 4.28788 12.0161C4.31651 11.932 4.37668 11.8623 4.4557 11.8217C6.46787 10.7534 8.12723 13.1584 7.08794 14.9493C5.83271 17.1123 2.53585 16.7043 0.98221 15.1211C-0.771728 13.3338 -0.024985 10.4181 2.02404 9.23437ZM37.3979 12.1171C37.4671 11.53 37.2712 11.3536 36.81 11.5878C36.8697 11.9691 37.058 12.3186 37.3436 12.5781C37.3754 12.4264 37.3935 12.2721 37.3979 12.1171ZM49.5283 14.0807C49.6061 14.0578 49.685 14.0385 49.7606 14.009C50.776 13.612 51.4089 12.2278 50.0981 11.707C49.8989 11.7144 49.7057 11.7766 49.5396 11.8868C49.3736 11.997 49.2411 12.1509 49.1569 12.3315C49.0583 12.6298 49.0407 12.949 49.1059 13.2563C49.1712 13.5637 49.317 13.8482 49.5283 14.0807Z" fill="#C29C5B"/>
<path d="M28.0217 8.15535C28.1803 8.16397 28.3361 8.11065 28.4562 8.00664C28.5763 7.90264 28.6513 7.75606 28.6654 7.59783C28.6795 7.43959 28.6316 7.28207 28.5318 7.15847C28.432 7.03486 28.2881 6.95483 28.1304 6.93526C27.9718 6.92664 27.816 6.97995 27.696 7.08396C27.5759 7.18797 27.5009 7.33455 27.4868 7.49278C27.4727 7.65101 27.5206 7.80855 27.6204 7.93216C27.7202 8.05576 27.8641 8.13578 28.0217 8.15535Z" fill="#C29C5B"/>
<path d="M23.0027 10.9854C23.1626 10.9941 23.3197 10.9404 23.4408 10.8355C23.5619 10.7307 23.6375 10.5829 23.6517 10.4234C23.666 10.2638 23.6177 10.105 23.5171 9.98036C23.4164 9.85573 23.2714 9.77503 23.1124 9.75531C22.9525 9.7466 22.7954 9.80035 22.6743 9.9052C22.5532 10.0101 22.4776 10.1578 22.4634 10.3174C22.4492 10.4769 22.4975 10.6358 22.5981 10.7604C22.6987 10.885 22.8438 10.9657 23.0027 10.9854Z" fill="#C29C5B"/>
<path d="M16.0911 11.8574L16.24 11.8555C16.3965 11.8637 16.5501 11.8109 16.6684 11.7082C16.7868 11.6054 16.8607 11.4608 16.8746 11.3047C16.8885 11.1486 16.8414 10.9932 16.7431 10.8712C16.6447 10.7492 16.5029 10.67 16.3475 10.6504L16.2012 10.6223C15.4145 10.4711 15.2885 11.867 16.0911 11.8574Z" fill="#C29C5B"/>
<path d="M10.6963 10.0076C10.7409 10.0976 10.8079 10.1747 10.8909 10.2315C10.9739 10.2883 11.07 10.3227 11.1702 10.3317C11.2703 10.3406 11.371 10.3237 11.4628 10.2825C11.5545 10.2413 11.6341 10.1773 11.6939 10.0965C11.7566 10.0127 11.801 9.9168 11.8244 9.81483C11.8478 9.71287 11.8495 9.60715 11.8295 9.50446C11.8029 9.37638 11.7358 9.26026 11.6381 9.17328C11.5404 9.0863 11.4173 9.03308 11.2869 9.02147C11.1566 9.00985 11.0261 9.04047 10.9145 9.10879C10.803 9.17712 10.7163 9.27953 10.6675 9.40088C10.6299 9.49847 10.6131 9.60279 10.618 9.70724C10.623 9.81168 10.6496 9.91396 10.6963 10.0076Z" fill="#C29C5B"/>
<path d="M60.3947 14.2696L60.4086 14.2992C60.4362 14.3669 60.4769 14.4284 60.5283 14.4803C60.5798 14.5323 60.6409 14.5735 60.7084 14.6017C60.7758 14.6298 60.8481 14.6444 60.9212 14.6445C60.9943 14.6447 61.0667 14.6303 61.1342 14.6024C61.2172 14.602 61.2987 14.5805 61.371 14.5399C61.4434 14.4993 61.5042 14.4409 61.5478 14.3703L61.5632 14.3421C61.6336 14.233 61.6686 14.1049 61.6635 13.9751C61.6584 13.8454 61.6133 13.7204 61.5346 13.6172C61.4666 13.5381 61.3817 13.4754 61.2863 13.4336C61.1908 13.3917 61.0871 13.3719 60.983 13.3755C60.8788 13.3792 60.7767 13.4062 60.6844 13.4546C60.5921 13.5029 60.5118 13.5715 60.4495 13.6551C60.3864 13.7433 60.348 13.8468 60.3383 13.9549C60.3287 14.0629 60.3482 14.1716 60.3947 14.2696Z" fill="#C29C5B"/>
<path d="M56.2754 9.92267C56.2906 10.0177 56.3159 10.1108 56.3509 10.2004C56.3931 10.2883 56.4574 10.3638 56.5376 10.4193C56.6177 10.4749 56.7109 10.5087 56.8081 10.5173C56.9052 10.526 57.0029 10.5092 57.0916 10.4687C57.1804 10.4282 57.257 10.3653 57.3141 10.2863C57.3643 10.2042 57.4057 10.1171 57.4375 10.0262C57.4701 9.93897 57.4821 9.84535 57.4726 9.75266C57.4631 9.65997 57.4324 9.57072 57.3827 9.49188C57.333 9.41304 57.2659 9.34674 57.1864 9.29813C57.1069 9.24952 57.0172 9.21992 56.9244 9.21165C56.8316 9.20338 56.7382 9.21666 56.6513 9.25044C56.5645 9.28422 56.4866 9.3376 56.4238 9.40641C56.361 9.47523 56.3149 9.55763 56.2892 9.64718C56.2634 9.73673 56.2587 9.831 56.2754 9.92267Z" fill="#C29C5B"/>
<path d="M51.1225 7.36804C51.312 7.43764 51.5108 7.47881 51.7124 7.49023C52.0962 7.49177 52.4296 7.03276 52.1232 6.70424C51.9887 6.56345 51.833 6.44456 51.6618 6.35185C51.5945 6.30479 51.518 6.27256 51.4374 6.25729C51.3567 6.24202 51.2737 6.24406 51.1939 6.26327C51.1141 6.28249 51.0393 6.31844 50.9744 6.36874C50.9095 6.41904 50.8561 6.48254 50.8176 6.55505C50.7791 6.62756 50.7565 6.70743 50.7512 6.78934C50.7459 6.87126 50.7581 6.95336 50.7869 7.03022C50.8157 7.10708 50.8605 7.17696 50.9184 7.2352C50.9762 7.29343 51.0458 7.33871 51.1225 7.36804Z" fill="#C29C5B"/>
<path d="M47.1375 8.75136C47.0593 8.81195 46.9987 8.89231 46.9618 8.98415C46.925 9.07599 46.9133 9.17599 46.9281 9.27384C46.9428 9.37168 46.9833 9.46384 47.0455 9.5408C47.1077 9.61777 47.1892 9.67675 47.2818 9.71168C47.4023 9.75569 47.5323 9.76708 47.6586 9.74468C47.7837 9.71889 47.8973 9.65424 47.9834 9.55994C48.0694 9.46564 48.1234 9.34653 48.1377 9.21968L48.1438 9.18537C48.2392 8.64673 47.6164 8.44116 47.2397 8.67961C47.2084 8.69639 47.1789 8.71629 47.1516 8.73899C47.1469 8.74332 47.142 8.74686 47.1375 8.75136Z" fill="#C29C5B"/>
<path d="M62.8621 89.1099C61.5787 87.3008 61.7603 83.9837 64.1112 83.1309C66.0577 82.4247 68.1314 84.4833 66.7239 86.2748C66.67 86.3454 66.5907 86.3922 66.5029 86.4055C66.415 86.4188 66.3255 86.3974 66.2531 86.346C66.1807 86.2945 66.1311 86.2169 66.1147 86.1296C66.0984 86.0423 66.1166 85.952 66.1655 85.8779C66.7629 84.5644 66.2798 83.8601 64.7162 83.765C64.3361 83.8552 63.9872 84.0455 63.7055 84.3161C63.4238 84.5868 63.2198 84.9279 63.1145 85.3041C63.032 85.57 62.9844 85.8456 62.9729 86.1238C63.0402 86.7843 63.3365 87.4005 63.8104 87.8655C64.2842 88.3306 64.9059 88.6152 65.5676 88.6701C67.0279 88.7819 68.0799 87.8797 68.9939 86.8764C69.0217 86.8478 69.0532 86.8231 69.0876 86.8028C69.3042 85.2222 68.5779 83.3808 67.7448 82.0499C67.7344 82.0346 67.7271 82.0175 67.7234 81.9994C67.7198 81.9813 67.7198 81.9627 67.7234 81.9446C67.7271 81.9265 67.7343 81.9094 67.7447 81.8941C67.7551 81.8789 67.7684 81.8659 67.7839 81.8559C65.5525 78.1854 66.1699 72.7828 67.7887 69.0636C69.1397 65.96 71.3271 63.6633 73.8835 61.5209C75.4052 60.2456 76.9945 59.0251 78.1657 57.3966C78.8804 56.3831 79.3634 55.2249 79.5807 54.0039C79.5373 53.9657 79.5053 53.9164 79.4881 53.8613C79.028 52.2511 78.1595 50.6363 76.5077 49.9976C75.6039 49.6691 74.6099 49.6913 73.7217 50.0597C72.8335 50.4281 72.1156 51.116 71.7096 51.9877C71.671 52.0729 71.602 52.1406 71.5162 52.1777C71.4835 52.4542 71.487 52.7339 71.5265 53.0096C72.1276 52.9126 72.7428 53.0533 73.242 53.4018C73.3701 53.4811 73.4787 53.5882 73.5597 53.7152C73.6407 53.8422 73.6921 53.9859 73.7099 54.1355C73.7278 54.285 73.7117 54.4367 73.6628 54.5792C73.614 54.7217 73.5337 54.8514 73.4278 54.9586C73.4077 54.9974 73.3745 55.0279 73.3342 55.0447C73.2233 55.146 73.0786 55.2021 72.9285 55.2022C72.7783 55.2022 72.6336 55.1461 72.5227 55.0449C72.2157 54.9738 71.9306 54.8291 71.6919 54.6234C71.4532 54.4177 71.268 54.157 71.1523 53.8639C71.0333 53.8944 70.9165 53.9328 70.8026 53.9789C70.2078 54.2666 69.7037 54.7128 69.3461 55.2684C69.3007 55.3284 69.2354 55.3702 69.162 55.3864C69.0886 55.4026 69.0118 55.3922 68.9454 55.3569C68.879 55.3217 68.8273 55.2639 68.7996 55.1941C68.7719 55.1242 68.77 55.0467 68.7942 54.9755C68.9938 54.5331 69.2876 54.1397 69.6553 53.8228C70.0229 53.506 70.4553 53.2733 70.9223 53.1412C70.7897 52.471 70.823 51.7785 71.0192 51.124C71.2725 50.3222 71.7254 49.598 72.3355 49.0193C72.9455 48.4406 73.6927 48.0265 74.5067 47.8158C73.6271 47.3963 72.8759 46.7489 72.3313 45.9407C71.7866 45.1326 71.4685 44.1933 71.4099 43.2205C71.361 43.0044 71.3246 42.7857 71.301 42.5655C71.2931 42.5111 71.3024 42.4556 71.3276 42.4067C71.3527 42.3577 71.3924 42.3179 71.4412 42.2925C71.4706 41.9741 71.5391 41.6604 71.6453 41.3587C71.1956 40.6531 70.9362 39.8432 70.8922 39.0076C70.8483 38.1721 71.0213 37.3394 71.3944 36.5905C71.4296 36.5063 71.496 36.4389 71.5798 36.4026C71.6636 36.3663 71.7582 36.3639 71.8437 36.3959C71.9292 36.4279 71.999 36.4918 72.0384 36.5741C72.0778 36.6565 72.0837 36.7509 72.0549 36.8376C71.6111 38.0552 71.6092 39.39 72.0494 40.6088C72.2681 40.3115 72.5499 40.0663 72.8746 39.8907C73.9342 39.3211 75.7203 40.0454 75.3977 41.4246C75.389 41.4629 75.3685 41.4974 75.3391 41.5233C75.3097 41.5492 75.2728 41.5652 75.2338 41.569C75.2003 41.7983 75.1147 42.017 74.9838 42.2083C74.8528 42.3995 74.6798 42.5583 74.478 42.6725C74.0991 42.84 73.6767 42.8826 73.2719 42.7942C72.8671 42.7059 72.5009 42.4911 72.2263 42.1809C72.167 42.4122 72.1263 42.648 72.1047 42.8858C72.1424 43.1716 72.2003 43.4544 72.278 43.732C74.0014 47.393 78.6645 47.464 81.1805 44.0698C81.2119 44.0277 81.2524 43.9931 81.2988 43.9685C82.4644 41.1039 81.4611 37.8693 80.0282 35.304C78.4793 32.5311 75.646 29.9313 75.3919 26.7304C75.343 26.6853 75.3137 26.6227 75.3104 26.5562C75.1022 24.0315 77.3075 20.6616 80.1596 22.2223C82.5339 23.5216 82.1196 27.1981 79.3227 27.5875C79.2442 27.5994 79.1641 27.5829 79.0967 27.541C79.0293 27.4992 78.979 27.4347 78.9548 27.3591C78.9306 27.2836 78.934 27.2019 78.9646 27.1286C78.9951 27.0554 79.0507 26.9954 79.1214 26.9595C79.4772 26.797 79.7895 26.5528 80.0331 26.2467C80.2766 25.9407 80.4444 25.5815 80.5228 25.1983C80.3438 24.0194 78.8515 23.5134 77.8033 24.1419C76.6233 24.8493 76.5263 26.1309 76.3673 27.3561C76.3629 27.3781 76.356 27.3995 76.3469 27.4199C77.3551 30.7883 80.717 33.716 81.9648 36.9421C83.0624 39.7798 83.2508 43.2422 81.369 45.8058C80.5268 47.012 79.2649 47.8604 77.8301 48.1851C79.964 49.0806 81.1372 51.4821 80.8205 53.9712C80.287 58.1625 76.4642 60.7553 73.537 63.2949C68.9538 67.2712 65.6653 73.9072 67.9594 80.0058C68.2684 80.8183 68.7067 81.5755 69.2572 82.2482C70.9292 83.4429 72.8865 84.2681 74.9843 83.8516C77.6045 83.3313 78.9497 80.9094 78.6082 78.413C78.0616 75.7018 75.301 76.1021 73.5229 77.3381C73.077 77.8378 72.809 78.471 72.7607 79.1389C72.7594 79.4604 72.8351 79.7776 72.9816 80.0638C73.1281 80.35 73.341 80.597 73.6025 80.784C74.9267 81.5986 76.1066 79.9469 75.3402 78.7515C75.1567 78.4653 75.5404 78.1151 75.7583 78.4019C77.3717 80.5257 74.5121 83.132 72.6371 81.1847C72.2142 80.7408 71.9593 80.1633 71.9163 79.5517C71.8876 79.5465 71.8607 79.5336 71.8387 79.5143C71.8166 79.4951 71.8002 79.4703 71.791 79.4426C71.6657 78.9289 71.7113 78.3884 71.9209 77.903C71.9216 77.853 71.9374 77.8042 71.9664 77.7634C71.9808 77.7429 71.9962 77.7222 72.0107 77.7016C72.1867 77.3042 72.4451 76.9487 72.7689 76.6587C72.797 76.6352 72.8304 76.6187 72.8661 76.6108C73.9662 75.3618 75.3887 74.3555 77.151 74.6976C79.4077 75.1356 79.9615 77.4604 79.8739 79.4648C79.8597 80.4557 79.6108 81.4292 79.1476 82.3054C78.6845 83.1815 78.0202 83.9354 77.2093 84.5052C77.1226 84.59 77.0464 84.6803 76.9537 84.7619C76.9204 84.7945 76.8789 84.8176 76.8336 84.8287C76.7884 84.8398 76.7409 84.8385 76.6963 84.8251C75.7171 85.3241 74.6242 85.5577 73.5265 85.5027C72.4289 85.4477 71.3648 85.106 70.4404 84.5116C70.0074 84.2491 69.6016 83.9443 69.2289 83.6017C70.1185 85.3749 70.2491 87.459 68.8403 89.1258C67.3127 90.9331 64.311 91.1523 62.8621 89.1099ZM71.7969 53.7717C72.0018 54.0987 72.3124 54.3458 72.6771 54.472C72.989 54.0597 72.85 53.8356 72.2601 53.7998C72.1069 53.7767 71.9518 53.7673 71.7969 53.7717ZM74.1291 42.1883C74.3218 42.1373 74.4967 42.0342 74.6345 41.8902C74.7723 41.7463 74.8678 41.5671 74.9103 41.3724C74.6296 39.9902 73.1552 40.3683 72.585 41.2974C72.5425 41.3666 72.5095 41.4408 72.4733 41.5133C72.6647 41.7625 72.919 41.9562 73.2099 42.0748C73.5008 42.1934 73.8181 42.2326 74.1291 42.1883Z" fill="#C29C5B"/>
<path d="M74.5009 63.7328C74.5205 63.5752 74.6005 63.4313 74.7241 63.3315C74.8477 63.2317 75.0052 63.1838 75.1635 63.1979C75.3217 63.212 75.4683 63.287 75.5723 63.4071C75.6763 63.5272 75.7296 63.6829 75.721 63.8416C75.7014 63.9992 75.6214 64.1431 75.4978 64.2429C75.3742 64.3427 75.2167 64.3906 75.0584 64.3765C74.9002 64.3624 74.7536 64.2874 74.6496 64.1673C74.5456 64.0472 74.4923 63.8915 74.5009 63.7328Z" fill="#C29C5B"/>
<path d="M70.829 68.1651C70.8488 68.0061 70.9294 67.8611 71.0541 67.7605C71.1787 67.6599 71.3375 67.6116 71.497 67.6258C71.6566 67.64 71.8043 67.7156 71.9092 67.8367C72.0141 67.9577 72.0678 68.1148 72.0591 68.2747C72.0394 68.4336 71.9587 68.5787 71.8341 68.6793C71.7095 68.7799 71.5507 68.8282 71.3911 68.814C71.2316 68.7997 71.0838 68.7241 70.979 68.6031C70.8741 68.482 70.8204 68.325 70.829 68.1651Z" fill="#C29C5B"/>
<path d="M68.7459 74.8203L68.774 74.6741C68.7936 74.5186 68.8727 74.3768 68.9948 74.2785C69.1168 74.1802 69.2722 74.1331 69.4283 74.147C69.5844 74.1609 69.729 74.2348 69.8317 74.3531C69.9345 74.4715 69.9873 74.625 69.9791 74.7815C69.9797 74.8312 69.9803 74.8808 69.9809 74.9305C69.9905 75.7315 68.5944 75.6086 68.7459 74.8203Z" fill="#C29C5B"/>
<path d="M69.6125 80.4563C69.5317 80.3965 69.4677 80.3169 69.4265 80.2252C69.3853 80.1335 69.3684 80.0327 69.3773 79.9326C69.3862 79.8325 69.4207 79.7363 69.4775 79.6533C69.5342 79.5703 69.6113 79.5033 69.7014 79.4587C69.7949 79.4118 69.8972 79.385 70.0017 79.3801C70.1062 79.3751 70.2105 79.3921 70.3081 79.4299C70.4294 79.4787 70.5318 79.5654 70.6002 79.6769C70.6685 79.7885 70.6991 79.9191 70.6875 80.0494C70.6759 80.1797 70.6226 80.3028 70.5357 80.4005C70.4487 80.4982 70.3326 80.5653 70.2045 80.592C70.1018 80.6117 69.9961 80.6098 69.8942 80.5864C69.7923 80.5631 69.6964 80.5188 69.6125 80.4563Z" fill="#C29C5B"/>
<path d="M74.2141 30.7849L74.1875 30.766C74.1258 30.7269 74.0724 30.6759 74.0304 30.6161C73.9884 30.5563 73.9586 30.4888 73.9428 30.4174C73.927 30.3461 73.9255 30.2723 73.9383 30.2004C73.9511 30.1284 73.978 30.0597 74.0174 29.9982C74.0325 29.9166 74.0681 29.8402 74.1209 29.7762C74.1736 29.7122 74.2418 29.6626 74.319 29.6322L74.3495 29.622C74.4693 29.572 74.6016 29.5603 74.7284 29.5882C74.8552 29.6162 74.9702 29.6826 75.0579 29.7784C75.1237 29.8593 75.1704 29.9539 75.1947 30.0553C75.219 30.1567 75.2202 30.2622 75.1982 30.3641C75.1762 30.466 75.1316 30.5616 75.0676 30.644C75.0036 30.7263 74.922 30.7932 74.8287 30.8397C74.7307 30.8862 74.622 30.9057 74.5139 30.896C74.4059 30.8864 74.3024 30.848 74.2141 30.7849Z" fill="#C29C5B"/>
<path d="M77.7589 35.6062C77.6681 35.5744 77.5809 35.5331 77.4989 35.4828C77.4198 35.4257 77.3569 35.349 77.3164 35.2603C77.2759 35.1716 77.2592 35.0739 77.2678 34.9768C77.2765 34.8796 77.3103 34.7864 77.3658 34.7063C77.4214 34.6261 77.4968 34.5618 77.5847 34.5196C77.6744 34.4846 77.7675 34.4593 77.8625 34.4441C77.9541 34.4275 78.0484 34.4322 78.138 34.4579C78.2275 34.4837 78.3099 34.5297 78.3787 34.5925C78.4475 34.6554 78.5009 34.7332 78.5347 34.8201C78.5685 34.9069 78.5818 35.0004 78.5735 35.0932C78.5652 35.186 78.5356 35.2756 78.487 35.3551C78.4384 35.4346 78.3721 35.5018 78.2932 35.5514C78.2144 35.6011 78.1252 35.6319 78.0325 35.6414C77.9398 35.6509 77.8462 35.6388 77.7589 35.6062Z" fill="#C29C5B"/>
<path d="M79.3591 41.13C79.3241 40.9312 79.3187 40.7282 79.3431 40.5278C79.3542 40.4348 79.392 40.3469 79.4518 40.2748C79.5117 40.2027 79.5911 40.1495 79.6805 40.1215C79.7699 40.0934 79.8655 40.0918 79.9558 40.1169C80.0461 40.1419 80.1272 40.1925 80.1894 40.2625C80.3042 40.4198 80.3937 40.5941 80.4547 40.779C80.4891 40.8535 80.5073 40.9345 80.508 41.0166C80.5088 41.0987 80.4921 41.18 80.4591 41.2552C80.4261 41.3303 80.3774 41.3976 80.3165 41.4525C80.2555 41.5075 80.1835 41.5489 80.1053 41.5739C80.0271 41.599 79.9446 41.6071 79.863 41.5978C79.7814 41.5886 79.7028 41.5621 79.6322 41.5201C79.5616 41.4781 79.5008 41.4217 79.4537 41.3544C79.4066 41.2872 79.3744 41.2107 79.3591 41.13Z" fill="#C29C5B"/>
<path d="M77.2976 44.8099C77.2241 44.8762 77.1343 44.9216 77.0374 44.9416C76.9405 44.9616 76.84 44.9554 76.7463 44.9237C76.6526 44.8919 76.5691 44.8357 76.5044 44.7609C76.4396 44.686 76.396 44.5953 76.378 44.498C76.356 44.3716 76.3678 44.2416 76.4122 44.1213C76.4597 44.0028 76.5434 43.9023 76.6514 43.8343C76.7595 43.7663 76.8863 43.7343 77.0136 43.7427L77.0485 43.7427C77.5955 43.7441 77.6876 44.3934 77.3864 44.722C77.3643 44.7498 77.3395 44.7753 77.3123 44.7982C77.3072 44.802 77.3029 44.8062 77.2976 44.8099Z" fill="#C29C5B"/>
</svg>
