<svg width="89" height="91" viewBox="0 0 89 91" fill="none" xmlns="http://www.w3.org/2000/svg">
<path d="M15.7893 5.81442C15.2083 6.19319 14.6347 6.586 14.0657 6.98717C14.0642 6.97532 14.063 6.96501 14.0611 6.95179C14.0339 6.76266 14.0214 6.57169 14.0239 6.38062C14.0407 6.01966 14.0862 5.6606 14.1601 5.30689C14.1956 5.10085 13.8841 4.9914 13.8051 5.19311C13.638 5.63798 13.545 6.10724 13.5297 6.5822C13.4991 6.84474 13.4975 7.10986 13.525 7.37275C13.1786 7.62133 12.8333 7.87189 12.4892 8.12446C12.4792 7.29847 12.3464 6.47856 12.095 5.69169C12.0835 5.66346 12.0632 5.63966 12.0372 5.62379C12.0112 5.60791 11.9807 5.60081 11.9504 5.60351C11.92 5.60622 11.8913 5.61859 11.8685 5.63881C11.8457 5.65904 11.8299 5.68604 11.8236 5.71587C11.7221 6.6621 11.7495 7.61773 11.9052 8.55657C11.7041 8.70572 11.5029 8.85492 11.3017 9.00414C11.1301 8.20675 10.9157 7.41918 10.6594 6.64484C10.6432 6.60336 10.6178 6.56608 10.5852 6.5358C10.5525 6.50551 10.5134 6.48299 10.4708 6.46994C10.4283 6.45688 10.3833 6.45363 10.3393 6.46041C10.2952 6.46719 10.2533 6.48383 10.2166 6.50909C9.59309 6.87105 9.0255 7.32175 8.53166 7.84704C8.48817 7.4268 8.44222 7.00675 8.39383 6.58694C8.57699 6.48899 8.75139 6.35584 8.90326 6.2669C9.52327 5.90365 10.1661 5.58747 10.8128 5.27513C11.1365 5.11882 10.954 4.59729 10.6139 4.74329C9.87023 5.17134 9.1002 5.55185 8.30844 5.88251C8.2573 5.47791 8.20012 5.07495 8.1395 4.67289C8.23467 4.60807 8.32374 4.53816 8.40314 4.4837C8.82077 4.19696 9.2384 3.91021 9.65605 3.62346C9.9454 3.42472 9.62879 2.97864 9.34027 3.17917C9.03783 3.38941 8.73534 3.59969 8.43282 3.81001C8.33433 3.87857 8.19556 3.9892 8.04919 4.08816C7.94946 3.4857 7.83569 2.88757 7.70242 2.29625C7.69465 2.235 7.66346 2.17914 7.61537 2.14042C7.56728 2.10171 7.50604 2.08315 7.44455 2.08863C7.38305 2.09412 7.32607 2.12323 7.28559 2.16985C7.24511 2.21646 7.22429 2.27695 7.22749 2.3386C7.25599 2.97105 7.30518 3.60428 7.36639 4.23773C7.20652 4.15945 7.0269 4.025 6.90453 3.96219C6.6137 3.8128 6.32572 3.66477 6.02316 3.5401C5.86026 3.4729 5.69666 3.69819 5.85084 3.81007C6.19483 4.05989 6.56115 4.27304 6.92481 4.49276C7.08458 4.6069 7.25169 4.7104 7.42505 4.80261C7.46617 5.18462 7.51021 5.56666 7.55719 5.94875C6.78555 5.8806 5.98607 5.45142 5.23203 5.31922C5.19036 5.31292 5.14779 5.32165 5.11197 5.34387C5.07616 5.36609 5.04942 5.40032 5.03655 5.44045C5.02368 5.48059 5.02552 5.524 5.04174 5.5629C5.05796 5.6018 5.0875 5.63367 5.12507 5.65277C5.72545 5.94167 6.34496 6.18895 6.97926 6.39288C7.18138 6.46464 7.41444 6.58582 7.64643 6.65663C7.6923 7.00571 7.73899 7.35475 7.78651 7.70375C7.06329 7.30602 6.29272 7.00124 5.49311 6.79666C5.29359 6.73995 5.16108 6.93815 5.15552 7.10478C5.09026 7.91431 5.11315 8.72854 5.22379 9.53313C4.94178 9.40181 4.65907 9.27262 4.37648 9.14321C4.37026 9.04543 4.3644 8.94998 4.36481 8.86051C4.36866 8.09112 4.41968 7.32486 4.45908 6.55696C4.47816 6.18435 3.91523 6.06229 3.87316 6.45024C3.78551 7.25726 3.79678 8.06148 3.77266 8.86832C3.4711 8.73209 3.16805 8.60107 2.86579 8.46762C2.87545 8.31243 2.86621 8.15387 2.86745 8.01106C2.87172 7.49731 2.8793 6.982 2.863 6.46855C2.85074 6.08148 2.28448 6.15058 2.27494 6.52099C2.32568 7.08489 2.3335 7.65183 2.2983 8.21691C1.63724 7.92969 0.974683 7.64834 0.308996 7.37926C0.25547 7.35631 0.195118 7.35504 0.140673 7.37571C0.0862274 7.39638 0.0419331 7.43738 0.0171261 7.49007C-0.0076828 7.54276 -0.0110664 7.60302 0.00768661 7.65816C0.0264378 7.7133 0.0658646 7.75901 0.117653 7.78565C0.730247 8.13277 1.3486 8.47231 1.97269 8.80427C1.69244 8.97936 1.40212 9.13783 1.10327 9.27885C0.79205 9.45603 0.47788 9.62823 0.164886 9.80227C0.0253258 9.87995 0.151545 10.1029 0.293949 10.0454C0.813393 9.83581 1.33533 9.63255 1.85453 9.42255C2.09949 9.34631 2.33441 9.24097 2.55428 9.10878C2.92007 9.30118 3.28468 9.49519 3.65308 9.68398C3.52354 9.91769 3.28308 10.0193 2.94858 10.236C2.51024 10.5128 2.09383 10.8229 1.70301 11.1635C1.55237 11.2975 1.66716 11.5935 1.88124 11.4995C2.42285 11.2509 2.94424 10.9604 3.44065 10.6306C3.76115 10.4836 4.04514 10.2674 4.27224 9.99769C4.49073 10.1083 4.70867 10.2195 4.92792 10.3291C4.28212 10.6894 3.67716 11.1184 3.12357 11.6086C3.0796 11.6412 3.04472 11.6845 3.0223 11.7344C2.99988 11.7843 2.99066 11.8391 2.99552 11.8936C3.00038 11.9481 3.01916 12.0004 3.05006 12.0456C3.08096 12.0907 3.12294 12.1272 3.17198 12.1514C3.92667 12.5071 4.67886 12.8707 5.43895 13.2155C5.24233 13.35 5.04585 13.4846 4.84947 13.6194C3.97997 13.0262 2.99624 12.6211 1.96123 12.4299C1.91627 12.4231 1.87035 12.4325 1.83171 12.4565C1.79307 12.4804 1.76423 12.5174 1.75035 12.5607C1.73648 12.604 1.73846 12.6508 1.75598 12.6928C1.77349 12.7347 1.80538 12.7691 1.84592 12.7897C2.38865 13.0251 3.72797 13.4269 4.32836 13.9765C3.89324 14.2758 3.4604 14.5777 3.02982 14.8823C2.46642 14.5436 1.85108 14.3 1.20851 14.1613C1.15817 14.1536 1.10675 14.1641 1.06346 14.191C1.02018 14.2178 0.987875 14.2591 0.97234 14.3076C0.956804 14.3561 0.959048 14.4086 0.978687 14.4556C0.998326 14.5025 1.03408 14.541 1.0795 14.564C1.57761 14.7484 2.05865 14.9759 2.51713 15.2441C2.00113 15.6124 1.48832 15.9845 0.983986 16.3669C0.833948 16.4805 0.9613 16.7505 1.1435 16.6674C1.76582 16.3812 2.37321 16.0636 2.96333 15.7158C3.10271 16.2179 3.16323 16.7387 3.1427 17.2594C3.16888 17.6591 3.75369 17.5929 3.75333 17.2049C3.79677 16.5857 3.71894 15.9638 3.52419 15.3744C3.89655 15.1439 4.26609 14.9077 4.63028 14.6618C4.61553 14.9926 4.50038 15.416 4.49221 15.6965C4.47675 16.2265 4.50352 16.7569 4.57227 17.2826C4.58205 17.3626 4.62254 17.4357 4.6852 17.4863C4.74786 17.537 4.82778 17.5614 4.90805 17.5542C4.98832 17.5471 5.06265 17.509 5.11536 17.448C5.16806 17.387 5.19501 17.308 5.19049 17.2275C5.10234 16.2216 5.13406 15.2089 5.285 14.2105C5.44505 14.0983 5.60461 13.9854 5.76367 13.8718C5.73984 14.2663 5.75068 14.6622 5.79608 15.0549C5.82043 15.3882 5.74815 16.1585 6.07216 16.3779C6.39973 16.5997 6.8188 16.1884 7.07201 16.0273C7.587 15.6996 8.10965 15.3801 8.61593 15.0388C8.6424 15.3335 8.6691 15.6282 8.69604 15.9228C8.6897 15.9248 8.68301 15.9252 8.67673 15.9272C7.97419 16.2334 7.30458 16.6102 6.67824 17.0519C6.21438 17.2564 5.81492 17.5833 5.52267 17.9975C5.43366 18.1421 5.64876 18.3149 5.77546 18.2089C6.54624 17.6193 7.40431 17.1536 8.31869 16.8287C8.46536 16.7792 8.61719 16.7467 8.77124 16.7317C8.79796 17.0162 8.82812 17.3003 8.85627 17.5847C8.72424 17.6896 8.60443 17.8186 8.49036 17.911C8.09132 18.2347 7.67884 18.5418 7.28017 18.8661C7.2487 18.8902 7.2278 18.9255 7.22187 18.9647C7.21593 19.0038 7.22544 19.0437 7.24838 19.076C7.27132 19.1083 7.30589 19.1304 7.34482 19.1377C7.38374 19.145 7.42398 19.1369 7.45704 19.1151C7.74776 18.9336 8.03617 18.7486 8.32587 18.5655C8.46311 18.4787 8.69965 18.2851 8.9141 18.1653C8.98894 18.8869 9.0687 19.6076 9.1628 20.326C9.17233 20.4023 9.21109 20.4719 9.27092 20.5202C9.33075 20.5684 9.40697 20.5916 9.48353 20.5848C9.5601 20.5779 9.63103 20.5417 9.68137 20.4836C9.73171 20.4255 9.75754 20.3501 9.75341 20.2734C9.72349 19.5927 9.67583 18.9115 9.62097 18.2303C10.0038 18.4719 10.429 18.9116 10.7061 19.1144C11.0328 19.3535 11.4371 18.8796 11.1125 18.6286C10.7151 18.3216 10.3128 18.0206 9.90546 17.7256C9.79441 17.6364 9.6774 17.555 9.55525 17.4818C9.5341 17.2471 9.51639 17.0123 9.49346 16.7776C10.3659 17.0707 11.1947 17.4805 11.9573 17.9959C12.3179 18.191 12.5813 17.6187 12.2271 17.4229C11.5037 17.0228 10.3821 16.0986 9.4057 15.9066C9.37281 15.5947 9.34005 15.2827 9.30526 14.9709C9.97024 15.387 10.6525 15.7747 11.3391 16.154C11.3799 16.1726 11.4244 16.1818 11.4693 16.1807C11.5141 16.1797 11.5582 16.1684 11.5981 16.1479C11.638 16.1274 11.6727 16.0981 11.6996 16.0622C11.7266 16.0263 11.745 15.9847 11.7536 15.9406C11.9443 15.2121 12.0354 14.461 12.0242 13.7079C12.1547 13.7684 12.2849 13.8289 12.415 13.8893C12.4035 14.1867 12.4229 14.4845 12.4732 14.7779C12.5324 15.5227 12.6075 16.2669 12.7167 17.0061C12.7225 17.0524 12.7461 17.0947 12.7825 17.124C12.8189 17.1533 12.8652 17.1673 12.9117 17.1632C12.9582 17.159 13.0014 17.137 13.032 17.1017C13.0626 17.0665 13.0784 17.0207 13.076 16.9741C13.097 16.211 12.8619 15.0371 13.1074 14.2105C13.4064 14.3491 13.7026 14.4883 14.001 14.627C13.9999 14.6375 13.9995 14.6482 13.9997 14.6588C14.0505 15.2019 14.1349 15.7413 14.2525 16.274C14.2581 16.3184 14.2807 16.3589 14.3156 16.387C14.3505 16.4151 14.3949 16.4286 14.4394 16.4246C14.484 16.4206 14.5253 16.3995 14.5547 16.3657C14.584 16.3319 14.5991 16.288 14.5968 16.2433C14.5653 15.7908 14.552 15.3356 14.5469 14.8814C15.0776 15.1285 15.6104 15.375 16.1379 15.623C16.2131 15.6553 16.2979 15.6571 16.3744 15.6281C16.4509 15.5991 16.5132 15.5415 16.5481 15.4674C16.5829 15.3934 16.5877 15.3087 16.5613 15.2312C16.5349 15.1538 16.4794 15.0896 16.4066 15.0522C16.0173 14.8591 15.6262 14.6616 15.2361 14.4667C15.5944 14.3028 15.9351 14.1027 16.2527 13.8694C16.3011 13.8326 16.3349 13.7799 16.348 13.7205C16.3611 13.6611 16.3526 13.599 16.3241 13.5453C16.2956 13.4916 16.2489 13.4498 16.1924 13.4274C16.1359 13.405 16.0733 13.4034 16.0157 13.4229C15.5153 13.6114 15.0363 13.8524 14.5868 14.142C14.2155 13.9559 13.8453 13.7719 13.4737 13.5851C14.145 12.8629 15.2529 12.3959 15.9857 11.7349C16.0406 11.6927 16.0771 11.6309 16.0874 11.5624C16.0977 11.4938 16.081 11.424 16.0409 11.3675C16.0007 11.311 15.9403 11.2723 15.8722 11.2595C15.8041 11.2467 15.7337 11.2609 15.6758 11.2989C14.985 11.732 14.3174 12.2009 13.6756 12.7037C13.4523 12.8666 13.1047 13.0482 12.8321 13.2626C12.6449 13.1684 12.4579 13.0744 12.271 12.9805C12.7002 12.3989 13.2217 11.8915 13.8148 11.4783C14.0187 11.2994 14.2264 11.1164 14.118 10.8238C13.9713 10.428 13.2626 10.2407 12.9267 10.072C12.5649 9.89032 12.1988 9.68043 11.818 9.52334C12.0574 9.35517 12.2963 9.18627 12.5346 9.01664C13.4636 9.20633 14.3726 9.48343 15.2495 9.84422C15.322 9.87527 15.4037 9.87697 15.4774 9.84898C15.5511 9.82098 15.611 9.76548 15.6446 9.69414C15.6782 9.62281 15.6828 9.54123 15.6574 9.46658C15.6321 9.39193 15.5787 9.33003 15.5086 9.29395C14.7959 8.92934 14.0369 8.66364 13.2524 8.50419C13.54 8.29774 13.8236 8.08684 14.1087 7.87761C14.3397 7.90593 14.594 7.88786 14.7743 7.90095C15.2551 7.95937 15.7393 7.98426 16.2235 7.97544C16.2921 7.96725 16.3555 7.935 16.4025 7.88442C16.4495 7.83385 16.477 7.76823 16.4801 7.69926C16.4833 7.6303 16.4618 7.56245 16.4196 7.50781C16.3774 7.45317 16.3172 7.41528 16.2497 7.40088C15.8952 7.3456 15.5373 7.31509 15.1786 7.30953C15.0959 7.30467 14.988 7.3084 14.8732 7.31213C15.304 6.98764 15.732 6.66036 16.1519 6.32444C16.2163 6.27515 16.2591 6.20275 16.2713 6.12252C16.2834 6.04228 16.2639 5.96046 16.2169 5.89432C16.1698 5.82818 16.099 5.78289 16.0192 5.76799C15.9394 5.75308 15.857 5.76973 15.7893 5.81442ZM7.67043 11.6713C7.13102 12.0522 6.58825 12.4289 6.04213 12.8017C5.33816 12.4524 4.62227 12.1259 3.90835 11.7964C4.43991 11.4293 4.93945 11.0178 5.40157 10.5664C6.15495 10.9394 6.91124 11.3077 7.67043 11.6713ZM8.21487 10.9594C7.38244 10.5523 6.54732 10.1523 5.70951 9.75953C5.75651 8.99674 5.76046 8.23191 5.72136 7.46868C6.46213 7.75936 7.18629 8.09073 7.89051 8.46129C8.00517 9.29539 8.11816 10.1285 8.21487 10.9594ZM8.55774 14.3942C8.50771 14.3974 8.45912 14.4122 8.41577 14.4374C8.03836 14.6581 7.67309 14.901 7.30422 15.1357C7.10547 15.2622 6.90673 15.3887 6.70798 15.5151C6.66461 15.5427 6.5487 15.6361 6.45004 15.71C6.30332 15.0095 6.4674 14.2104 6.22481 13.5374C6.93144 13.0239 7.63073 12.5029 8.32848 11.9944C8.4112 12.7932 8.48533 13.5935 8.55774 14.3942ZM8.998 12.298C9.85711 12.7024 10.7176 13.1008 11.5777 13.4999C11.5225 13.5397 11.4845 13.599 11.4715 13.6658C11.351 14.2445 11.3174 14.8447 11.2364 15.4354C10.582 15.0898 9.92234 14.754 9.24689 14.4511C9.16504 13.7325 9.08067 13.0146 8.998 12.298ZM10.8146 9.36755C10.1553 9.85962 9.49666 10.3512 8.83494 10.8343C8.7476 10.0164 8.66784 9.19092 8.58447 8.36411C9.11304 7.96259 9.6426 7.56451 10.2013 7.20719C10.3408 7.94419 10.5461 8.6672 10.8146 9.36755ZM12.3353 10.437C12.5578 10.5582 12.7817 10.677 13.0054 10.7963C13.2975 10.952 13.3596 10.8947 13.2414 11.1388C13.138 11.3524 12.6895 11.5851 12.5062 11.7401C12.3819 11.8454 12.253 11.9469 12.1382 12.0628C11.949 12.24 11.8074 12.462 11.7264 12.7082C10.8641 12.275 10.0021 11.8406 9.13573 11.4125C9.8653 10.8914 10.6024 10.3759 11.3394 9.85921C11.6586 10.073 11.9913 10.266 12.3353 10.437Z" fill="#C29C5B"/>
<path d="M86.2025 9.23437C84.3128 8.14269 82.2847 8.63979 80.6968 9.82912C80.9681 9.40161 81.1963 8.94826 81.3781 8.47571C81.7996 7.46072 81.9477 6.35298 81.8077 5.26291C81.6676 4.17285 81.2444 3.13852 80.58 2.26302C80.5854 2.21671 80.5782 2.16981 80.5593 2.12721C80.5404 2.08461 80.5103 2.04788 80.4724 2.02084C80.3756 1.94405 80.2732 1.88503 80.1744 1.81469C79.4702 1.11736 78.6107 0.596902 77.6664 0.296007C76.7222 -0.00488853 75.72 -0.0776463 74.7422 0.0836868C72.7539 0.351999 70.5638 1.30828 70.5318 3.60696C70.5069 5.4019 71.7488 6.62401 73.1728 7.48577C73.1869 7.51959 73.209 7.5495 73.2371 7.57294C73.5798 7.84038 73.9754 8.03188 74.3977 8.13474C74.4205 8.14541 74.4436 8.15691 74.4663 8.16745C74.5117 8.18871 74.5624 8.19568 74.6118 8.18747C75.1266 8.30796 75.6667 8.25722 76.1501 8.04295C76.1758 8.02905 76.1973 8.00847 76.2123 7.98338C76.2273 7.95829 76.2353 7.92962 76.2353 7.90038C76.8297 7.74991 77.353 7.39688 77.7151 6.90209C79.3 4.71227 76.229 2.35878 74.424 4.32242C74.1803 4.58759 74.5929 4.90325 74.8421 4.67203C75.8831 3.70627 77.7175 4.57544 77.15 6.02284C77.0121 6.31333 76.8067 6.56656 76.5509 6.76134C76.2951 6.95612 75.9963 7.0868 75.6796 7.14238C75.0137 7.21297 74.3431 7.06116 73.7725 6.71064C72.2414 5.17927 71.3591 2.53305 73.9308 1.51544C76.3275 0.737759 78.9492 1.63335 79.9247 4.12023C80.7057 6.1113 80.2398 8.18363 79.3596 10.0407C78.7949 10.7015 78.1272 11.2667 77.3822 11.7146C71.7855 15.0512 64.6724 12.9884 59.9482 9.18092C56.9309 6.74903 53.7027 3.44512 49.4832 3.66146C46.9773 3.78999 44.8212 5.36947 44.3173 7.62809C43.7439 6.2734 42.6856 5.18145 41.3495 4.5659C38.4935 3.16727 35.119 3.9651 32.5201 5.54737C29.5657 7.34622 27.2788 11.1729 24.1419 12.761C24.1201 12.7556 24.0978 12.7527 24.0754 12.7522C22.8414 12.8124 21.5629 12.9436 20.6579 11.9074C19.8539 10.9869 20.088 9.4286 21.2166 9.04397C21.6076 9.05337 21.9909 9.15497 22.3351 9.3405C22.6794 9.52604 22.975 9.79027 23.1979 10.1117C23.2458 10.1749 23.3146 10.219 23.3921 10.2362C23.4696 10.2533 23.5506 10.2422 23.6207 10.205C23.6908 10.1679 23.7454 10.1069 23.7746 10.0332C23.8039 9.95945 23.806 9.8777 23.7804 9.80258C22.9024 7.11856 19.2107 7.36115 18.3518 9.92784C17.3202 13.0111 21.0271 14.5855 23.4751 13.9339C23.54 13.9189 23.5964 13.8791 23.6322 13.8229C26.7376 13.0066 28.7953 9.75813 31.2504 7.74323C33.5219 5.87908 36.528 4.31945 39.5536 4.96001C39.586 5.00132 39.6272 5.03498 39.6742 5.05857C43.46 6.93445 44.2149 11.5365 40.9164 13.8804C40.657 14.006 40.3889 14.113 40.1143 14.2006C39.8764 14.2214 39.6371 14.2231 39.3989 14.2057C39.6556 13.8805 39.8023 13.4821 39.8177 13.068C39.8331 12.654 39.7164 12.2458 39.4845 11.9025C39.3364 11.7241 39.1496 11.5819 38.9382 11.4868C38.7268 11.3917 38.4964 11.3462 38.2647 11.3538C38.2541 11.3161 38.2318 11.2826 38.2011 11.2582C38.1704 11.2338 38.1328 11.2197 38.0937 11.2179C36.6791 11.1445 36.2822 13.0305 37.0302 13.9726C37.2605 14.2611 37.5517 14.4951 37.883 14.6578C36.7612 15.3067 35.4471 15.5409 34.1702 15.3195C34.0799 15.3065 33.988 15.329 33.9139 15.3824C33.8398 15.4357 33.7892 15.5157 33.7728 15.6055C33.7565 15.6954 33.7756 15.788 33.8261 15.8641C33.8767 15.9401 33.9547 15.9936 34.0439 16.0132C34.8469 16.2481 35.6971 16.2711 36.5117 16.08C37.3263 15.8889 38.0775 15.4903 38.6924 14.9229C39.0082 14.974 39.329 14.986 39.6477 14.9586C39.6813 15.0022 39.7275 15.0342 39.7801 15.0503C39.8327 15.0663 39.889 15.0657 39.9412 15.0483C40.1538 14.9861 40.3626 14.9116 40.5666 14.8253C41.5137 14.5955 42.3819 14.1163 43.081 13.4373C43.78 12.7583 44.2844 11.9044 44.5417 10.9645C44.893 11.7284 45.4327 12.3905 46.1102 12.8886C46.7877 13.3866 47.5806 13.7043 48.4146 13.8118C49.0934 13.8892 49.7808 13.7994 50.417 13.5504C50.6297 13.9866 50.9352 14.3711 51.3121 14.6768C51.689 14.9826 52.1282 15.2023 52.5989 15.3205C52.6733 15.3317 52.7492 15.3161 52.813 15.2765C52.8769 15.2368 52.9246 15.1757 52.9475 15.1041C52.9705 15.0326 52.9672 14.9551 52.9383 14.8858C52.9093 14.8164 52.8566 14.7596 52.7896 14.7255C52.1795 14.4717 51.6511 14.0546 51.2627 13.5199C51.1972 13.4161 51.1388 13.3079 51.0878 13.1962C51.3558 13.0304 51.5795 12.8021 51.7398 12.5307C51.9 12.2594 51.992 11.9532 52.0077 11.6385C52.0877 11.5114 52.1173 11.359 52.0907 11.2113C52.0641 11.0635 51.9833 10.9311 51.864 10.8399C51.8403 10.8031 51.8044 10.7759 51.7626 10.7629C51.6384 10.6777 51.4966 10.6215 51.3477 10.5987C51.1988 10.5758 51.0466 10.5868 50.9026 10.6308C50.7585 10.6748 50.6262 10.7508 50.5155 10.853C50.4048 10.9552 50.3186 11.0811 50.2633 11.2212C50.0086 11.7741 49.979 12.4045 50.1807 12.9789C49.9164 13.0666 49.6417 13.1195 49.3637 13.1363C49.312 13.0583 49.2332 13.0024 49.1425 12.9794C48.2128 12.7341 47.4087 12.1492 46.889 11.3402C46.3693 10.5312 46.1716 9.55673 46.335 8.60915C46.6716 6.87033 48.1073 5.72988 49.6107 4.99226C49.6619 4.96557 49.7048 4.9253 49.7346 4.87587C50.9748 4.87374 52.2002 5.14435 53.3242 5.66849C55.1342 6.5331 56.6165 7.88149 58.1409 9.15366C60.7017 11.2908 63.3491 13.0374 66.6427 13.8181C70.5896 14.7536 76.0163 14.4056 79.2341 11.5601C79.2467 11.5736 79.2619 11.5844 79.2787 11.5919C79.2956 11.5995 79.3137 11.6035 79.3322 11.6039C79.3506 11.6043 79.3689 11.601 79.3861 11.5942C79.4032 11.5874 79.4188 11.5772 79.432 11.5643C80.5946 10.5089 82.2785 9.46824 83.8725 9.40193C83.8985 9.43216 83.9284 9.45878 83.9614 9.4811C85.1106 10.2031 86.1847 11.0791 86.3329 12.5361C86.396 13.1971 86.2258 13.8593 85.8519 14.408C85.478 14.9567 84.9239 15.3572 84.2857 15.5403C84.0098 15.5782 83.7302 15.5801 83.4539 15.5459C83.065 15.5089 82.6932 15.3684 82.377 15.139C82.0607 14.9097 81.8117 14.5998 81.6558 14.2417C81.4727 12.6859 82.0805 12.0858 83.479 12.4415C83.5607 12.4765 83.6527 12.4785 83.7358 12.447C83.8189 12.4155 83.8865 12.3529 83.9243 12.2725C83.9622 12.1921 83.9673 12.1002 83.9387 12.0161C83.9101 11.932 83.8499 11.8623 83.7709 11.8217C81.7587 10.7534 80.0993 13.1584 81.1386 14.9493C82.3939 17.1123 85.6907 16.7043 87.2444 15.1211C88.9983 13.3338 88.2515 10.4181 86.2025 9.23437ZM50.8287 12.1171C50.7594 11.53 50.9554 11.3536 51.4165 11.5878C51.3569 11.9691 51.1686 12.3186 50.883 12.5781C50.8512 12.4264 50.833 12.2721 50.8287 12.1171ZM38.6983 14.0807C38.6204 14.0578 38.5416 14.0385 38.466 14.009C37.4506 13.612 36.8177 12.2278 38.1285 11.707C38.3277 11.7144 38.5209 11.7766 38.6869 11.8868C38.853 11.997 38.9854 12.1509 39.0697 12.3315C39.1683 12.6298 39.1859 12.949 39.1206 13.2563C39.0554 13.5637 38.9096 13.8482 38.6983 14.0807Z" fill="#C29C5B"/>
<path d="M60.2049 8.15535C60.0462 8.16397 59.8905 8.11065 59.7704 8.00664C59.6503 7.90264 59.5753 7.75606 59.5612 7.59783C59.5471 7.43959 59.595 7.28207 59.6948 7.15847C59.7946 7.03486 59.9385 6.95483 60.0961 6.93526C60.2547 6.92664 60.4105 6.97995 60.5306 7.08396C60.6507 7.18797 60.7257 7.33455 60.7398 7.49278C60.7539 7.65101 60.706 7.80855 60.6062 7.93216C60.5064 8.05576 60.3625 8.13578 60.2049 8.15535Z" fill="#C29C5B"/>
<path d="M65.2239 10.9854C65.0639 10.9941 64.9068 10.9404 64.7858 10.8355C64.6647 10.7307 64.5891 10.5829 64.5748 10.4234C64.5606 10.2638 64.6089 10.105 64.7095 9.98036C64.8101 9.85573 64.9552 9.77503 65.1142 9.75531C65.2741 9.7466 65.4312 9.80035 65.5522 9.9052C65.6733 10.0101 65.749 10.1578 65.7632 10.3174C65.7774 10.4769 65.7291 10.6358 65.6285 10.7604C65.5279 10.885 65.3828 10.9657 65.2239 10.9854Z" fill="#C29C5B"/>
<path d="M72.1354 11.8574L71.9865 11.8555C71.83 11.8637 71.6765 11.8109 71.5581 11.7082C71.4398 11.6054 71.3659 11.4608 71.3519 11.3047C71.338 11.1486 71.3852 10.9932 71.4835 10.8712C71.5818 10.7492 71.7236 10.67 71.8791 10.6504L72.0253 10.6223C72.8121 10.4711 72.9381 11.867 72.1354 11.8574Z" fill="#C29C5B"/>
<path d="M77.5303 10.0076C77.4857 10.0976 77.4187 10.1747 77.3357 10.2315C77.2527 10.2883 77.1565 10.3227 77.0564 10.3317C76.9563 10.3406 76.8555 10.3237 76.7638 10.2825C76.6721 10.2413 76.5925 10.1773 76.5326 10.0965C76.47 10.0127 76.4255 9.9168 76.4022 9.81483C76.3788 9.71287 76.3771 9.60715 76.397 9.50446C76.4236 9.37638 76.4908 9.26026 76.5885 9.17328C76.6862 9.0863 76.8093 9.03308 76.9396 9.02147C77.0699 9.00985 77.2005 9.04047 77.312 9.10879C77.4236 9.17712 77.5102 9.27953 77.5591 9.40088C77.5966 9.49847 77.6135 9.60279 77.6085 9.70724C77.6036 9.81168 77.5769 9.91396 77.5303 10.0076Z" fill="#C29C5B"/>
<path d="M27.8319 14.2696L27.8179 14.2992C27.7904 14.3669 27.7497 14.4284 27.6983 14.4803C27.6468 14.5323 27.5856 14.5735 27.5182 14.6017C27.4508 14.6298 27.3784 14.6444 27.3053 14.6445C27.2323 14.6447 27.1599 14.6303 27.0923 14.6024C27.0094 14.602 26.9279 14.5805 26.8556 14.5399C26.7832 14.4993 26.7224 14.4409 26.6788 14.3703L26.6634 14.3421C26.593 14.233 26.558 14.1049 26.5631 13.9751C26.5682 13.8454 26.6132 13.7204 26.692 13.6172C26.7599 13.5381 26.8448 13.4754 26.9403 13.4336C27.0358 13.3917 27.1394 13.3719 27.2436 13.3755C27.3478 13.3792 27.4498 13.4062 27.5422 13.4546C27.6345 13.5029 27.7148 13.5715 27.777 13.6551C27.8402 13.7433 27.8786 13.8468 27.8882 13.9549C27.8979 14.0629 27.8784 14.1716 27.8319 14.2696Z" fill="#C29C5B"/>
<path d="M31.9512 9.92267C31.936 10.0177 31.9107 10.1108 31.8757 10.2004C31.8335 10.2883 31.7692 10.3638 31.689 10.4193C31.6089 10.4749 31.5156 10.5087 31.4185 10.5173C31.3214 10.526 31.2236 10.5092 31.1349 10.4687C31.0462 10.4282 30.9695 10.3653 30.9125 10.2863C30.8622 10.2042 30.8209 10.1171 30.7891 10.0262C30.7565 9.93897 30.7444 9.84535 30.7539 9.75266C30.7634 9.65997 30.7942 9.57072 30.8439 9.49188C30.8935 9.41304 30.9607 9.34674 31.0402 9.29813C31.1197 9.24952 31.2093 9.21992 31.3021 9.21165C31.3949 9.20338 31.4884 9.21666 31.5752 9.25044C31.6621 9.28422 31.7399 9.3376 31.8028 9.40641C31.8656 9.47523 31.9116 9.55763 31.9374 9.64718C31.9631 9.73673 31.9678 9.831 31.9512 9.92267Z" fill="#C29C5B"/>
<path d="M37.1041 7.36804C36.9145 7.43764 36.7157 7.47881 36.5141 7.49023C36.1304 7.49177 35.7969 7.03276 36.1033 6.70424C36.2379 6.56345 36.3936 6.44456 36.5648 6.35185C36.6321 6.30479 36.7086 6.27256 36.7892 6.25729C36.8699 6.24202 36.9528 6.24406 37.0326 6.26327C37.1125 6.28249 37.1873 6.31844 37.2521 6.36874C37.317 6.41904 37.3705 6.48254 37.409 6.55505C37.4474 6.62756 37.4701 6.70743 37.4754 6.78934C37.4807 6.87126 37.4685 6.95336 37.4397 7.03022C37.4109 7.10708 37.366 7.17696 37.3082 7.2352C37.2503 7.29343 37.1807 7.33871 37.1041 7.36804Z" fill="#C29C5B"/>
<path d="M41.089 8.75136C41.1673 8.81195 41.2279 8.89231 41.2647 8.98415C41.3016 9.07599 41.3132 9.17599 41.2985 9.27384C41.2838 9.37168 41.2433 9.46384 41.1811 9.5408C41.1189 9.61777 41.0373 9.67675 40.9447 9.71168C40.8242 9.75569 40.6943 9.76708 40.5679 9.74468C40.4429 9.71889 40.3292 9.65424 40.2432 9.55994C40.1572 9.46564 40.1032 9.34653 40.0889 9.21968L40.0828 9.18537C39.9874 8.64673 40.6102 8.44116 40.9869 8.67961C41.0181 8.69639 41.0476 8.71629 41.0749 8.73899C41.0796 8.74332 41.0845 8.74686 41.089 8.75136Z" fill="#C29C5B"/>
<path d="M25.3645 89.1099C26.6478 87.3008 26.4662 83.9837 24.1153 83.1309C22.1689 82.4247 20.0952 84.4833 21.5027 86.2748C21.5566 86.3454 21.6359 86.3922 21.7237 86.4055C21.8115 86.4188 21.9011 86.3974 21.9735 86.346C22.0459 86.2945 22.0955 86.2169 22.1118 86.1296C22.1281 86.0423 22.11 85.952 22.061 85.8779C21.4636 84.5644 21.9467 83.8601 23.5103 83.765C23.8904 83.8552 24.2394 84.0455 24.5211 84.3161C24.8027 84.5868 25.0068 84.9279 25.112 85.3041C25.1946 85.57 25.2422 85.8456 25.2537 86.1238C25.1863 86.7843 24.8901 87.4005 24.4162 87.8655C23.9423 88.3306 23.3207 88.6152 22.659 88.6701C21.1987 88.7819 20.1466 87.8797 19.2327 86.8764C19.2049 86.8478 19.1733 86.8231 19.139 86.8028C18.9223 85.2222 19.6487 83.3808 20.4818 82.0499C20.4922 82.0346 20.4994 82.0175 20.5031 81.9994C20.5068 81.9813 20.5068 81.9627 20.5032 81.9446C20.4995 81.9265 20.4923 81.9094 20.4819 81.8941C20.4715 81.8789 20.4582 81.8659 20.4427 81.8559C22.6741 78.1854 22.0567 72.7828 20.4378 69.0636C19.0869 65.96 16.8995 63.6633 14.3431 61.5209C12.8214 60.2456 11.232 59.0251 10.0609 57.3966C9.34619 56.3831 8.86314 55.2249 8.6459 54.0039C8.68923 53.9657 8.72124 53.9164 8.73846 53.8613C9.19852 52.2511 10.067 50.6363 11.7189 49.9976C12.6226 49.6691 13.6167 49.6913 14.5049 50.0597C15.3931 50.4281 16.111 51.116 16.5169 51.9877C16.5556 52.0729 16.6245 52.1406 16.7104 52.1777C16.7431 52.4542 16.7396 52.7339 16.7 53.0096C16.099 52.9126 15.4838 53.0533 14.9846 53.4018C14.8565 53.4811 14.7478 53.5882 14.6668 53.7152C14.5858 53.8422 14.5345 53.9859 14.5166 54.1355C14.4988 54.285 14.5149 54.4367 14.5637 54.5792C14.6126 54.7217 14.6929 54.8514 14.7988 54.9586C14.8189 54.9974 14.852 55.0279 14.8924 55.0447C15.0033 55.146 15.148 55.2021 15.2981 55.2022C15.4482 55.2022 15.593 55.1461 15.7039 55.0449C16.0109 54.9738 16.296 54.8291 16.5347 54.6234C16.7734 54.4177 16.9586 54.157 17.0743 53.8639C17.1933 53.8944 17.3101 53.9328 17.4239 53.9789C18.0188 54.2666 18.5228 54.7128 18.8805 55.2684C18.9259 55.3284 18.9911 55.3702 19.0645 55.3864C19.1379 55.4026 19.2147 55.3922 19.2811 55.3569C19.3475 55.3217 19.3992 55.2639 19.4269 55.1941C19.4546 55.1242 19.4566 55.0467 19.4323 54.9755C19.2328 54.5331 18.9389 54.1397 18.5713 53.8228C18.2037 53.506 17.7713 53.2733 17.3043 53.1412C17.4369 52.471 17.4036 51.7785 17.2074 51.124C16.9541 50.3222 16.5011 49.598 15.8911 49.0193C15.281 48.4406 14.5339 48.0265 13.7198 47.8158C14.5995 47.3963 15.3507 46.7489 15.8953 45.9407C16.4399 45.1326 16.7581 44.1933 16.8167 43.2205C16.8656 43.0044 16.9019 42.7857 16.9256 42.5655C16.9334 42.5111 16.9241 42.4556 16.899 42.4067C16.8739 42.3577 16.8342 42.3179 16.7854 42.2925C16.756 41.9741 16.6874 41.6604 16.5813 41.3587C17.0309 40.6531 17.2904 39.8432 17.3343 39.0076C17.3783 38.1721 17.2053 37.3394 16.8321 36.5905C16.797 36.5063 16.7306 36.4389 16.6468 36.4026C16.563 36.3663 16.4684 36.3639 16.3829 36.3959C16.2974 36.4279 16.2276 36.4918 16.1882 36.5741C16.1488 36.6565 16.1429 36.7509 16.1717 36.8376C16.6155 38.0552 16.6174 39.39 16.1772 40.6088C15.9584 40.3115 15.6766 40.0663 15.352 39.8907C14.2923 39.3211 12.5063 40.0454 12.8288 41.4246C12.8375 41.4629 12.858 41.4974 12.8875 41.5233C12.9169 41.5492 12.9537 41.5652 12.9928 41.569C13.0263 41.7983 13.1118 42.017 13.2428 42.2083C13.3738 42.3995 13.5468 42.5583 13.7485 42.6725C14.1275 42.84 14.5499 42.8826 14.9547 42.7942C15.3594 42.7059 15.7256 42.4911 16.0003 42.1809C16.0596 42.4122 16.1002 42.648 16.1219 42.8858C16.0842 43.1716 16.0263 43.4544 15.9486 43.732C14.2251 47.393 9.56205 47.464 7.04608 44.0698C7.01462 44.0277 6.9742 43.9931 6.92774 43.9685C5.76217 41.1039 6.76545 37.8693 8.19839 35.304C9.74729 32.5311 12.5805 29.9313 12.8346 26.7304C12.8836 26.6853 12.9128 26.6227 12.9162 26.5562C13.1244 24.0315 10.9191 20.6616 8.06701 22.2223C5.69266 23.5216 6.10694 27.1981 8.9039 27.5875C8.98236 27.5994 9.06247 27.5829 9.12988 27.541C9.19729 27.4992 9.24759 27.4347 9.2718 27.3591C9.29601 27.2836 9.29253 27.2019 9.262 27.1286C9.23146 27.0554 9.17586 26.9954 9.10514 26.9595C8.74939 26.797 8.43702 26.5528 8.19351 26.2467C7.94999 25.9407 7.7822 25.5815 7.70378 25.1983C7.88274 24.0194 9.37503 23.5134 10.4233 24.1419C11.6033 24.8493 11.7003 26.1309 11.8593 27.3561C11.8637 27.3781 11.8706 27.3995 11.8797 27.4199C10.8715 30.7883 7.5096 33.716 6.26177 36.9421C5.16417 39.7798 4.97579 43.2422 6.85759 45.8058C7.69975 47.012 8.9617 47.8604 10.3965 48.1851C8.26257 49.0806 7.08935 51.4821 7.40607 53.9712C7.93956 58.1625 11.7624 60.7553 14.6896 63.2949C19.2727 67.2712 22.5612 73.9072 20.2672 80.0058C19.9581 80.8183 19.5199 81.5755 18.9694 82.2482C17.2973 83.4429 15.3401 84.2681 13.2422 83.8516C10.6221 83.3313 9.27686 80.9094 9.61835 78.413C10.165 75.7018 12.9255 76.1021 14.7036 77.3381C15.1495 77.8378 15.4176 78.471 15.4659 79.1389C15.4672 79.4604 15.3914 79.7776 15.245 80.0638C15.0985 80.35 14.8856 80.597 14.624 80.784C13.2999 81.5986 12.12 79.9469 12.8864 78.7515C13.0698 78.4653 12.6862 78.1151 12.4683 78.4019C10.8549 80.5257 13.7145 83.132 15.5894 81.1847C16.0124 80.7408 16.2673 80.1633 16.3102 79.5517C16.339 79.5465 16.3658 79.5336 16.3879 79.5143C16.4099 79.4951 16.4264 79.4703 16.4355 79.4426C16.5609 78.9289 16.5153 78.3884 16.3056 77.903C16.305 77.853 16.2891 77.8042 16.2602 77.7634C16.2458 77.7429 16.2304 77.7222 16.2158 77.7016C16.0399 77.3042 15.7814 76.9487 15.4576 76.6587C15.4295 76.6352 15.3962 76.6187 15.3604 76.6108C14.2604 75.3618 12.8379 74.3555 11.0756 74.6976C8.81886 75.1356 8.26505 77.4604 8.3527 79.4648C8.36688 80.4557 8.61575 81.4292 9.07892 82.3054C9.54208 83.1815 10.2064 83.9354 11.0172 84.5052C11.104 84.59 11.1802 84.6803 11.2729 84.7619C11.3062 84.7945 11.3476 84.8176 11.3929 84.8287C11.4382 84.8398 11.4856 84.8385 11.5303 84.8251C12.5095 85.3241 13.6024 85.5577 14.7 85.5027C15.7977 85.4477 16.8617 85.106 17.7862 84.5116C18.2191 84.2491 18.6249 83.9443 18.9977 83.6017C18.108 85.3749 17.9775 87.459 19.3863 89.1258C20.9138 90.9331 23.9156 91.1523 25.3645 89.1099ZM16.4297 53.7717C16.2248 54.0987 15.9142 54.3458 15.5495 54.472C15.2376 54.0597 15.3766 53.8356 15.9664 53.7998C16.1197 53.7767 16.2748 53.7673 16.4297 53.7717ZM14.0974 42.1883C13.9048 42.1373 13.7299 42.0342 13.5921 41.8902C13.4542 41.7463 13.3588 41.5671 13.3162 41.3724C13.597 39.9902 15.0713 40.3683 15.6416 41.2974C15.6841 41.3666 15.717 41.4408 15.7533 41.5133C15.5618 41.7625 15.3076 41.9562 15.0167 42.0748C14.7257 42.1934 14.4085 42.2326 14.0974 42.1883Z" fill="#C29C5B"/>
<path d="M13.7257 63.7328C13.7061 63.5752 13.6261 63.4313 13.5025 63.3315C13.3788 63.2317 13.2213 63.1838 13.0631 63.1979C12.9049 63.212 12.7583 63.287 12.6543 63.4071C12.5503 63.5272 12.497 63.6829 12.5056 63.8416C12.5251 63.9992 12.6052 64.1431 12.7288 64.2429C12.8524 64.3427 13.0099 64.3906 13.1681 64.3765C13.3264 64.3624 13.4729 64.2874 13.5769 64.1673C13.6809 64.0472 13.7343 63.8915 13.7257 63.7328Z" fill="#C29C5B"/>
<path d="M17.3975 68.1651C17.3778 68.0061 17.2971 67.8611 17.1725 67.7605C17.0479 67.6599 16.8891 67.6116 16.7295 67.6258C16.57 67.64 16.4222 67.7156 16.3174 67.8367C16.2125 67.9577 16.1587 68.1148 16.1674 68.2747C16.1872 68.4336 16.2679 68.5787 16.3925 68.6793C16.5171 68.7799 16.6759 68.8282 16.8354 68.814C16.9949 68.7997 17.1427 68.7241 17.2476 68.6031C17.3524 68.482 17.4062 68.325 17.3975 68.1651Z" fill="#C29C5B"/>
<path d="M19.4807 74.8203L19.4526 74.6741C19.433 74.5186 19.3538 74.3768 19.2318 74.2785C19.1097 74.1802 18.9543 74.1331 18.7982 74.147C18.6421 74.1609 18.4976 74.2348 18.3948 74.3531C18.2921 74.4715 18.2393 74.625 18.2474 74.7815C18.2469 74.8312 18.2463 74.8808 18.2457 74.9305C18.2361 75.7315 19.6321 75.6086 19.4807 74.8203Z" fill="#C29C5B"/>
<path d="M18.6141 80.4563C18.6948 80.3965 18.7589 80.3169 18.8 80.2252C18.8412 80.1335 18.8582 80.0327 18.8492 79.9326C18.8403 79.8325 18.8058 79.7363 18.7491 79.6533C18.6924 79.5703 18.6152 79.5033 18.5252 79.4587C18.4317 79.4118 18.3294 79.385 18.2249 79.3801C18.1204 79.3751 18.016 79.3921 17.9185 79.4299C17.7971 79.4787 17.6947 79.5654 17.6264 79.6769C17.5581 79.7885 17.5275 79.9191 17.5391 80.0494C17.5507 80.1797 17.6039 80.3028 17.6909 80.4005C17.7779 80.4982 17.894 80.5653 18.0221 80.592C18.1248 80.6117 18.2304 80.6098 18.3323 80.5864C18.4343 80.5631 18.5302 80.5188 18.6141 80.4563Z" fill="#C29C5B"/>
<path d="M14.0124 30.7849L14.039 30.766C14.1008 30.7269 14.1542 30.6759 14.1962 30.6161C14.2382 30.5563 14.2679 30.4888 14.2837 30.4174C14.2995 30.3461 14.3011 30.2723 14.2883 30.2004C14.2755 30.1284 14.2486 30.0597 14.2092 29.9982C14.1941 29.9166 14.1585 29.8402 14.1057 29.7762C14.0529 29.7122 13.9848 29.6626 13.9076 29.6322L13.8771 29.622C13.7572 29.572 13.6249 29.5603 13.4982 29.5882C13.3714 29.6162 13.2563 29.6826 13.1687 29.7784C13.1029 29.8593 13.0561 29.9539 13.0318 30.0553C13.0076 30.1567 13.0064 30.2622 13.0284 30.3641C13.0504 30.466 13.095 30.5616 13.159 30.644C13.2229 30.7263 13.3046 30.7932 13.3979 30.8397C13.4959 30.8862 13.6046 30.9057 13.7126 30.896C13.8207 30.8864 13.9242 30.848 14.0124 30.7849Z" fill="#C29C5B"/>
<path d="M10.4677 35.6062C10.5585 35.5744 10.6457 35.5331 10.7277 35.4828C10.8068 35.4257 10.8696 35.349 10.9101 35.2603C10.9506 35.1716 10.9674 35.0739 10.9587 34.9768C10.9501 34.8796 10.9163 34.7864 10.8607 34.7063C10.8052 34.6261 10.7298 34.5618 10.6418 34.5196C10.5522 34.4846 10.4591 34.4593 10.3641 34.4441C10.2724 34.4275 10.1781 34.4322 10.0886 34.4579C9.99905 34.4837 9.91665 34.5297 9.84784 34.5925C9.77902 34.6554 9.72565 34.7332 9.69186 34.8201C9.65808 34.9069 9.6448 35.0004 9.65308 35.0932C9.66135 35.186 9.69094 35.2756 9.73955 35.3551C9.78816 35.4346 9.85448 35.5018 9.93332 35.5514C10.0122 35.6011 10.1014 35.6319 10.1941 35.6414C10.2868 35.6509 10.3804 35.6388 10.4677 35.6062Z" fill="#C29C5B"/>
<path d="M8.8675 41.13C8.90246 40.9312 8.90782 40.7282 8.88343 40.5278C8.87233 40.4348 8.83458 40.3469 8.77473 40.2748C8.71488 40.2027 8.63548 40.1495 8.54608 40.1215C8.45667 40.0934 8.36108 40.0918 8.27079 40.1169C8.1805 40.1419 8.09936 40.1925 8.03713 40.2625C7.92236 40.4198 7.83287 40.5941 7.7719 40.779C7.73748 40.8535 7.7193 40.9345 7.71853 41.0166C7.71777 41.0987 7.73444 41.18 7.76747 41.2552C7.80049 41.3303 7.84913 41.3976 7.91011 41.4525C7.9711 41.5075 8.04306 41.5489 8.12124 41.5739C8.19942 41.599 8.28201 41.6071 8.36358 41.5978C8.44514 41.5886 8.52381 41.5621 8.59436 41.5201C8.66491 41.4781 8.72576 41.4217 8.77285 41.3544C8.81993 41.2872 8.85219 41.2107 8.8675 41.13Z" fill="#C29C5B"/>
<path d="M10.929 44.8099C11.0024 44.8762 11.0922 44.9216 11.1891 44.9416C11.286 44.9616 11.3865 44.9554 11.4802 44.9237C11.5739 44.8919 11.6575 44.8357 11.7222 44.7609C11.787 44.686 11.8306 44.5953 11.8486 44.498C11.8706 44.3716 11.8588 44.2416 11.8144 44.1213C11.7669 44.0028 11.6832 43.9023 11.5751 43.8343C11.4671 43.7663 11.3403 43.7343 11.2129 43.7427L11.1781 43.7427C10.6311 43.7441 10.5389 44.3934 10.8402 44.722C10.8623 44.7498 10.8871 44.7753 10.9143 44.7982C10.9194 44.802 10.9237 44.8062 10.929 44.8099Z" fill="#C29C5B"/>
</svg>
