<svg width="291" height="274" viewBox="0 0 291 274" fill="none" xmlns="http://www.w3.org/2000/svg">
<g clip-path="url(#clip0_2511_8507)">
<g clip-path="url(#clip1_2511_8507)">
<g clip-path="url(#clip2_2511_8507)">
<path d="M299.139 260.691C302.934 262.559 307.316 262.845 311.322 261.486C315.328 260.127 318.632 257.235 320.508 253.443L336.048 221.954C336.835 220.356 336.956 218.511 336.383 216.825C335.811 215.138 334.592 213.748 332.995 212.959C331.397 212.171 329.552 212.049 327.865 212.621C326.178 213.193 324.787 214.411 323.998 216.008L308.459 247.497C308.303 247.812 308.083 248.091 307.813 248.316C307.542 248.541 307.228 248.706 306.889 248.801L306.287 248.899C305.852 248.915 305.42 248.817 305.033 248.616C304.647 248.414 304.32 248.116 304.083 247.75C303.847 247.384 303.709 246.962 303.684 246.527C303.659 246.092 303.748 245.658 303.941 245.268L305.808 241.484C306.198 240.693 306.429 239.833 306.487 238.952C306.545 238.072 306.429 237.189 306.145 236.353C305.862 235.518 305.417 234.746 304.835 234.083C304.254 233.419 303.547 232.877 302.756 232.486C301.965 232.096 301.104 231.865 300.224 231.807C299.344 231.749 298.461 231.865 297.625 232.149C296.79 232.432 296.018 232.877 295.355 233.459C294.691 234.04 294.149 234.747 293.758 235.538L291.891 239.321C290.024 243.117 289.738 247.499 291.096 251.505C292.455 255.511 295.347 258.815 299.139 260.691ZM300.997 256.926C299.782 256.327 298.68 255.522 297.741 254.546L306.875 253.058C307.171 253.029 307.465 252.981 307.754 252.914L316.816 251.438L316.743 251.585C315.36 254.379 312.926 256.51 309.974 257.511C307.022 258.512 303.794 258.302 300.997 256.926ZM322.241 229.058L328.351 228.062L324.69 235.482L318.579 236.478L322.241 229.058ZM331.138 216.722C331.737 217.018 332.193 217.54 332.408 218.172C332.622 218.805 332.577 219.497 332.282 220.096L330.634 223.436L324.524 224.432L327.764 217.866C328.06 217.268 328.582 216.811 329.214 216.596C329.847 216.382 330.539 216.427 331.138 216.722ZM316.296 241.104L322.407 240.108L319.098 246.812L312.988 247.807L316.296 241.104ZM295.268 250.695C294.51 248.774 294.271 246.687 294.573 244.644L300.026 243.756C299.61 244.733 299.432 245.795 299.507 246.854C299.581 247.914 299.906 248.941 300.455 249.85L295.268 250.695ZM300.898 236.252C301.417 236.509 301.832 236.936 302.073 237.463C302.314 237.99 302.366 238.583 302.222 239.144L296.175 240.129L297.524 237.396C297.82 236.798 298.342 236.341 298.974 236.126C299.607 235.912 300.299 235.957 300.898 236.252Z" fill="#84ABB1" fill-opacity="0.15"/>
<path d="M67.0585 63.22L61.3783 44.5776C61.2939 44.3005 61.2885 44.0053 61.363 43.7253C61.4374 43.4453 61.5886 43.1917 61.7995 42.9931C62.0104 42.7945 62.2726 42.6588 62.5565 42.6013C62.8404 42.5438 63.1348 42.5667 63.4063 42.6676L65.7555 43.5406C66.027 43.6415 66.3214 43.6644 66.6053 43.6069C66.8893 43.5494 67.1515 43.4137 67.3624 43.2151C67.5732 43.0165 67.7244 42.7629 67.7988 42.4829C67.8733 42.2029 67.868 41.9077 67.7835 41.6306L61.457 20.8663C61.3725 20.5892 61.3672 20.294 61.4417 20.014C61.5161 19.7341 61.6674 19.4805 61.8783 19.2819C62.0892 19.0833 62.3514 18.9476 62.6353 18.8901C62.9193 18.8326 63.2137 18.8556 63.4852 18.9565C63.7568 19.0574 64.051 19.0804 64.335 19.0229C64.6189 18.9654 64.8811 18.8297 65.092 18.6311C65.3029 18.4325 65.4541 18.1788 65.5286 17.8989C65.603 17.6189 65.5976 17.3237 65.5132 17.0466L60.9858 2.18719C60.9161 1.95838 60.7945 1.74875 60.6305 1.57462C60.4665 1.40049 60.2645 1.26655 60.0403 1.18325C59.8161 1.09994 59.5757 1.06951 59.3378 1.09432C59.0999 1.11914 58.8709 1.19853 58.6687 1.32631L45.5368 9.62408C45.2919 9.77883 45.0951 9.99896 44.9687 10.2596C44.8422 10.5203 44.7911 10.8111 44.8212 11.0992C44.8512 11.3874 44.9612 11.6614 45.1387 11.8903C45.3162 12.1193 45.5542 12.294 45.8258 12.3949C46.0973 12.4958 46.3353 12.6706 46.5128 12.8996C46.6903 13.1285 46.8003 13.4025 46.8303 13.6907C46.8603 13.9788 46.8093 14.2696 46.6828 14.5302C46.5564 14.7909 46.3596 15.011 46.1147 15.1658L27.7645 26.7608C27.5196 26.9155 27.3228 27.1356 27.1963 27.3963C27.0699 27.6569 27.0188 27.9477 27.0488 28.2358C27.0789 28.524 27.1888 28.798 27.3663 29.027C27.5438 29.2559 27.7818 29.4307 28.0533 29.5316L30.4024 30.4045C30.6739 30.5054 30.9119 30.6802 31.0894 30.9092C31.2669 31.1382 31.3769 31.4122 31.4069 31.7003C31.4369 31.9884 31.3859 32.2792 31.2594 32.5399C31.133 32.8005 30.9361 33.0206 30.6912 33.1754L14.2162 43.5857C13.9713 43.7404 13.7745 43.9605 13.648 44.2212C13.5216 44.4818 13.4705 44.7726 13.5006 45.0608C13.5306 45.3489 13.6406 45.6229 13.8181 45.8519C13.9956 46.0808 14.2335 46.2556 14.5051 46.3565L32.4402 53.0206C32.8265 53.1642 33.1401 53.4553 33.3118 53.8301C33.4835 54.2048 33.4993 54.6324 33.3557 55.0188L31.1691 60.9038C31.0256 61.2902 31.0414 61.7178 31.2131 62.0925C31.3848 62.4672 31.6984 62.7584 32.0847 62.902L40.9119 66.182C41.2983 66.3256 41.726 66.3098 42.1007 66.1381C42.4755 65.9664 42.7667 65.6529 42.9103 65.2664L45.0968 59.3814C45.2405 58.995 45.5316 58.6815 45.9064 58.5098C46.2812 58.3381 46.7088 58.3223 47.0952 58.4659L65.0303 65.1299C65.3019 65.2308 65.5963 65.2538 65.8802 65.1963C66.1641 65.1388 66.4263 65.0031 66.6372 64.8045C66.8481 64.6059 66.9994 64.3523 67.0738 64.0723C67.1482 63.7923 67.1429 63.4971 67.0585 63.22ZM39.9108 31.756C39.2941 31.5268 38.7592 31.12 38.3738 30.5868C37.9883 30.0537 37.7696 29.4183 37.7453 28.7608C37.721 28.1034 37.8922 27.4535 38.2372 26.8934C38.5823 26.3333 39.0857 25.888 39.6837 25.614C40.2818 25.34 40.9477 25.2494 41.5973 25.3539C42.2468 25.4583 42.8508 25.753 43.3328 26.2006C43.8149 26.6483 44.1534 27.2289 44.3055 27.869C44.4576 28.509 44.4165 29.1798 44.1873 29.7965C43.88 30.6234 43.2569 31.2944 42.4549 31.6619C41.6529 32.0294 40.7377 32.0632 39.9108 31.756ZM53.1011 41.7549C52.4844 41.5257 51.9496 41.1189 51.5642 40.5857C51.1788 40.0526 50.96 39.4171 50.9357 38.7597C50.9115 38.1023 51.0827 37.4524 51.4278 36.8923C51.7728 36.3322 52.2762 35.8869 52.8743 35.6129C53.4724 35.3389 54.1383 35.2483 54.7878 35.3528C55.4373 35.4572 56.0413 35.7519 56.5234 36.1996C57.0054 36.6473 57.3439 37.2278 57.496 37.8679C57.6481 38.508 57.607 39.1787 57.3778 39.7954C57.2257 40.2049 56.9944 40.5804 56.6971 40.9005C56.3999 41.2206 56.0425 41.479 55.6453 41.6609C55.2482 41.8429 54.8191 41.9448 54.3826 41.961C53.9461 41.9771 53.5106 41.9071 53.1011 41.7549ZM40.5708 44.0315C39.9542 43.8023 39.4193 43.3955 39.0339 42.8624C38.6484 42.3292 38.4297 41.6938 38.4054 41.0363C38.3811 40.3789 38.5523 39.729 38.8973 39.1689C39.2424 38.6088 39.7457 38.1635 40.3438 37.8895C40.9419 37.6155 41.6078 37.5249 42.2574 37.6294C42.9069 37.7338 43.5109 38.0285 43.9929 38.4762C44.475 38.9238 44.8135 39.5044 44.9656 40.1445C45.1177 40.7845 45.0765 41.4553 44.8474 42.072C44.5401 42.8989 43.9169 43.5699 43.1149 43.9374C42.3129 44.3048 41.3978 44.3387 40.5708 44.0315ZM41.1745 55.7999C40.5578 55.5708 40.023 55.1639 39.6375 54.6308C39.2521 54.0976 39.0334 53.4622 39.0091 52.8047C38.9848 52.1473 39.1561 51.4974 39.5011 50.9373C39.8462 50.3772 40.3495 49.932 40.9476 49.6579C41.5457 49.3839 42.2116 49.2934 42.8611 49.3978C43.5107 49.5022 44.1147 49.7969 44.5967 50.2446C45.0788 50.6923 45.4173 51.2729 45.5694 51.9129C45.7214 52.553 45.6803 53.2238 45.4512 53.8405C45.1439 54.6674 44.5207 55.3384 43.7187 55.7059C42.9166 56.0734 42.0015 56.1072 41.1745 55.7999ZM53.1881 28.0147C52.5715 27.7856 52.0366 27.3787 51.6511 26.8455C51.2657 26.3124 51.047 25.6769 51.0228 25.0195C50.9985 24.3621 51.1697 23.7122 51.5147 23.1521C51.8598 22.592 52.3632 22.1467 52.9613 21.8727C53.5594 21.5987 54.2253 21.5081 54.8748 21.6126C55.5244 21.717 56.1283 22.0117 56.6104 22.4594C57.0924 22.9071 57.4309 23.4876 57.583 24.1277C57.7351 24.7678 57.694 25.4385 57.4649 26.0552C57.3127 26.4647 57.0814 26.8402 56.7842 27.1603C56.4869 27.4805 56.1295 27.7389 55.7324 27.9208C55.3352 28.1028 54.9061 28.2047 54.4696 28.2208C54.0331 28.2369 53.5976 28.1669 53.1881 28.0147ZM54.1202 17.1162C53.5035 16.887 52.9687 16.4802 52.5832 15.9471C52.1978 15.4139 51.979 14.7785 51.9547 14.121C51.9304 13.4636 52.1016 12.8138 52.4467 12.2536C52.7917 11.6935 53.2951 11.2483 53.8932 10.9742C54.4913 10.7002 55.1572 10.6096 55.8067 10.7141C56.4563 10.8185 57.0602 11.1132 57.5423 11.5609C58.0243 12.0085 58.3628 12.5891 58.5149 13.2292C58.667 13.8692 58.6259 14.54 58.3968 15.1567C58.2446 15.5662 58.0133 15.9417 57.7161 16.2617C57.4188 16.5818 57.0614 16.8402 56.6643 17.0222C56.2672 17.2041 55.8381 17.3061 55.4016 17.3222C54.9651 17.3383 54.5297 17.2683 54.1202 17.1162ZM54.3112 57.5616C53.6946 57.3325 53.1596 56.9257 52.7742 56.3925C52.3887 55.8594 52.1701 55.2239 52.1458 54.5665C52.1215 53.9091 52.2927 53.2592 52.6377 52.6991C52.9828 52.139 53.4861 51.6937 54.0842 51.4197C54.6823 51.1456 55.3482 51.0551 55.9978 51.1595C56.6473 51.264 57.2513 51.5586 57.7333 52.0063C58.2154 52.454 58.5539 53.0346 58.706 53.6746C58.8581 54.3147 58.8169 54.9855 58.5878 55.6022C58.4357 56.0116 58.2043 56.3871 57.9071 56.7072C57.6098 57.0272 57.2524 57.2856 56.8553 57.4676C56.4582 57.6495 56.0292 57.7515 55.5927 57.7676C55.1561 57.7837 54.7207 57.7138 54.3112 57.5616ZM27.3551 47.3094C26.7384 47.0802 26.2035 46.6733 25.8181 46.1402C25.4326 45.6071 25.2139 44.9716 25.1896 44.3141C25.1654 43.6567 25.3365 43.0068 25.6816 42.4467C26.0267 41.8865 26.5301 41.4413 27.1282 41.1673C27.7263 40.8933 28.3922 40.8028 29.0418 40.9072C29.6913 41.0117 30.2953 41.3064 30.7774 41.7541C31.2594 42.2018 31.5978 42.7824 31.7499 43.4225C31.902 44.0626 31.8608 44.7334 31.6316 45.3501C31.3243 46.177 30.7012 46.848 29.8992 47.2154C29.0972 47.5828 28.1821 47.6166 27.3551 47.3094Z" fill="#84ABB1" fill-opacity="0.15"/>
<path d="M170.28 215.745L151.929 209.183C151.657 209.085 151.417 208.914 151.236 208.687C151.056 208.46 150.943 208.187 150.909 207.9C150.875 207.612 150.923 207.32 151.046 207.058C151.169 206.796 151.364 206.574 151.607 206.416L153.708 205.051C153.951 204.893 154.145 204.671 154.269 204.409C154.392 204.147 154.439 203.855 154.406 203.567C154.372 203.28 154.259 203.007 154.079 202.78C153.898 202.554 153.658 202.382 153.385 202.284L132.946 194.975C132.674 194.877 132.434 194.706 132.253 194.479C132.073 194.252 131.96 193.979 131.926 193.692C131.892 193.404 131.94 193.112 132.063 192.85C132.186 192.588 132.381 192.366 132.624 192.208C132.867 192.05 133.061 191.828 133.184 191.565C133.307 191.303 133.355 191.012 133.321 190.724C133.287 190.436 133.174 190.164 132.994 189.937C132.813 189.71 132.573 189.538 132.301 189.441L117.674 184.21C117.449 184.129 117.208 184.102 116.97 184.13C116.733 184.157 116.505 184.24 116.304 184.37C116.103 184.5 115.936 184.675 115.814 184.881C115.692 185.086 115.619 185.317 115.601 185.556L114.426 201.045C114.404 201.334 114.464 201.623 114.598 201.88C114.731 202.137 114.934 202.352 115.183 202.5C115.433 202.647 115.718 202.723 116.008 202.717C116.297 202.711 116.58 202.624 116.823 202.466C117.066 202.309 117.348 202.222 117.637 202.216C117.927 202.21 118.213 202.285 118.462 202.433C118.711 202.581 118.914 202.795 119.048 203.052C119.181 203.309 119.241 203.599 119.219 203.887L117.578 225.532C117.556 225.821 117.615 226.11 117.749 226.367C117.883 226.624 118.086 226.839 118.335 226.986C118.584 227.134 118.869 227.209 119.159 227.203C119.449 227.198 119.731 227.111 119.974 226.953L122.076 225.589C122.319 225.431 122.601 225.344 122.891 225.338C123.18 225.332 123.466 225.407 123.715 225.555C123.964 225.703 124.167 225.917 124.301 226.174C124.435 226.431 124.494 226.721 124.472 227.01L122.999 246.442C122.977 246.731 123.036 247.02 123.17 247.277C123.304 247.534 123.506 247.749 123.756 247.897C124.005 248.044 124.29 248.12 124.58 248.114C124.87 248.108 125.152 248.021 125.395 247.863L141.442 237.445C141.614 237.334 141.805 237.257 142.006 237.22C142.207 237.183 142.413 237.186 142.612 237.228C142.812 237.27 143.001 237.352 143.169 237.467C143.338 237.583 143.481 237.731 143.592 237.902L147.011 243.167C147.236 243.513 147.588 243.756 147.991 243.841C148.395 243.927 148.815 243.849 149.161 243.625L157.06 238.497C157.231 238.386 157.378 238.242 157.494 238.074C157.61 237.905 157.691 237.716 157.733 237.516C157.776 237.317 157.778 237.111 157.741 236.91C157.704 236.709 157.628 236.518 157.517 236.347L154.098 231.081C153.874 230.735 153.796 230.315 153.881 229.911C153.967 229.508 154.21 229.156 154.555 228.931L170.603 218.512C170.846 218.355 171.04 218.132 171.163 217.87C171.286 217.608 171.334 217.316 171.3 217.029C171.267 216.741 171.153 216.468 170.973 216.242C170.793 216.015 170.553 215.843 170.28 215.745ZM128.833 218.764C128.281 219.122 127.635 219.308 126.977 219.3C126.32 219.291 125.679 219.087 125.137 218.715C124.595 218.342 124.175 217.817 123.932 217.206C123.688 216.595 123.631 215.925 123.768 215.282C123.905 214.638 124.229 214.05 124.701 213.591C125.172 213.132 125.769 212.823 126.416 212.703C127.062 212.583 127.73 212.658 128.335 212.918C128.939 213.177 129.453 213.611 129.811 214.162C130.292 214.902 130.458 215.803 130.275 216.666C130.091 217.528 129.573 218.283 128.833 218.764ZM144.726 214.142C144.175 214.5 143.529 214.687 142.871 214.678C142.213 214.67 141.573 214.466 141.031 214.093C140.489 213.721 140.069 213.195 139.825 212.584C139.582 211.973 139.525 211.304 139.662 210.66C139.798 210.017 140.123 209.428 140.594 208.969C141.066 208.51 141.662 208.201 142.309 208.081C142.956 207.962 143.624 208.036 144.229 208.296C144.833 208.556 145.347 208.989 145.705 209.541C145.943 209.907 146.106 210.317 146.186 210.746C146.265 211.176 146.26 211.617 146.169 212.044C146.078 212.471 145.904 212.877 145.656 213.237C145.409 213.597 145.093 213.904 144.726 214.142ZM139.078 225.557C138.527 225.915 137.881 226.102 137.223 226.093C136.565 226.084 135.925 225.881 135.383 225.508C134.841 225.135 134.421 224.61 134.178 223.999C133.934 223.388 133.877 222.718 134.014 222.075C134.15 221.431 134.475 220.843 134.946 220.384C135.418 219.925 136.015 219.616 136.661 219.496C137.308 219.376 137.976 219.451 138.581 219.711C139.185 219.971 139.699 220.404 140.057 220.955C140.537 221.695 140.704 222.596 140.521 223.459C140.337 224.322 139.818 225.076 139.078 225.557ZM148.884 232.093C148.332 232.451 147.686 232.637 147.028 232.629C146.371 232.62 145.73 232.416 145.188 232.044C144.646 231.671 144.227 231.146 143.983 230.535C143.739 229.924 143.682 229.254 143.819 228.611C143.956 227.967 144.28 227.379 144.752 226.92C145.223 226.461 145.82 226.152 146.467 226.032C147.113 225.912 147.781 225.987 148.386 226.247C148.99 226.506 149.504 226.94 149.862 227.491C150.1 227.858 150.264 228.267 150.343 228.697C150.423 229.126 150.417 229.567 150.326 229.995C150.235 230.422 150.061 230.827 149.813 231.187C149.566 231.547 149.25 231.855 148.884 232.093ZM133.751 205.876C133.199 206.234 132.553 206.42 131.896 206.412C131.238 206.403 130.597 206.199 130.055 205.827C129.513 205.454 129.094 204.929 128.85 204.318C128.606 203.707 128.549 203.037 128.686 202.394C128.823 201.75 129.147 201.162 129.619 200.703C130.09 200.244 130.687 199.935 131.334 199.815C131.981 199.695 132.648 199.77 133.253 200.03C133.857 200.289 134.371 200.723 134.729 201.274C135.21 202.014 135.377 202.915 135.193 203.778C135.01 204.64 134.491 205.395 133.751 205.876ZM125.56 198.626C125.008 198.984 124.362 199.171 123.705 199.162C123.047 199.153 122.406 198.95 121.864 198.577C121.322 198.204 120.903 197.679 120.659 197.068C120.415 196.457 120.358 195.788 120.495 195.144C120.632 194.501 120.957 193.912 121.428 193.453C121.899 192.994 122.496 192.685 123.143 192.566C123.79 192.446 124.458 192.52 125.062 192.78C125.666 193.04 126.18 193.473 126.538 194.025C126.776 194.391 126.94 194.801 127.019 195.23C127.099 195.66 127.093 196.101 127.002 196.528C126.911 196.955 126.737 197.361 126.49 197.72C126.242 198.08 125.926 198.388 125.56 198.626ZM158.134 222.6C157.583 222.959 156.937 223.145 156.279 223.136C155.621 223.128 154.981 222.924 154.439 222.552C153.897 222.179 153.477 221.654 153.233 221.043C152.99 220.432 152.933 219.762 153.069 219.119C153.206 218.475 153.531 217.887 154.002 217.428C154.474 216.969 155.07 216.66 155.717 216.54C156.364 216.42 157.032 216.495 157.636 216.755C158.241 217.014 158.755 217.447 159.113 217.999C159.593 218.739 159.76 219.64 159.577 220.502C159.393 221.365 158.874 222.12 158.134 222.6ZM133.825 238.119C133.274 238.477 132.628 238.664 131.97 238.655C131.312 238.646 130.672 238.443 130.13 238.07C129.588 237.697 129.168 237.172 128.925 236.561C128.681 235.95 128.624 235.28 128.761 234.637C128.897 233.993 129.222 233.405 129.693 232.946C130.165 232.487 130.762 232.178 131.408 232.058C132.055 231.938 132.723 232.013 133.328 232.273C133.932 232.533 134.446 232.966 134.804 233.518C135.042 233.884 135.205 234.294 135.285 234.723C135.364 235.153 135.359 235.594 135.268 236.021C135.177 236.448 135.003 236.853 134.755 237.213C134.508 237.573 134.192 237.881 133.825 238.119Z" fill="#84ABB1" fill-opacity="0.15"/>
<path d="M179.416 48.4252L183.137 67.5551C183.193 67.8394 183.167 68.1336 183.064 68.4044C182.961 68.6752 182.785 68.9118 182.555 69.0875C182.324 69.2632 182.049 69.3711 181.761 69.399C181.473 69.4268 181.182 69.3735 180.923 69.245L178.677 68.1338C178.417 68.0054 178.126 67.9521 177.838 67.9799C177.55 68.0078 177.275 68.1156 177.045 68.2914C176.814 68.4671 176.638 68.7037 176.535 68.9745C176.432 69.2453 176.406 69.5394 176.462 69.8238L180.607 91.131C180.662 91.4154 180.637 91.7096 180.534 91.9804C180.431 92.2511 180.254 92.4877 180.024 92.6635C179.793 92.8392 179.519 92.947 179.23 92.9749C178.942 93.0027 178.651 92.9493 178.392 92.8208C178.132 92.6924 177.842 92.6391 177.553 92.6669C177.265 92.6948 176.99 92.8027 176.76 92.9784C176.529 93.1541 176.353 93.3907 176.25 93.6615C176.147 93.9323 176.122 94.2265 176.177 94.5108L179.143 109.759C179.189 109.994 179.288 110.215 179.433 110.405C179.578 110.595 179.765 110.749 179.98 110.855C180.194 110.961 180.43 111.016 180.669 111.016C180.909 111.016 181.145 110.961 181.359 110.855L195.279 103.96C195.538 103.831 195.757 103.633 195.909 103.386C196.062 103.14 196.143 102.856 196.143 102.567C196.143 102.277 196.062 101.993 195.909 101.747C195.756 101.501 195.537 101.302 195.278 101.174C195.018 101.045 194.8 100.847 194.647 100.601C194.494 100.355 194.413 100.071 194.413 99.7812C194.413 99.4915 194.494 99.2075 194.646 98.9614C194.799 98.7152 195.018 98.5167 195.277 98.3881L214.728 88.7531C214.988 88.6245 215.206 88.426 215.359 88.1798C215.512 87.9336 215.593 87.6497 215.593 87.36C215.592 87.0703 215.511 86.7864 215.359 86.5403C215.206 86.2942 214.987 86.0958 214.727 85.9674L212.481 84.8561C212.222 84.7277 212.003 84.5292 211.85 84.2831C211.697 84.0371 211.616 83.7532 211.616 83.4635C211.616 83.1738 211.697 82.8899 211.85 82.6437C212.002 82.3975 212.221 82.199 212.481 82.0704L229.944 73.4198C230.204 73.2913 230.422 73.0927 230.575 72.8465C230.728 72.6004 230.808 72.3164 230.808 72.0267C230.808 71.7371 230.727 71.4532 230.574 71.2071C230.422 70.961 230.203 70.7625 229.943 70.6341L212.793 62.1506C212.424 61.9678 212.142 61.6458 212.01 61.2553C211.878 60.8648 211.907 60.4379 212.09 60.0685L214.873 54.4412C214.964 54.2583 215.017 54.0593 215.031 53.8556C215.045 53.652 215.018 53.4476 214.952 53.2542C214.887 53.0609 214.784 52.8823 214.65 52.7287C214.516 52.575 214.352 52.4494 214.169 52.3589L205.729 48.1835C205.546 48.093 205.347 48.0394 205.143 48.0258C204.939 48.0122 204.735 48.0389 204.542 48.1042C204.348 48.1696 204.17 48.2724 204.016 48.4068C203.863 48.5412 203.737 48.7045 203.646 48.8875L200.863 54.5147C200.772 54.6977 200.647 54.861 200.493 54.9954C200.339 55.1298 200.161 55.2326 199.967 55.298C199.774 55.3633 199.57 55.39 199.366 55.3764C199.162 55.3627 198.963 55.3092 198.78 55.2186L181.631 46.7353C181.371 46.6069 181.081 46.5536 180.792 46.5814C180.504 46.6092 180.229 46.7171 179.999 46.8928C179.769 47.0685 179.592 47.3051 179.489 47.5759C179.386 47.8466 179.361 48.1408 179.416 48.4252ZM203.164 82.5284C203.753 82.8201 204.243 83.2801 204.572 83.8502C204.9 84.4204 205.052 85.075 205.008 85.7314C204.964 86.3879 204.727 87.0166 204.325 87.538C203.924 88.0595 203.378 88.4503 202.754 88.661C202.131 88.8717 201.459 88.8929 200.824 88.7219C200.189 88.5509 199.619 88.1953 199.185 87.7002C198.752 87.205 198.476 86.5925 198.391 85.9402C198.306 85.2878 198.416 84.6249 198.707 84.0352C199.099 83.2445 199.788 82.6415 200.624 82.3589C201.459 82.0763 202.373 82.1373 203.164 82.5284ZM191.078 71.2187C191.668 71.5104 192.158 71.9704 192.486 72.5406C192.814 73.1107 192.966 73.7654 192.922 74.4218C192.878 75.0782 192.641 75.7069 192.24 76.2284C191.839 76.7498 191.292 77.1406 190.669 77.3513C190.045 77.562 189.374 77.5832 188.739 77.4121C188.103 77.2411 187.533 76.8855 187.1 76.3903C186.667 75.8951 186.39 75.2827 186.305 74.6303C186.22 73.9779 186.33 73.315 186.622 72.7253C187.013 71.9346 187.702 71.3317 188.538 71.0492C189.374 70.7666 190.287 70.8276 191.078 71.2187ZM203.777 70.2506C204.366 70.5423 204.856 71.0023 205.185 71.5724C205.513 72.1426 205.665 72.7972 205.621 73.4536C205.577 74.11 205.339 74.7387 204.938 75.2601C204.537 75.7816 203.99 76.1723 203.367 76.383C202.744 76.5937 202.072 76.6149 201.437 76.4438C200.802 76.2728 200.232 75.9172 199.798 75.4221C199.365 74.9269 199.089 74.3145 199.004 73.6621C198.919 73.0098 199.029 72.3469 199.32 71.7572C199.514 71.3657 199.783 71.0161 200.112 70.7285C200.441 70.4409 200.823 70.2208 201.237 70.0809C201.65 69.941 202.088 69.884 202.524 69.9131C202.959 69.9422 203.385 70.0569 203.777 70.2506ZM204.394 58.4829C204.983 58.7746 205.473 59.2346 205.801 59.8047C206.13 60.3749 206.281 61.0295 206.238 61.6859C206.194 62.3423 205.956 62.971 205.555 63.4924C205.154 64.0138 204.607 64.4046 203.984 64.6153C203.361 64.826 202.689 64.8472 202.054 64.6761C201.419 64.505 200.848 64.1495 200.415 63.6543C199.982 63.1592 199.705 62.5467 199.62 61.8944C199.535 61.242 199.646 60.5791 199.937 59.9894C200.131 59.5979 200.4 59.2483 200.729 58.9607C201.057 58.6731 201.44 58.4531 201.853 58.3132C202.267 58.1733 202.705 58.1162 203.14 58.1454C203.576 58.1745 204.002 58.2892 204.394 58.4829ZM189.571 84.8762C190.16 85.1679 190.65 85.6279 190.978 86.1981C191.307 86.7682 191.458 87.4229 191.414 88.0794C191.371 88.7358 191.133 89.3645 190.732 89.8859C190.331 90.4074 189.784 90.7981 189.161 91.0088C188.538 91.2195 187.866 91.2407 187.231 91.0696C186.595 90.8986 186.025 90.543 185.592 90.0478C185.159 89.5526 184.882 88.9401 184.797 88.2878C184.712 87.6354 184.822 86.9725 185.114 86.3828C185.308 85.9912 185.577 85.6417 185.905 85.354C186.234 85.0664 186.616 84.8464 187.03 84.7065C187.444 84.5666 187.881 84.5095 188.317 84.5386C188.753 84.5678 189.179 84.6825 189.571 84.8762ZM187.516 95.6199C188.106 95.9116 188.596 96.3716 188.924 96.9417C189.252 97.5118 189.404 98.1665 189.36 98.8229C189.317 99.4794 189.079 100.108 188.678 100.629C188.277 101.151 187.73 101.542 187.107 101.752C186.484 101.963 185.812 101.984 185.177 101.813C184.541 101.642 183.971 101.287 183.538 100.792C183.105 100.296 182.828 99.684 182.743 99.0317C182.658 98.3793 182.768 97.7164 183.06 97.1267C183.451 96.3359 184.14 95.733 184.976 95.4504C185.812 95.1678 186.725 95.2288 187.516 95.6199ZM191.51 55.3717C192.099 55.6634 192.589 56.1234 192.917 56.6935C193.246 57.2637 193.398 57.9183 193.354 58.5748C193.31 59.2312 193.072 59.8599 192.671 60.3813C192.27 60.9028 191.723 61.2935 191.1 61.5043C190.477 61.715 189.805 61.7361 189.17 61.5651C188.535 61.394 187.964 61.0384 187.531 60.5433C187.098 60.0481 186.821 59.4356 186.736 58.7832C186.651 58.1309 186.762 57.4679 187.053 56.8783C187.444 56.0876 188.134 55.4846 188.969 55.2021C189.805 54.9195 190.719 54.9806 191.51 55.3717ZM217.261 68.357C217.85 68.6487 218.34 69.1087 218.669 69.6788C218.997 70.249 219.149 70.9037 219.105 71.5601C219.061 72.2165 218.824 72.8452 218.422 73.3667C218.021 73.8881 217.475 74.2789 216.851 74.4896C216.228 74.7004 215.556 74.7215 214.921 74.5505C214.286 74.3795 213.716 74.0239 213.282 73.5287C212.849 73.0336 212.573 72.4211 212.487 71.7688C212.402 71.1164 212.513 70.4535 212.804 69.8638C213.195 69.073 213.885 68.47 214.72 68.1874C215.556 67.9049 216.47 67.9659 217.261 68.357Z" fill="#84ABB1" fill-opacity="0.15"/>
<path d="M244.376 104.145C241.662 107.39 240.347 111.579 240.718 115.793C241.089 120.007 243.117 123.902 246.356 126.623L273.269 149.178C274.634 150.323 276.399 150.878 278.174 150.722C279.948 150.565 281.589 149.71 282.733 148.345C283.878 146.979 284.433 145.215 284.276 143.44C284.12 141.665 283.265 140.025 281.899 138.88L254.987 116.325C254.717 116.099 254.498 115.819 254.344 115.503C254.19 115.187 254.104 114.843 254.091 114.491L254.139 113.883C254.227 113.456 254.424 113.059 254.712 112.732C254.999 112.404 255.366 112.157 255.778 112.014C256.19 111.871 256.631 111.837 257.06 111.916C257.488 111.994 257.889 112.183 258.223 112.463L261.457 115.173C262.822 116.317 264.587 116.873 266.362 116.716C268.136 116.56 269.777 115.705 270.921 114.339C272.066 112.974 272.621 111.209 272.464 109.434C272.308 107.659 271.453 106.019 270.087 104.875L266.854 102.165C263.609 99.4513 259.419 98.1358 255.205 98.507C250.991 98.8781 247.097 100.906 244.376 104.145ZM247.594 106.842C248.463 105.803 249.506 104.924 250.677 104.242L249.96 113.469C249.917 113.763 249.894 114.06 249.89 114.357L249.179 123.51L249.053 123.405C246.666 121.4 245.172 118.53 244.899 115.425C244.625 112.32 245.595 109.233 247.594 106.842ZM269.637 134.082L269.157 140.254L262.816 134.939L263.296 128.767L269.637 134.082ZM279.515 145.648C279.085 146.159 278.47 146.479 277.805 146.538C277.14 146.596 276.478 146.389 275.966 145.96L273.111 143.568L273.591 137.395L279.202 142.098C279.714 142.528 280.034 143.143 280.093 143.808C280.151 144.474 279.943 145.135 279.515 145.648ZM259.342 125.453L258.862 131.625L253.133 126.824L253.612 120.652L259.342 125.453ZM255.004 102.752C257.05 102.471 259.134 102.732 261.047 103.51L260.619 109.017C259.768 108.382 258.778 107.958 257.732 107.779C256.685 107.601 255.61 107.673 254.597 107.991L255.004 102.752ZM267.703 111.642C267.33 112.086 266.817 112.387 266.248 112.497C265.679 112.606 265.09 112.517 264.58 112.243L265.055 106.135L267.39 108.093C267.902 108.523 268.222 109.138 268.281 109.803C268.339 110.468 268.132 111.13 267.703 111.642Z" fill="#84ABB1" fill-opacity="0.15"/>
<path d="M15.0763 260.691C18.8719 262.559 23.2535 262.845 27.2596 261.486C31.2658 260.127 34.5695 257.235 36.4458 253.443L51.9851 221.954C52.7726 220.356 52.8935 218.511 52.3209 216.825C51.7484 215.138 50.5295 213.748 48.9321 212.959C47.3348 212.171 45.4898 212.049 43.8028 212.621C42.1158 213.193 40.7248 214.411 39.9358 216.008L24.3965 247.497C24.2408 247.812 24.0206 248.091 23.7502 248.316C23.4799 248.541 23.1654 248.706 22.827 248.801L22.2248 248.899C21.7893 248.915 21.3572 248.817 20.9709 248.616C20.5845 248.414 20.257 248.116 20.0205 247.75C19.784 247.384 19.6466 246.962 19.6216 246.527C19.5966 246.092 19.685 245.658 19.8781 245.268L21.7451 241.484C22.5336 239.886 22.655 238.041 22.0828 236.353C21.5105 234.666 20.2913 233.275 18.6935 232.486C17.0957 231.698 15.25 231.576 13.5626 232.149C11.8752 232.721 10.4843 233.94 9.69578 235.538L7.82878 239.321C5.96106 243.117 5.67515 247.499 7.03385 251.505C8.39255 255.511 11.2849 258.815 15.0763 260.691ZM16.9345 256.926C15.7195 256.327 14.6177 255.522 13.6781 254.546L22.8131 253.058C23.1088 253.029 23.4023 252.981 23.6917 252.914L32.7532 251.438L32.6804 251.585C31.2979 254.379 28.8637 256.51 25.9117 257.511C22.9598 258.512 19.7313 258.302 16.9345 256.926ZM38.1783 229.058L44.2886 228.062L40.627 235.482L34.5169 236.478L38.1783 229.058ZM47.0754 216.722C47.6741 217.018 48.1308 217.54 48.3454 218.172C48.5599 218.805 48.5148 219.497 48.2198 220.096L46.5715 223.436L40.4614 224.432L43.7013 217.866C43.9975 217.268 44.5192 216.811 45.1517 216.596C45.7842 216.382 46.4761 216.427 47.0754 216.722ZM32.2338 241.104L38.3441 240.108L35.036 246.812L28.9258 247.807L32.2338 241.104ZM11.2059 250.695C10.4479 248.774 10.2081 246.687 10.5105 244.644L15.963 243.756C15.5473 244.733 15.3694 245.795 15.444 246.854C15.5186 247.914 15.8435 248.941 16.392 249.85L11.2059 250.695ZM16.8354 236.252C17.3544 236.509 17.7692 236.936 18.0102 237.463C18.2513 237.99 18.3038 238.583 18.1591 239.144L12.1126 240.129L13.4613 237.396C13.7575 236.798 14.2791 236.341 14.9116 236.126C15.5442 235.912 16.2361 235.957 16.8354 236.252Z" fill="#84ABB1" fill-opacity="0.15"/>
<path d="M148.779 0.743993L144.757 2.01659C143.058 2.55402 141.642 3.7443 140.821 5.32558C140 6.90685 139.84 8.74958 140.378 10.4484C140.915 12.1472 142.105 13.563 143.687 14.3842C145.268 15.2054 147.11 15.3648 148.809 14.8274L152.832 13.5548C153.247 13.4232 153.69 13.4016 154.116 13.4922C154.542 13.5828 154.938 13.7825 155.264 14.0716C155.59 14.3608 155.835 14.7296 155.976 15.142C156.117 15.5544 156.148 15.9962 156.067 16.4243L155.878 17.0049C155.733 17.3248 155.522 17.6107 155.259 17.8439C154.996 18.0772 154.687 18.2526 154.352 18.3588L120.873 28.9505C119.175 29.4894 117.762 30.68 116.942 32.2606C116.122 33.8412 115.963 35.6826 116.5 37.3803C117.037 39.0779 118.227 40.4929 119.806 41.3143C121.386 42.1358 123.227 42.2966 124.926 41.7613L158.405 31.1696C162.438 29.8923 165.8 27.0653 167.749 23.3101C169.699 19.5549 170.077 15.1791 168.801 11.1451C167.525 7.11101 164.698 3.74904 160.944 1.79853C157.189 -0.151973 152.813 -0.531294 148.779 0.743993ZM157.138 27.1661L156.981 27.2158L159.813 18.4823C159.923 18.2064 160.015 17.9235 160.088 17.6355L162.943 8.83138C164.086 10.3311 164.852 12.0839 165.175 13.9417C165.499 15.7996 165.37 17.708 164.801 19.5059C164.232 21.3038 163.239 22.9383 161.905 24.2716C160.571 25.6048 158.936 26.5976 157.138 27.1661ZM141.927 26.6937L140.017 32.5826L132.129 35.0782L134.038 29.1893L141.927 26.6937ZM122.139 32.9538L129.12 30.7454L127.21 36.6344L123.659 37.7578C123.022 37.9594 122.331 37.8996 121.738 37.5917C121.145 37.2837 120.699 36.7528 120.497 36.1158C120.295 35.4787 120.355 34.7877 120.663 34.1947C120.971 33.6017 121.502 33.1554 122.139 32.9538ZM153.972 22.8828L152.063 28.7717L144.936 31.0265L146.846 25.1375L153.972 22.8828ZM157.889 10.8028C157.074 10.1229 156.108 9.64628 155.072 9.41215C154.036 9.17802 152.959 9.19303 151.93 9.45596L153.634 4.20083C155.7 4.21125 157.726 4.76422 159.51 5.80436L157.889 10.8028ZM146.023 6.01989L148.929 5.10078L147.039 10.9283C146.419 10.9917 145.797 10.8227 145.294 10.454C144.791 10.0854 144.442 9.5433 144.316 8.93261C144.19 8.32193 144.294 7.68606 144.609 7.14803C144.925 6.60999 145.428 6.20802 146.023 6.01989Z" fill="#84ABB1" fill-opacity="0.15"/>
<path d="M271.632 217.323C272.131 216.448 272.434 215.475 272.52 214.472C272.605 213.468 272.471 212.458 272.126 211.512C271.782 210.565 271.235 209.705 270.525 208.991C269.814 208.278 268.957 207.727 268.012 207.378C266.103 206.664 264.002 206.655 262.087 207.352C260.172 208.049 258.568 209.407 257.565 211.181C257.295 211.678 257.082 212.204 256.929 212.749L241.173 202.069C240.662 201.723 240.034 201.593 239.428 201.71C238.822 201.826 238.287 202.179 237.94 202.69L231.376 212.373C231.03 212.884 230.901 213.512 231.017 214.118C231.134 214.724 231.486 215.259 231.997 215.606L232.99 216.279L228.519 222.875L224.028 219.831C221.883 218.38 219.249 217.841 216.706 218.331C214.163 218.82 211.918 220.3 210.465 222.444C209.011 224.587 208.469 227.221 208.956 229.764C209.442 232.308 210.919 234.555 213.061 236.011L224.723 243.915C227.356 245.696 230.588 246.359 233.71 245.76C236.832 245.161 239.588 243.348 241.375 240.718L250.086 227.867L250.969 228.465C251.222 228.637 251.506 228.757 251.806 228.819C252.105 228.88 252.414 228.882 252.714 228.825C253.014 228.767 253.3 228.651 253.555 228.483C253.811 228.315 254.03 228.098 254.202 227.845L259.422 220.144C259.512 220.211 259.6 220.28 259.694 220.344C260.16 220.659 260.66 220.921 261.185 221.126C263.094 221.839 265.195 221.849 267.11 221.152C269.025 220.454 270.629 219.097 271.632 217.323ZM240.488 207.229L255.606 217.476L251.654 223.306L250.771 222.707L237.529 213.731L236.536 213.058L240.488 207.229ZM265.518 216.777C264.671 217.102 263.735 217.107 262.885 216.792C262.555 216.684 262.254 216.503 262.005 216.262C261.755 216.021 261.564 215.726 261.445 215.4C261.326 215.074 261.283 214.725 261.319 214.38C261.356 214.034 261.47 213.702 261.653 213.407C262.114 212.63 262.83 212.036 263.679 211.727C264.529 211.418 265.459 211.412 266.312 211.712C266.509 211.789 266.698 211.887 266.874 212.006C267.275 212.27 267.583 212.654 267.752 213.104C267.862 213.432 267.9 213.779 267.864 214.123C267.828 214.467 267.719 214.798 267.543 215.096C267.095 215.884 266.375 216.482 265.518 216.777Z" fill="#84ABB1" fill-opacity="0.15"/>
<path d="M73.0342 100.021C73.081 102.062 73.8714 104.015 75.257 105.514C75.6416 105.925 76.0706 106.292 76.5361 106.608C76.6299 106.672 76.7268 106.729 76.8229 106.787L71.6086 114.492C71.2627 115.003 71.1339 115.631 71.2508 116.237C71.3677 116.844 71.7207 117.379 72.2319 117.725L73.1154 118.322L64.414 131.18C62.6355 133.815 61.9747 137.047 62.5765 140.169C63.1784 143.29 64.9937 146.045 67.6243 147.829L79.2921 155.725C80.355 156.445 81.5492 156.947 82.8064 157.205C84.0637 157.463 85.3594 157.471 86.6196 157.228C87.8798 156.985 89.0799 156.496 90.1512 155.789C91.2225 155.082 92.1441 154.172 92.8634 153.109C93.5827 152.046 94.0856 150.852 94.3434 149.594C94.6011 148.337 94.6088 147.041 94.3658 145.781C94.1228 144.521 93.6339 143.321 92.9272 142.25C92.2204 141.178 91.3096 140.257 90.2467 139.537L85.7542 136.497L90.2202 129.898L91.2135 130.57C91.4666 130.741 91.751 130.861 92.0504 130.922C92.3499 130.984 92.6586 130.985 92.9587 130.927C93.2589 130.87 93.5447 130.753 93.7998 130.585C94.055 130.417 94.2745 130.2 94.4459 129.946L101.002 120.258C101.348 119.747 101.477 119.119 101.36 118.513C101.243 117.907 100.89 117.372 100.379 117.026L84.6151 106.358C85.0642 106.014 85.4733 105.621 85.8349 105.186C87.1099 103.596 87.7756 101.603 87.7123 99.5657C87.649 97.5286 86.8609 95.5809 85.4896 94.0731C84.815 93.3253 83.9856 92.7333 83.0591 92.3385C82.1326 91.9436 81.1311 91.7553 80.1245 91.7865C79.1178 91.8178 78.1301 92.068 77.2299 92.5196C76.3296 92.9712 75.5386 93.6134 74.9117 94.4017C73.6219 95.9836 72.9543 97.982 73.0342 100.021ZM91.8948 125.409L90.9017 124.737L77.6524 115.771L76.7689 115.173L80.7159 109.341L95.8419 119.577L91.8948 125.409ZM78.4964 97.3723C78.7078 97.0989 78.9754 96.8742 79.2812 96.7133C79.587 96.5523 79.9239 96.459 80.2689 96.4396C80.7493 96.4296 81.2204 96.5723 81.6143 96.8473C81.7898 96.9667 81.9513 97.1053 82.0961 97.2604C82.6908 97.9411 83.0312 98.8068 83.0593 99.7102C83.0874 100.614 82.8014 101.499 82.2502 102.215C82.0448 102.495 81.7785 102.724 81.4714 102.886C81.1643 103.047 80.8244 103.137 80.4775 103.148C80.1307 103.159 79.7859 103.09 79.4693 102.948C79.1528 102.806 78.8726 102.594 78.6502 102.327C78.042 101.655 77.6997 100.784 77.6874 99.8773C77.6433 98.9718 77.9309 98.0809 78.4964 97.3723Z" fill="#84ABB1" fill-opacity="0.15"/>
<path d="M90.9812 16.4828C90.9812 17.3834 90.7142 18.2637 90.2139 19.0124C89.7136 19.7612 89.0024 20.3448 88.1705 20.6894C87.3385 21.034 86.423 21.1242 85.5398 20.9485C84.6566 20.7728 83.8453 20.3392 83.2085 19.7024C82.5718 19.0656 82.1382 18.2543 81.9625 17.3711C81.7868 16.4879 81.877 15.5724 82.2216 14.7404C82.5662 13.9084 83.1497 13.1973 83.8985 12.697C84.6472 12.1967 85.5276 11.9297 86.4281 11.9297C87.6357 11.9297 88.7938 12.4094 89.6476 13.2633C90.5015 14.1172 90.9812 15.2753 90.9812 16.4828Z" fill="#84ABB1" fill-opacity="0.15"/>
<path d="M256.194 70.8328C258.708 70.8328 260.747 68.7943 260.747 66.2797C260.747 63.7651 258.708 61.7266 256.194 61.7266C253.679 61.7266 251.641 63.7651 251.641 66.2797C251.641 68.7943 253.679 70.8328 256.194 70.8328Z" fill="#84ABB1" fill-opacity="0.15"/>
<path d="M185.228 192.159C185.31 193.055 185.125 193.956 184.696 194.748C184.266 195.54 183.612 196.186 182.815 196.606C182.018 197.025 181.115 197.199 180.219 197.105C179.324 197.011 178.476 196.654 177.783 196.078C177.091 195.503 176.585 194.735 176.329 193.871C176.072 193.008 176.078 192.088 176.345 191.228C176.612 190.368 177.128 189.606 177.827 189.039C178.527 188.472 179.379 188.125 180.276 188.043C181.478 187.932 182.676 188.303 183.604 189.075C184.533 189.847 185.117 190.956 185.228 192.159Z" fill="#84ABB1" fill-opacity="0.15"/>
<path d="M199.196 130.194C199.279 131.09 199.094 131.992 198.665 132.783C198.235 133.575 197.581 134.221 196.784 134.641C195.987 135.06 195.084 135.234 194.188 135.14C193.292 135.046 192.445 134.689 191.752 134.113C191.06 133.538 190.553 132.77 190.297 131.906C190.041 131.043 190.047 130.123 190.314 129.263C190.58 128.403 191.096 127.641 191.796 127.074C192.496 126.507 193.348 126.161 194.244 126.078C194.84 126.023 195.44 126.086 196.011 126.263C196.582 126.44 197.113 126.728 197.573 127.11C198.033 127.492 198.413 127.961 198.691 128.49C198.97 129.02 199.141 129.598 199.196 130.194Z" fill="#84ABB1" fill-opacity="0.15"/>
<path d="M260.748 178.028C263.263 178.028 265.302 175.99 265.302 173.475C265.302 170.96 263.263 168.922 260.748 168.922C258.234 168.922 256.195 170.96 256.195 173.475C256.195 175.99 258.234 178.028 260.748 178.028Z" fill="#84ABB1" fill-opacity="0.15"/>
<path d="M76.958 201.666C76.958 202.567 76.691 203.447 76.1907 204.196C75.6904 204.945 74.9793 205.528 74.1473 205.873C73.3153 206.218 72.3997 206.308 71.5165 206.132C70.6332 205.957 69.822 205.523 69.1852 204.886C68.5484 204.249 68.1147 203.438 67.9391 202.555C67.7634 201.672 67.8535 200.756 68.1981 199.924C68.5428 199.092 69.1265 198.381 69.8752 197.881C70.624 197.38 71.5043 197.113 72.4048 197.113C73.0027 197.113 73.5948 197.231 74.1473 197.46C74.6997 197.689 75.2016 198.024 75.6244 198.447C76.0472 198.87 76.3826 199.372 76.6114 199.924C76.8402 200.476 76.958 201.068 76.958 201.666Z" fill="#84ABB1" fill-opacity="0.15"/>
<path d="M147.419 154.455C147.419 155.356 147.152 156.236 146.651 156.985C146.151 157.734 145.44 158.317 144.608 158.662C143.776 159.007 142.861 159.097 141.977 158.921C141.094 158.745 140.283 158.312 139.646 157.675C139.009 157.038 138.576 156.227 138.4 155.344C138.224 154.461 138.314 153.545 138.659 152.713C139.004 151.881 139.587 151.17 140.336 150.67C141.085 150.169 141.965 149.902 142.866 149.902C144.073 149.902 145.231 150.382 146.085 151.236C146.939 152.09 147.419 153.248 147.419 154.455Z" fill="#84ABB1" fill-opacity="0.15"/>
<path d="M100.342 70.8328C102.857 70.8328 104.895 68.7943 104.895 66.2797C104.895 63.7651 102.857 61.7266 100.342 61.7266C97.8276 61.7266 95.7891 63.7651 95.7891 66.2797C95.7891 68.7943 97.8276 70.8328 100.342 70.8328Z" fill="#84ABB1" fill-opacity="0.15"/>
<path d="M269.897 257.265C272.411 257.265 274.45 255.226 274.45 252.711C274.45 250.197 272.411 248.158 269.897 248.158C267.382 248.158 265.344 250.197 265.344 252.711C265.344 255.226 267.382 257.265 269.897 257.265Z" fill="#84ABB1" fill-opacity="0.15"/>
<path d="M175.521 262.108C175.521 263.008 175.254 263.889 174.753 264.638C174.253 265.386 173.542 265.97 172.71 266.315C171.878 266.659 170.962 266.749 170.079 266.574C169.196 266.398 168.385 265.964 167.748 265.328C167.111 264.691 166.677 263.88 166.502 262.996C166.326 262.113 166.416 261.198 166.761 260.366C167.105 259.534 167.689 258.822 168.438 258.322C169.186 257.822 170.067 257.555 170.967 257.555C172.175 257.555 173.333 258.034 174.187 258.888C175.041 259.742 175.52 260.9 175.521 262.108Z" fill="#84ABB1" fill-opacity="0.15"/>
<path d="M33.9893 111.018C33.9893 111.919 33.7223 112.799 33.222 113.548C32.7216 114.296 32.0105 114.88 31.1785 115.225C30.3465 115.569 29.431 115.659 28.5478 115.484C27.6645 115.308 26.8532 114.874 26.2164 114.238C25.5796 113.601 25.146 112.79 24.9703 111.906C24.7946 111.023 24.8848 110.108 25.2294 109.276C25.5741 108.444 26.1576 107.732 26.9064 107.232C27.6552 106.732 28.5356 106.465 29.4361 106.465C30.6437 106.465 31.8018 106.945 32.6557 107.798C33.5095 108.652 33.9892 109.81 33.9893 111.018Z" fill="#84ABB1" fill-opacity="0.15"/>
<path d="M265.494 15.0308L268.592 16.4848C268.873 16.6167 269.182 16.6782 269.492 16.6642C269.802 16.6501 270.104 16.5609 270.372 16.4042L273.326 14.6759C273.635 14.4956 273.987 14.4051 274.344 14.4148C274.701 14.4244 275.048 14.5337 275.346 14.7303C275.644 14.9269 275.882 15.203 276.031 15.5274C276.18 15.8518 276.236 16.2114 276.192 16.5658L275.766 19.9621C275.728 20.27 275.765 20.5826 275.874 20.8731C275.983 21.1635 276.161 21.4231 276.393 21.6293L278.949 23.9052C279.216 24.1426 279.411 24.45 279.512 24.7925C279.614 25.1349 279.617 25.4989 279.522 25.8432C279.427 26.1875 279.238 26.4983 278.976 26.7407C278.713 26.983 278.388 27.147 278.038 27.2143L274.676 27.8593C274.371 27.9178 274.086 28.0495 273.843 28.243C273.6 28.4366 273.409 28.6862 273.284 28.9704L271.91 32.1053C271.766 32.4324 271.534 32.7128 271.24 32.9149C270.945 33.117 270.6 33.2326 270.244 33.2488C269.887 33.265 269.533 33.181 269.221 33.0064C268.91 32.8317 268.653 32.5734 268.481 32.2607L266.828 29.263C266.679 28.9912 266.465 28.7599 266.206 28.5891C265.947 28.4182 265.65 28.3129 265.342 28.2822L261.935 27.9438C261.58 27.9085 261.242 27.7745 260.959 27.5569C260.675 27.3393 260.459 27.0468 260.333 26.7125C260.208 26.3782 260.178 26.0155 260.248 25.6653C260.318 25.315 260.484 24.9913 260.728 24.7308L263.068 22.2332C263.281 22.0067 263.435 21.7321 263.517 21.433C263.6 21.1338 263.608 20.8191 263.542 20.516L262.811 17.1719C262.735 16.823 262.758 16.4598 262.877 16.1233C262.997 15.7868 263.208 15.4904 263.487 15.2676C263.766 15.0449 264.102 14.9047 264.456 14.8628C264.811 14.8209 265.17 14.8791 265.494 15.0308Z" fill="#84ABB1" fill-opacity="0.15"/>
<path d="M142.029 96.827L140.603 99.9385C140.473 100.221 140.415 100.53 140.431 100.84C140.448 101.15 140.54 101.451 140.699 101.717L142.454 104.656C142.637 104.962 142.731 105.314 142.724 105.671C142.718 106.028 142.612 106.376 142.418 106.676C142.224 106.976 141.95 107.216 141.627 107.368C141.304 107.52 140.945 107.579 140.59 107.538L137.19 107.143C136.882 107.107 136.569 107.147 136.28 107.259C135.99 107.371 135.732 107.551 135.528 107.785L133.275 110.362C133.04 110.63 132.735 110.828 132.393 110.932C132.052 111.037 131.688 111.043 131.343 110.951C130.998 110.86 130.685 110.673 130.44 110.413C130.196 110.153 130.029 109.829 129.958 109.479L129.283 106.124C129.222 105.82 129.088 105.535 128.892 105.294C128.696 105.053 128.445 104.864 128.16 104.742L125.013 103.395C124.684 103.255 124.402 103.025 124.197 102.733C123.992 102.44 123.874 102.096 123.854 101.739C123.835 101.383 123.916 101.028 124.088 100.715C124.259 100.402 124.515 100.143 124.827 99.968L127.809 98.289C128.08 98.1368 128.309 97.9211 128.478 97.6606C128.646 97.4001 128.749 97.1024 128.777 96.7934L129.085 93.3843C129.117 93.0286 129.248 92.689 129.463 92.4039C129.678 92.1188 129.968 91.8996 130.302 91.771C130.635 91.6424 130.997 91.6096 131.348 91.6762C131.699 91.7429 132.024 91.9064 132.287 92.1483L134.805 94.4662C135.034 94.6764 135.31 94.8278 135.609 94.9076C135.909 94.9874 136.224 94.993 136.527 94.9241L139.864 94.1634C140.212 94.084 140.576 94.1036 140.913 94.2201C141.251 94.3365 141.549 94.5451 141.774 94.8222C142 95.0993 142.143 95.4339 142.188 95.7882C142.233 96.1425 142.178 96.5023 142.029 96.827Z" fill="#84ABB1" fill-opacity="0.15"/>
<path d="M32.1214 165.213L33.1514 168.477C33.2447 168.773 33.4087 169.042 33.6291 169.26C33.8494 169.479 34.1196 169.64 34.4163 169.731L37.6892 170.733C38.0307 170.838 38.3361 171.036 38.571 171.305C38.8058 171.574 38.9606 171.903 39.018 172.256C39.0754 172.608 39.033 172.97 38.8956 173.299C38.7582 173.629 38.5314 173.914 38.2407 174.121L35.4546 176.109C35.202 176.29 34.997 176.529 34.8573 176.806C34.7176 177.083 34.6473 177.39 34.6526 177.7L34.7111 181.122C34.7172 181.479 34.6232 181.831 34.4399 182.137C34.2565 182.444 33.9911 182.693 33.6736 182.856C33.3561 183.02 32.9992 183.091 32.6432 183.062C32.2872 183.034 31.9465 182.906 31.6593 182.694L28.9075 180.658C28.658 180.474 28.3674 180.353 28.0607 180.305C27.7541 180.258 27.4404 180.286 27.147 180.387L23.9102 181.5C23.5725 181.616 23.209 181.636 22.8609 181.556C22.5128 181.476 22.194 181.301 21.9404 181.049C21.6868 180.798 21.5086 180.481 21.4259 180.133C21.3433 179.786 21.3595 179.422 21.4727 179.083L22.558 175.837C22.6564 175.543 22.6818 175.229 22.632 174.923C22.5822 174.617 22.4586 174.327 22.272 174.079L20.2131 171.345C19.9983 171.059 19.8676 170.72 19.8357 170.364C19.8039 170.008 19.8723 169.651 20.033 169.332C20.1938 169.013 20.4406 168.746 20.7454 168.56C21.0503 168.374 21.4011 168.277 21.7582 168.28L25.181 168.309C25.4912 168.312 25.7975 168.239 26.0734 168.097C26.3493 167.955 26.5865 167.748 26.7646 167.493L28.7291 164.69C28.934 164.398 29.2167 164.169 29.5451 164.029C29.8736 163.888 30.2347 163.843 30.5876 163.897C30.9405 163.952 31.2713 164.104 31.5423 164.336C31.8134 164.569 32.014 164.872 32.1214 165.213Z" fill="#84ABB1" fill-opacity="0.15"/>
<path d="M220.611 155.076L223.71 156.53C223.99 156.662 224.299 156.723 224.609 156.709C224.919 156.695 225.221 156.606 225.489 156.449L228.444 154.721C228.752 154.541 229.104 154.45 229.461 154.46C229.818 154.469 230.165 154.579 230.464 154.775C230.762 154.972 230.999 155.248 231.148 155.572C231.298 155.897 231.353 156.256 231.309 156.611L230.884 160.007C230.845 160.315 230.882 160.628 230.991 160.918C231.1 161.208 231.278 161.468 231.51 161.674L234.067 163.95C234.334 164.188 234.529 164.495 234.63 164.837C234.731 165.18 234.734 165.544 234.639 165.888C234.544 166.232 234.355 166.543 234.093 166.786C233.831 167.028 233.506 167.192 233.155 167.259L229.793 167.904C229.489 167.963 229.203 168.094 228.96 168.288C228.718 168.482 228.526 168.731 228.401 169.015L227.027 172.15C226.884 172.477 226.651 172.758 226.357 172.96C226.063 173.162 225.717 173.278 225.361 173.294C225.004 173.31 224.65 173.226 224.338 173.051C224.027 172.877 223.77 172.618 223.598 172.306L221.946 169.308C221.796 169.036 221.582 168.805 221.323 168.634C221.064 168.463 220.768 168.358 220.459 168.327L217.053 167.989C216.697 167.953 216.359 167.819 216.076 167.602C215.793 167.384 215.576 167.092 215.45 166.758C215.325 166.423 215.295 166.06 215.365 165.71C215.435 165.36 215.601 165.036 215.845 164.776L218.186 162.278C218.398 162.052 218.552 161.777 218.634 161.478C218.717 161.179 218.725 160.864 218.659 160.561L217.928 157.217C217.852 156.868 217.875 156.505 217.994 156.168C218.114 155.832 218.325 155.535 218.604 155.312C218.883 155.09 219.219 154.949 219.574 154.908C219.928 154.866 220.288 154.924 220.611 155.076Z" fill="#84ABB1" fill-opacity="0.15"/>
<path d="M211.83 8.87114L213.355 7.02811C213.493 6.86106 213.588 6.66291 213.633 6.45074C213.677 6.23856 213.67 6.01874 213.61 5.8102L212.956 3.50966C212.888 3.26966 212.888 3.01534 212.957 2.77548C213.026 2.53561 213.16 2.31977 213.345 2.15237C213.53 1.98496 213.759 1.87266 214.004 1.82818C214.25 1.78369 214.503 1.80879 214.735 1.90064L216.959 2.78069C217.16 2.8605 217.378 2.89009 217.594 2.86693C217.809 2.84376 218.016 2.76853 218.196 2.64772L220.182 1.31476C220.389 1.17572 220.631 1.09742 220.88 1.08871C221.13 1.07999 221.376 1.14121 221.593 1.26544C221.809 1.38967 221.986 1.57196 222.105 1.7917C222.223 2.01144 222.277 2.25986 222.262 2.50888L222.112 4.89588C222.098 5.11225 222.137 5.3287 222.226 5.52655C222.315 5.7244 222.45 5.89773 222.621 6.03159L224.502 7.50835C224.698 7.66242 224.847 7.86832 224.933 8.10279C225.018 8.33726 225.036 8.59093 224.985 8.83512C224.934 9.07932 224.815 9.30429 224.643 9.48459C224.47 9.6649 224.251 9.79334 224.009 9.85541L221.693 10.4505C221.483 10.5044 221.289 10.6086 221.128 10.754C220.967 10.8995 220.844 11.0819 220.77 11.2855L219.947 13.531C219.861 13.7653 219.711 13.9708 219.514 14.1245C219.318 14.2781 219.082 14.3737 218.834 14.4004C218.586 14.4271 218.335 14.3838 218.111 14.2755C217.886 14.1672 217.696 13.9982 217.562 13.7875L216.28 11.7682C216.164 11.5852 216.005 11.4331 215.817 11.3252C215.629 11.2172 215.418 11.1566 215.201 11.1486L212.811 11.0598C212.562 11.0506 212.32 10.9717 212.113 10.8322C211.906 10.6927 211.742 10.4981 211.64 10.2704C211.538 10.0426 211.502 9.79092 211.536 9.54365C211.569 9.29638 211.671 9.06343 211.83 8.87114Z" fill="#84ABB1" fill-opacity="0.15"/>
<path d="M97.977 245.948L97.2837 249.3C97.2209 249.604 97.2328 249.919 97.3185 250.217C97.4043 250.515 97.5613 250.788 97.776 251.012L100.144 253.483C100.391 253.741 100.561 254.063 100.635 254.412C100.709 254.762 100.683 255.125 100.561 255.461C100.439 255.796 100.226 256.091 99.9452 256.312C99.6645 256.533 99.3276 256.67 98.9727 256.71L95.5705 257.086C95.262 257.12 94.9666 257.229 94.7095 257.403C94.4524 257.576 94.2413 257.81 94.0946 258.083L92.476 261.099C92.3071 261.414 92.0536 261.675 91.744 261.853C91.4345 262.031 91.0812 262.119 90.7242 262.107C90.3673 262.095 90.021 261.983 89.7243 261.784C89.4276 261.585 89.1924 261.307 89.0454 260.982L87.6363 257.863C87.5085 257.58 87.3139 257.332 87.0692 257.142C86.8246 256.951 86.5372 256.822 86.2318 256.767L82.8632 256.16C82.5118 256.096 82.1851 255.936 81.9201 255.696C81.655 255.457 81.4623 255.148 81.3636 254.805C81.2649 254.462 81.2642 254.098 81.3616 253.754C81.4589 253.411 81.6505 253.101 81.9146 252.861L84.4458 250.557C84.6753 250.348 84.8505 250.086 84.9564 249.795C85.0623 249.503 85.0956 249.19 85.0536 248.883L84.5905 245.491C84.5422 245.137 84.5938 244.777 84.7396 244.451C84.8854 244.125 85.1194 243.846 85.4153 243.646C85.7112 243.446 86.0571 243.333 86.414 243.32C86.7708 243.306 87.1244 243.393 87.4346 243.57L90.4083 245.265C90.6778 245.418 90.9806 245.504 91.2908 245.515C91.6009 245.526 91.909 245.461 92.1884 245.326L95.2706 243.837C95.5922 243.682 95.9509 243.619 96.306 243.657C96.6611 243.695 96.9985 243.832 97.2801 244.051C97.5616 244.271 97.7762 244.565 97.8993 244.9C98.0225 245.236 98.0494 245.599 97.977 245.948Z" fill="#84ABB1" fill-opacity="0.15"/>
<path d="M-39.6868 104.145C-42.4003 107.39 -43.7158 111.579 -43.3446 115.793C-42.9734 120.007 -40.9458 123.902 -37.7067 126.623L-10.7939 149.178C-9.42826 150.323 -7.66391 150.878 -5.88898 150.722C-4.11405 150.565 -2.47396 149.71 -1.32944 148.345C-0.18492 146.979 0.370223 145.215 0.213887 143.44C0.0575511 141.665 -0.797445 140.025 -2.16306 138.88L-29.0759 116.325C-29.3452 116.099 -29.564 115.819 -29.7182 115.503C-29.8725 115.187 -29.9587 114.843 -29.9712 114.491L-29.924 113.883C-29.8357 113.456 -29.6383 113.059 -29.3509 112.732C-29.0635 112.404 -28.6961 112.157 -28.2845 112.014C-27.8729 111.871 -27.4312 111.837 -27.0026 111.916C-26.574 111.994 -26.1732 112.183 -25.8394 112.463L-22.6058 115.173C-21.9296 115.74 -21.1485 116.168 -20.3069 116.432C-19.4653 116.697 -18.5798 116.794 -17.701 116.716C-16.8221 116.639 -15.9671 116.389 -15.1848 115.981C-14.4025 115.573 -13.7081 115.015 -13.1415 114.339C-12.5748 113.663 -12.1468 112.882 -11.882 112.04C-11.6172 111.199 -11.5208 110.313 -11.5982 109.434C-11.6756 108.556 -11.9254 107.701 -12.3332 106.918C-12.7411 106.136 -13.299 105.442 -13.9752 104.875L-17.2087 102.165C-20.454 99.4513 -24.6432 98.1358 -28.8572 98.507C-33.0712 98.8781 -36.9658 100.906 -39.6868 104.145ZM-36.4686 106.842C-35.5992 105.803 -34.5561 104.924 -33.3858 104.242L-34.1031 113.469C-34.1456 113.763 -34.1687 114.06 -34.1721 114.357L-34.8837 123.51L-35.0095 123.405C-37.3963 121.4 -38.8903 118.53 -39.1639 115.425C-39.4374 112.32 -38.4681 109.233 -36.4686 106.842ZM-14.4258 134.082L-14.9055 140.254L-21.2466 134.939L-20.7669 128.767L-14.4258 134.082ZM-4.54759 145.648C-4.97721 146.159 -5.59214 146.479 -6.25752 146.538C-6.9229 146.596 -7.58435 146.389 -8.09672 145.96L-10.9514 143.568L-10.4717 137.395L-4.86026 142.098C-4.3488 142.528 -4.02864 143.143 -3.97002 143.808C-3.91141 144.474 -4.1191 145.135 -4.54759 145.648ZM-24.721 125.453L-25.2007 131.625L-30.9299 126.824L-30.45 120.652L-24.721 125.453ZM-29.0586 102.752C-27.0126 102.471 -24.9285 102.732 -23.0153 103.51L-23.4433 109.017C-24.2944 108.382 -25.2841 107.958 -26.331 107.779C-27.378 107.601 -28.4524 107.673 -29.4659 107.991L-29.0586 102.752ZM-16.3595 111.642C-16.7321 112.086 -17.2459 112.387 -17.8146 112.497C-18.3832 112.606 -18.9722 112.517 -19.4828 112.243L-19.008 106.135L-16.6722 108.093C-16.1607 108.523 -15.8406 109.138 -15.782 109.803C-15.7234 110.468 -15.9311 111.13 -16.3595 111.642Z" fill="#84ABB1" fill-opacity="0.15"/>
</g>
</g>
</g>
<defs>
<clipPath id="clip0_2511_8507">
<rect width="291" height="274" fill="white"/>
</clipPath>
<clipPath id="clip1_2511_8507">
<rect width="1440" height="6286.56" fill="white" transform="translate(-7)"/>
</clipPath>
<clipPath id="clip2_2511_8507">
<rect width="3118.72" height="6516" fill="white" transform="translate(-846)"/>
</clipPath>
</defs>
</svg>
