<svg width="86" height="16" viewBox="0 0 86 16" fill="none" xmlns="http://www.w3.org/2000/svg">
<path d="M54.4338 1.13947C53.8848 0.640916 53.2183 0.289649 52.4967 0.118479C51.7751 -0.0526917 51.0219 -0.0381813 50.3075 0.160652C48.4321 0.68403 47.4367 2.46459 46.785 4.16283C45.7729 6.80058 44.8259 9.49622 43.9519 12.1827C43.9399 12.2196 43.9403 12.2594 43.9531 12.296C43.4934 13.9244 45.6809 15.0229 46.8989 13.7184C47.8474 12.7025 48.189 10.992 48.6699 9.72808C49.3339 7.98318 50.0118 6.24265 50.6586 4.49127C50.6857 4.48117 50.7098 4.46414 50.7283 4.44188C50.7469 4.41962 50.7593 4.3929 50.7643 4.36437C50.8331 4.04392 51.2019 3.79957 51.4675 4.07452C51.7596 4.37676 51.6187 4.8119 51.6071 5.17901C51.6057 5.22926 51.6222 5.27837 51.6536 5.31757C51.6035 5.89173 52.0406 6.43388 52.5469 6.70365C52.903 6.88562 53.3008 6.97055 53.7002 6.94988C54.0996 6.92922 54.4864 6.80368 54.8219 6.58592C54.8588 6.56214 54.8855 6.52536 54.8965 6.48285L54.8996 6.47862C55.6919 4.69651 55.9858 2.60249 54.4338 1.13947ZM48.4706 1.96698C48.6386 1.75851 48.8266 1.56694 49.0319 1.39498C49.0456 1.5111 49.0717 1.62883 49.0916 1.74707C49.1446 2.09747 49.2333 2.44153 49.3563 2.77391C49.545 3.32345 49.9324 3.78257 50.4423 4.06106C50.4102 4.06834 50.3804 4.08363 50.3557 4.10552C50.3311 4.12741 50.3124 4.15518 50.3013 4.18625C50.1527 4.56553 50.0056 4.94543 49.8602 5.32595C49.8505 5.31297 49.8387 5.30169 49.8254 5.29257C48.9508 4.76316 48.2255 4.01973 47.7177 3.13238C47.9305 2.72054 48.1826 2.33026 48.4706 1.96698ZM47.0824 12.6173C47.0463 12.695 47.0074 12.7741 46.9669 12.8532C46.0658 12.6325 45.2461 12.1601 44.6033 11.4911C44.774 11.0381 44.9419 10.5838 45.1068 10.1284C45.6416 10.9564 46.479 11.5425 47.4401 11.7614C47.328 12.0508 47.2119 12.338 47.0824 12.6173ZM46.6524 5.78003C46.8939 6.23226 47.2234 6.63161 47.6216 6.95456C48.0197 7.27751 48.4785 7.51755 48.9708 7.66053L48.9729 7.66071C48.761 8.22307 48.5488 8.78526 48.3363 9.34728C47.4371 8.96552 46.6356 8.38596 45.9913 7.6517C46.085 7.39025 46.1781 7.12842 46.2732 6.86751C46.4022 6.51377 46.5264 6.14853 46.6524 5.78003ZM45.197 9.87622C45.4274 9.23489 45.6549 8.59236 45.884 7.95059C46.4417 8.77504 47.2564 9.39187 48.2013 9.70494C48.1666 9.79637 48.1324 9.88799 48.0977 9.97941C47.9213 10.4441 47.7563 10.9188 47.5821 11.3895C46.5968 11.1232 45.9237 10.5626 45.197 9.87622ZM47.5692 3.42636C47.9769 4.37982 48.7207 5.15025 49.6592 5.59117C49.6892 5.60456 49.7229 5.60719 49.7547 5.5986C49.5373 6.16617 49.3218 6.73449 49.1083 7.30357C48.1369 7.02004 47.294 6.40803 46.7237 5.57207C46.9628 4.84072 47.2451 4.12422 47.5692 3.42636ZM46.057 13.828C44.9222 14.2879 44.2461 13.2705 44.285 12.3208C44.286 12.3183 44.2879 12.3172 44.2888 12.3147C44.3688 12.1107 44.4454 11.9054 44.5233 11.7006C45.0519 12.471 45.8629 13.002 46.7803 13.1786C46.6121 13.4646 46.3595 13.6915 46.057 13.828ZM51.4757 1.60575C51.1434 2.18183 51.0036 2.84893 51.0767 3.50995C50.915 3.54095 50.7659 3.61863 50.6479 3.7334C50.2962 3.48079 50.0173 3.13997 49.8392 2.74526C49.7365 2.50737 49.6586 2.25955 49.6067 2.0057C49.5295 1.73889 49.4796 1.46494 49.4577 1.18806C49.4938 1.14832 49.5156 1.0976 49.5195 1.04402C50.3624 0.524905 51.3732 0.351314 52.3411 0.559468C51.9825 0.843814 51.6877 1.20026 51.4757 1.60575ZM51.8886 3.8666C51.7859 3.71694 51.6399 3.60232 51.4701 3.53815C51.4589 3.53395 51.4472 3.53325 51.4359 3.52962C51.4458 3.05304 51.5441 2.58244 51.7257 2.14171C51.907 1.73167 52.2536 1.11753 52.6919 0.891769C52.7316 0.898953 52.7725 0.894245 52.8095 0.878238L52.8401 0.86496C52.8913 0.840905 52.9316 0.798429 52.9529 0.745995C53.0335 0.778084 53.1141 0.810425 53.1937 0.848331C53.5757 1.01484 53.9196 1.25782 54.2041 1.56231C54.4887 1.86679 54.7078 2.22632 54.8481 2.61874C53.8523 2.3001 52.2602 2.87529 51.8886 3.8666ZM52.0723 4.29908C52.1772 4.02759 52.344 3.78431 52.5595 3.58859C52.7749 3.39287 53.033 3.2501 53.3133 3.17165C53.8932 2.96811 54.3864 3.04263 54.968 3.06931C55.0827 3.72051 55.0583 4.38859 54.8965 5.02969C54.4781 4.77878 54.0053 4.63278 53.5183 4.60416C53.0313 4.57554 52.5446 4.66514 52.0997 4.86533C52.1202 4.67631 52.1109 4.48525 52.0723 4.29908ZM54.4859 6.25969C53.5116 6.70678 52.1775 6.50328 51.971 5.35393C51.9904 5.3319 52.005 5.30604 52.0139 5.27803C52.0169 5.2687 52.0193 5.25868 52.0223 5.24922C52.4692 5.07874 52.9485 5.01004 53.4254 5.04812C53.9022 5.08621 54.3646 5.23012 54.7788 5.46939C54.6962 5.73814 54.5984 6.002 54.4859 6.25969Z" fill="#222221"/>
<path d="M54.4338 1.13947C53.8848 0.640916 53.2183 0.289649 52.4967 0.118479C51.7751 -0.0526917 51.0219 -0.0381813 50.3075 0.160652C48.4321 0.68403 47.4367 2.46459 46.785 4.16283C45.7729 6.80058 44.8259 9.49622 43.9519 12.1827C43.9399 12.2196 43.9403 12.2594 43.9531 12.296C43.4934 13.9244 45.6809 15.0229 46.8989 13.7184C47.8474 12.7025 48.189 10.992 48.6699 9.72808C49.3339 7.98318 50.0118 6.24265 50.6586 4.49127C50.6857 4.48117 50.7098 4.46414 50.7283 4.44188C50.7469 4.41962 50.7593 4.3929 50.7643 4.36437C50.8331 4.04392 51.2019 3.79957 51.4675 4.07452C51.7596 4.37676 51.6187 4.8119 51.6071 5.17901C51.6057 5.22926 51.6222 5.27837 51.6536 5.31757C51.6035 5.89173 52.0406 6.43388 52.5469 6.70365C52.903 6.88562 53.3008 6.97055 53.7002 6.94988C54.0996 6.92922 54.4864 6.80368 54.8219 6.58592C54.8588 6.56214 54.8855 6.52536 54.8965 6.48285L54.8996 6.47862C55.6919 4.69651 55.9858 2.60249 54.4338 1.13947ZM48.4706 1.96698C48.6386 1.75851 48.8266 1.56694 49.0319 1.39498C49.0456 1.5111 49.0717 1.62883 49.0916 1.74707C49.1446 2.09747 49.2333 2.44153 49.3563 2.77391C49.545 3.32345 49.9324 3.78257 50.4423 4.06106C50.4102 4.06834 50.3804 4.08363 50.3557 4.10552C50.3311 4.12741 50.3124 4.15518 50.3013 4.18625C50.1527 4.56553 50.0056 4.94543 49.8602 5.32595C49.8505 5.31297 49.8387 5.30169 49.8254 5.29257C48.9508 4.76316 48.2255 4.01973 47.7177 3.13238C47.9305 2.72054 48.1826 2.33026 48.4706 1.96698ZM47.0824 12.6173C47.0463 12.695 47.0074 12.7741 46.9669 12.8532C46.0658 12.6325 45.2461 12.1601 44.6033 11.4911C44.774 11.0381 44.9419 10.5838 45.1068 10.1284C45.6416 10.9564 46.479 11.5425 47.4401 11.7614C47.328 12.0508 47.2119 12.338 47.0824 12.6173ZM46.6524 5.78003C46.8939 6.23226 47.2234 6.63161 47.6216 6.95456C48.0197 7.27751 48.4785 7.51755 48.9708 7.66053L48.9729 7.66071C48.761 8.22307 48.5488 8.78526 48.3363 9.34728C47.4371 8.96552 46.6356 8.38596 45.9913 7.6517C46.085 7.39025 46.1781 7.12842 46.2732 6.86751C46.4022 6.51377 46.5264 6.14853 46.6524 5.78003ZM45.197 9.87622C45.4274 9.23489 45.6549 8.59236 45.884 7.95059C46.4417 8.77504 47.2564 9.39187 48.2013 9.70494C48.1666 9.79637 48.1324 9.88799 48.0977 9.97941C47.9213 10.4441 47.7563 10.9188 47.5821 11.3895C46.5968 11.1232 45.9237 10.5626 45.197 9.87622ZM47.5692 3.42636C47.9769 4.37982 48.7207 5.15025 49.6592 5.59117C49.6892 5.60456 49.7229 5.60719 49.7547 5.5986C49.5373 6.16617 49.3218 6.73449 49.1083 7.30357C48.1369 7.02004 47.294 6.40803 46.7237 5.57207C46.9628 4.84072 47.2451 4.12422 47.5692 3.42636ZM46.057 13.828C44.9222 14.2879 44.2461 13.2705 44.285 12.3208C44.286 12.3183 44.2879 12.3172 44.2888 12.3147C44.3688 12.1107 44.4454 11.9054 44.5233 11.7006C45.0519 12.471 45.8629 13.002 46.7803 13.1786C46.6121 13.4646 46.3595 13.6915 46.057 13.828ZM51.4757 1.60575C51.1434 2.18183 51.0036 2.84893 51.0767 3.50995C50.915 3.54095 50.7659 3.61863 50.6479 3.7334C50.2962 3.48079 50.0173 3.13997 49.8392 2.74526C49.7365 2.50737 49.6586 2.25955 49.6067 2.0057C49.5295 1.73889 49.4796 1.46494 49.4577 1.18806C49.4938 1.14832 49.5156 1.0976 49.5195 1.04402C50.3624 0.524905 51.3732 0.351314 52.3411 0.559468C51.9825 0.843814 51.6877 1.20026 51.4757 1.60575ZM51.8886 3.8666C51.7859 3.71694 51.6399 3.60232 51.4701 3.53815C51.4589 3.53395 51.4472 3.53325 51.4359 3.52962C51.4458 3.05304 51.5441 2.58244 51.7257 2.14171C51.907 1.73167 52.2536 1.11753 52.6919 0.891769C52.7316 0.898953 52.7725 0.894245 52.8095 0.878238L52.8401 0.86496C52.8913 0.840905 52.9316 0.798429 52.9529 0.745995C53.0335 0.778084 53.1141 0.810425 53.1937 0.848331C53.5757 1.01484 53.9196 1.25782 54.2041 1.56231C54.4887 1.86679 54.7078 2.22632 54.8481 2.61874C53.8523 2.3001 52.2602 2.87529 51.8886 3.8666ZM52.0723 4.29908C52.1772 4.02759 52.344 3.78431 52.5595 3.58859C52.7749 3.39287 53.033 3.2501 53.3133 3.17165C53.8932 2.96811 54.3864 3.04263 54.968 3.06931C55.0827 3.72051 55.0583 4.38859 54.8965 5.02969C54.4781 4.77878 54.0053 4.63278 53.5183 4.60416C53.0313 4.57554 52.5446 4.66514 52.0997 4.86533C52.1202 4.67631 52.1109 4.48525 52.0723 4.29908ZM54.4859 6.25969C53.5116 6.70678 52.1775 6.50328 51.971 5.35393C51.9904 5.3319 52.005 5.30604 52.0139 5.27803C52.0169 5.2687 52.0193 5.25868 52.0223 5.24922C52.4692 5.07874 52.9485 5.01004 53.4254 5.04812C53.9022 5.08621 54.3646 5.23012 54.7788 5.46939C54.6962 5.73814 54.5984 6.002 54.4859 6.25969Z" fill="url(#paint0_linear_2470_5560)"/>
<path d="M31.3037 6.47862L31.3067 6.48285C31.3178 6.52536 31.3445 6.56214 31.3814 6.58592C31.7168 6.80368 32.1037 6.92922 32.5031 6.94989C32.9025 6.97055 33.3003 6.88562 33.6564 6.70365C34.1626 6.43388 34.5998 5.89173 34.5496 5.31758C34.5811 5.27837 34.5976 5.22926 34.5962 5.17901C34.5845 4.8119 34.4437 4.37676 34.7357 4.07453C35.0014 3.79957 35.3702 4.04392 35.4389 4.36437C35.444 4.3929 35.4564 4.41962 35.4749 4.44188C35.4935 4.46414 35.5175 4.48116 35.5447 4.49127C36.1915 6.24265 36.8694 7.98318 37.5334 9.72808C38.0143 10.992 38.3558 12.7025 39.3044 13.7184C40.5223 15.0229 42.7098 13.9244 42.2502 12.296C42.2629 12.2594 42.2633 12.2196 42.2513 12.1827C41.3773 9.49622 40.4303 6.80058 39.4182 4.16283C38.7666 2.46459 37.7712 0.68403 35.8958 0.160653C35.1813 -0.0381813 34.4281 -0.0526917 33.7065 0.118479C32.9849 0.289649 32.3185 0.640916 31.7694 1.13947C30.2175 2.60249 30.5113 4.69651 31.3037 6.47862ZM38.4855 3.13238C37.9778 4.01973 37.2525 4.76316 36.3779 5.29257C36.3645 5.30169 36.3527 5.31297 36.3431 5.32595C36.1969 4.9457 36.0499 4.56579 35.9019 4.18625C35.8909 4.15518 35.8722 4.12741 35.8476 4.10552C35.8229 4.08363 35.7931 4.06833 35.7609 4.06106C36.2709 3.78257 36.6583 3.32345 36.8469 2.77391C36.9699 2.44153 37.0586 2.09747 37.1117 1.74707C37.1316 1.62883 37.1576 1.5111 37.1714 1.39498C37.3766 1.56694 37.5646 1.75851 37.7327 1.96698C38.0206 2.33026 38.2727 2.72054 38.4855 3.13238ZM38.7632 11.7614C39.7243 11.5425 40.5617 10.9564 41.0965 10.1284C41.261 10.584 41.4288 11.0382 41.6 11.4911C40.9572 12.1601 40.1374 12.6325 39.2363 12.8532C39.1959 12.7741 39.1569 12.695 39.1209 12.6173C38.9914 12.338 38.8753 12.0508 38.7632 11.7614ZM39.93 6.86751C40.0252 7.12842 40.1182 7.39025 40.2119 7.65171C39.5676 8.38596 38.7661 8.96552 37.867 9.34728C37.6545 8.78518 37.4423 8.22299 37.2304 7.66071L37.2325 7.66053C37.7248 7.51755 38.1835 7.27752 38.5817 6.95456C38.9798 6.63161 39.3094 6.23226 39.5508 5.78003C39.6769 6.14853 39.801 6.51377 39.93 6.86751ZM38.6212 11.3895C38.447 10.9188 38.2819 10.4441 38.1056 9.97941C38.0709 9.88799 38.0366 9.79637 38.002 9.70494C38.9468 9.39188 39.7616 8.77505 40.3193 7.95059C40.5483 8.59236 40.7758 9.23489 41.0063 9.87623C40.2796 10.5626 39.6065 11.1232 38.6212 11.3895ZM39.4795 5.57207C38.9092 6.40804 38.0664 7.02005 37.095 7.30357C36.8804 6.73488 36.6649 6.16656 36.4486 5.5986C36.4803 5.60719 36.514 5.60457 36.5441 5.59117C37.4826 5.15025 38.2264 4.37982 38.634 3.42636C38.9581 4.12422 39.2404 4.84072 39.4795 5.57207ZM39.4229 13.1786C40.3404 13.002 41.1513 12.471 41.68 11.7006C41.7579 11.9054 41.8345 12.1107 41.9145 12.3147C41.9154 12.3172 41.9173 12.3184 41.9183 12.3208C41.9572 13.2705 41.2811 14.2879 40.1462 13.828C39.8438 13.6915 39.5911 13.4646 39.4229 13.1786ZM33.8622 0.559469C34.83 0.351314 35.8409 0.524905 36.6838 1.04402C36.6877 1.0976 36.7095 1.14832 36.7456 1.18806C36.7237 1.46494 36.6738 1.73889 36.5966 2.00571C36.5446 2.25954 36.4667 2.50736 36.3641 2.74526C36.186 3.13997 35.9071 3.48079 35.5554 3.7334C35.4374 3.61863 35.2883 3.54095 35.1266 3.50995C35.1997 2.84893 35.0599 2.18183 34.7276 1.60575C34.5156 1.20026 34.2207 0.843806 33.8622 0.559469ZM31.3552 2.61874C31.4955 2.22633 31.7146 1.8668 31.9991 1.56232C32.2837 1.25783 32.6275 1.01485 33.0095 0.848331C33.0891 0.810426 33.1698 0.778084 33.2503 0.745995C33.2717 0.798429 33.3119 0.840905 33.3632 0.86496L33.3937 0.878238C33.4307 0.894246 33.4717 0.898954 33.5113 0.891769C33.9497 1.11753 34.2962 1.73167 34.4775 2.14171C34.6591 2.58244 34.7574 3.05304 34.7674 3.52962C34.756 3.53325 34.7444 3.53395 34.7331 3.53815C34.5634 3.60232 34.4173 3.71694 34.3147 3.8666C33.943 2.87529 32.351 2.3001 31.3552 2.61874ZM34.1035 4.86533C33.6587 4.66514 33.172 4.57554 32.685 4.60416C32.198 4.63278 31.7251 4.77878 31.3068 5.02969C31.145 4.38859 31.1206 3.72051 31.2352 3.06931C31.8169 3.04263 32.3101 2.96811 32.89 3.17165C33.1703 3.2501 33.4284 3.39287 33.6438 3.58859C33.8592 3.78431 34.026 4.02759 34.1309 4.29908C34.0923 4.48525 34.0831 4.67631 34.1035 4.86533ZM31.4244 5.46939C31.8386 5.23012 32.301 5.08621 32.7779 5.04812C33.2547 5.01004 33.7341 5.07874 34.181 5.24922C34.184 5.25868 34.1863 5.2687 34.1894 5.27803C34.1982 5.30605 34.2128 5.3319 34.2323 5.35393C34.0258 6.50328 32.6917 6.70678 31.7174 6.25969C31.6049 6.002 31.5071 5.73815 31.4244 5.46939Z" fill="#222221"/>
<path d="M31.3037 6.47862L31.3067 6.48285C31.3178 6.52536 31.3445 6.56214 31.3814 6.58592C31.7168 6.80368 32.1037 6.92922 32.5031 6.94989C32.9025 6.97055 33.3003 6.88562 33.6564 6.70365C34.1626 6.43388 34.5998 5.89173 34.5496 5.31758C34.5811 5.27837 34.5976 5.22926 34.5962 5.17901C34.5845 4.8119 34.4437 4.37676 34.7357 4.07453C35.0014 3.79957 35.3702 4.04392 35.4389 4.36437C35.444 4.3929 35.4564 4.41962 35.4749 4.44188C35.4935 4.46414 35.5175 4.48116 35.5447 4.49127C36.1915 6.24265 36.8694 7.98318 37.5334 9.72808C38.0143 10.992 38.3558 12.7025 39.3044 13.7184C40.5223 15.0229 42.7098 13.9244 42.2502 12.296C42.2629 12.2594 42.2633 12.2196 42.2513 12.1827C41.3773 9.49622 40.4303 6.80058 39.4182 4.16283C38.7666 2.46459 37.7712 0.68403 35.8958 0.160653C35.1813 -0.0381813 34.4281 -0.0526917 33.7065 0.118479C32.9849 0.289649 32.3185 0.640916 31.7694 1.13947C30.2175 2.60249 30.5113 4.69651 31.3037 6.47862ZM38.4855 3.13238C37.9778 4.01973 37.2525 4.76316 36.3779 5.29257C36.3645 5.30169 36.3527 5.31297 36.3431 5.32595C36.1969 4.9457 36.0499 4.56579 35.9019 4.18625C35.8909 4.15518 35.8722 4.12741 35.8476 4.10552C35.8229 4.08363 35.7931 4.06833 35.7609 4.06106C36.2709 3.78257 36.6583 3.32345 36.8469 2.77391C36.9699 2.44153 37.0586 2.09747 37.1117 1.74707C37.1316 1.62883 37.1576 1.5111 37.1714 1.39498C37.3766 1.56694 37.5646 1.75851 37.7327 1.96698C38.0206 2.33026 38.2727 2.72054 38.4855 3.13238ZM38.7632 11.7614C39.7243 11.5425 40.5617 10.9564 41.0965 10.1284C41.261 10.584 41.4288 11.0382 41.6 11.4911C40.9572 12.1601 40.1374 12.6325 39.2363 12.8532C39.1959 12.7741 39.1569 12.695 39.1209 12.6173C38.9914 12.338 38.8753 12.0508 38.7632 11.7614ZM39.93 6.86751C40.0252 7.12842 40.1182 7.39025 40.2119 7.65171C39.5676 8.38596 38.7661 8.96552 37.867 9.34728C37.6545 8.78518 37.4423 8.22299 37.2304 7.66071L37.2325 7.66053C37.7248 7.51755 38.1835 7.27752 38.5817 6.95456C38.9798 6.63161 39.3094 6.23226 39.5508 5.78003C39.6769 6.14853 39.801 6.51377 39.93 6.86751ZM38.6212 11.3895C38.447 10.9188 38.2819 10.4441 38.1056 9.97941C38.0709 9.88799 38.0366 9.79637 38.002 9.70494C38.9468 9.39188 39.7616 8.77505 40.3193 7.95059C40.5483 8.59236 40.7758 9.23489 41.0063 9.87623C40.2796 10.5626 39.6065 11.1232 38.6212 11.3895ZM39.4795 5.57207C38.9092 6.40804 38.0664 7.02005 37.095 7.30357C36.8804 6.73488 36.6649 6.16656 36.4486 5.5986C36.4803 5.60719 36.514 5.60457 36.5441 5.59117C37.4826 5.15025 38.2264 4.37982 38.634 3.42636C38.9581 4.12422 39.2404 4.84072 39.4795 5.57207ZM39.4229 13.1786C40.3404 13.002 41.1513 12.471 41.68 11.7006C41.7579 11.9054 41.8345 12.1107 41.9145 12.3147C41.9154 12.3172 41.9173 12.3184 41.9183 12.3208C41.9572 13.2705 41.2811 14.2879 40.1462 13.828C39.8438 13.6915 39.5911 13.4646 39.4229 13.1786ZM33.8622 0.559469C34.83 0.351314 35.8409 0.524905 36.6838 1.04402C36.6877 1.0976 36.7095 1.14832 36.7456 1.18806C36.7237 1.46494 36.6738 1.73889 36.5966 2.00571C36.5446 2.25954 36.4667 2.50736 36.3641 2.74526C36.186 3.13997 35.9071 3.48079 35.5554 3.7334C35.4374 3.61863 35.2883 3.54095 35.1266 3.50995C35.1997 2.84893 35.0599 2.18183 34.7276 1.60575C34.5156 1.20026 34.2207 0.843806 33.8622 0.559469ZM31.3552 2.61874C31.4955 2.22633 31.7146 1.8668 31.9991 1.56232C32.2837 1.25783 32.6275 1.01485 33.0095 0.848331C33.0891 0.810426 33.1698 0.778084 33.2503 0.745995C33.2717 0.798429 33.3119 0.840905 33.3632 0.86496L33.3937 0.878238C33.4307 0.894246 33.4717 0.898954 33.5113 0.891769C33.9497 1.11753 34.2962 1.73167 34.4775 2.14171C34.6591 2.58244 34.7574 3.05304 34.7674 3.52962C34.756 3.53325 34.7444 3.53395 34.7331 3.53815C34.5634 3.60232 34.4173 3.71694 34.3147 3.8666C33.943 2.87529 32.351 2.3001 31.3552 2.61874ZM34.1035 4.86533C33.6587 4.66514 33.172 4.57554 32.685 4.60416C32.198 4.63278 31.7251 4.77878 31.3068 5.02969C31.145 4.38859 31.1206 3.72051 31.2352 3.06931C31.8169 3.04263 32.3101 2.96811 32.89 3.17165C33.1703 3.2501 33.4284 3.39287 33.6438 3.58859C33.8592 3.78431 34.026 4.02759 34.1309 4.29908C34.0923 4.48525 34.0831 4.67631 34.1035 4.86533ZM31.4244 5.46939C31.8386 5.23012 32.301 5.08621 32.7779 5.04812C33.2547 5.01004 33.7341 5.07874 34.181 5.24922C34.184 5.25868 34.1863 5.2687 34.1894 5.27803C34.1982 5.30605 34.2128 5.3319 34.2323 5.35393C34.0258 6.50328 32.6917 6.70678 31.7174 6.25969C31.6049 6.002 31.5071 5.73815 31.4244 5.46939Z" fill="url(#paint1_linear_2470_5560)"/>
<path d="M85.2649 9.49883C85.166 9.78304 85.0504 10.0612 84.9188 10.3318C83.5982 12.5643 80.7039 12.9626 78.2167 12.8863C76.4624 12.8325 74.692 12.204 72.9342 11.9922C73.058 11.4835 73.0563 10.9524 72.9294 10.4446C72.4373 8.46362 70.4585 7.38866 68.545 7.28696C65.7182 7.13673 63.1428 8.7785 60.7296 10.0256C59.2 10.816 57.6419 11.5998 55.9631 12.0206C54.2855 12.4412 50.3044 12.5591 50.916 9.93783C51.2931 9.37326 51.8189 8.85779 52.5682 9.07042C52.7645 9.11155 52.9414 9.21738 53.0704 9.37096C53.1995 9.52455 53.2733 9.717 53.28 9.9175C53.2737 10.1309 53.1888 10.3344 53.0415 10.489C52.811 10.7109 52.171 10.879 52.1305 10.2684C52.1291 10.2288 52.1123 10.1912 52.0838 10.1637C52.0552 10.1362 52.0171 10.1208 51.9774 10.1208C51.9378 10.1208 51.8997 10.1362 51.8711 10.1637C51.8425 10.1912 51.8258 10.2288 51.8243 10.2684C51.75 10.9451 52.498 11.3357 53.0813 11.1023C53.3908 10.9621 53.6367 10.7112 53.7705 10.3989C53.9044 10.0866 53.9166 9.73557 53.8048 9.41474C53.1814 7.69434 50.8003 8.47772 50.4288 9.93809C50.4206 9.96804 50.4197 9.99949 50.426 10.0299C50.4324 10.0603 50.4459 10.0887 50.4654 10.1128C50.3898 10.5167 50.4303 10.9337 50.5823 11.3154C50.7342 11.6971 50.9914 12.0279 51.3238 12.2693C52.5407 13.2481 54.3682 13.1021 55.9496 12.7065C58.1858 12.6141 60.17 11.5663 62.19 10.4988C63.845 9.62415 65.5923 8.74505 67.504 8.69181C69.6029 8.63335 71.715 9.80103 72.0384 11.9304C71.7779 11.9214 71.5172 11.9273 71.2575 11.9481C70.4716 12.0181 69.2041 12.4997 69.5027 13.5541C69.5346 13.7294 69.6284 13.8875 69.7671 13.9994C69.9058 14.1113 70.0801 14.1696 70.2582 14.1637C70.2765 14.2004 70.306 14.2304 70.3424 14.2492C70.3788 14.268 70.4203 14.2748 70.4608 14.2684C70.9134 14.2037 71.3446 14.0343 71.7202 13.7738C72.0959 13.5133 72.4057 13.1688 72.625 12.7677C72.6643 12.7445 72.6979 12.7127 72.7232 12.6747C72.7486 12.6368 72.765 12.5936 72.7714 12.5483C72.8942 12.5813 73.0146 12.6227 73.1317 12.6724C73.2455 12.6952 73.3581 12.7229 73.4716 12.7468C77.7982 15.3004 84.0358 15.0575 85.8325 9.65529C85.9526 9.29419 85.3879 9.14308 85.2649 9.49883ZM70.8031 13.7867C70.7903 13.7703 70.7736 13.7573 70.7545 13.749C70.7355 13.7406 70.7146 13.7371 70.6939 13.7388C71.0382 12.9737 71.5043 12.5639 72.0869 12.4936C72.0875 12.5739 72.1183 12.6511 72.1733 12.7097C71.864 13.2245 71.3764 13.6078 70.8031 13.7867ZM79.2675 13.4756C79.7764 13.4619 80.284 13.419 80.788 13.347C81.1681 13.2915 81.544 13.2107 81.9133 13.1049C81.061 13.3873 80.1646 13.5129 79.2675 13.4756Z" fill="#222221"/>
<path d="M85.2649 9.49883C85.166 9.78304 85.0504 10.0612 84.9188 10.3318C83.5982 12.5643 80.7039 12.9626 78.2167 12.8863C76.4624 12.8325 74.692 12.204 72.9342 11.9922C73.058 11.4835 73.0563 10.9524 72.9294 10.4446C72.4373 8.46362 70.4585 7.38866 68.545 7.28696C65.7182 7.13673 63.1428 8.7785 60.7296 10.0256C59.2 10.816 57.6419 11.5998 55.9631 12.0206C54.2855 12.4412 50.3044 12.5591 50.916 9.93783C51.2931 9.37326 51.8189 8.85779 52.5682 9.07042C52.7645 9.11155 52.9414 9.21738 53.0704 9.37096C53.1995 9.52455 53.2733 9.717 53.28 9.9175C53.2737 10.1309 53.1888 10.3344 53.0415 10.489C52.811 10.7109 52.171 10.879 52.1305 10.2684C52.1291 10.2288 52.1123 10.1912 52.0838 10.1637C52.0552 10.1362 52.0171 10.1208 51.9774 10.1208C51.9378 10.1208 51.8997 10.1362 51.8711 10.1637C51.8425 10.1912 51.8258 10.2288 51.8243 10.2684C51.75 10.9451 52.498 11.3357 53.0813 11.1023C53.3908 10.9621 53.6367 10.7112 53.7705 10.3989C53.9044 10.0866 53.9166 9.73557 53.8048 9.41474C53.1814 7.69434 50.8003 8.47772 50.4288 9.93809C50.4206 9.96804 50.4197 9.99949 50.426 10.0299C50.4324 10.0603 50.4459 10.0887 50.4654 10.1128C50.3898 10.5167 50.4303 10.9337 50.5823 11.3154C50.7342 11.6971 50.9914 12.0279 51.3238 12.2693C52.5407 13.2481 54.3682 13.1021 55.9496 12.7065C58.1858 12.6141 60.17 11.5663 62.19 10.4988C63.845 9.62415 65.5923 8.74505 67.504 8.69181C69.6029 8.63335 71.715 9.80103 72.0384 11.9304C71.7779 11.9214 71.5172 11.9273 71.2575 11.9481C70.4716 12.0181 69.2041 12.4997 69.5027 13.5541C69.5346 13.7294 69.6284 13.8875 69.7671 13.9994C69.9058 14.1113 70.0801 14.1696 70.2582 14.1637C70.2765 14.2004 70.306 14.2304 70.3424 14.2492C70.3788 14.268 70.4203 14.2748 70.4608 14.2684C70.9134 14.2037 71.3446 14.0343 71.7202 13.7738C72.0959 13.5133 72.4057 13.1688 72.625 12.7677C72.6643 12.7445 72.6979 12.7127 72.7232 12.6747C72.7486 12.6368 72.765 12.5936 72.7714 12.5483C72.8942 12.5813 73.0146 12.6227 73.1317 12.6724C73.2455 12.6952 73.3581 12.7229 73.4716 12.7468C77.7982 15.3004 84.0358 15.0575 85.8325 9.65529C85.9526 9.29419 85.3879 9.14308 85.2649 9.49883ZM70.8031 13.7867C70.7903 13.7703 70.7736 13.7573 70.7545 13.749C70.7355 13.7406 70.7146 13.7371 70.6939 13.7388C71.0382 12.9737 71.5043 12.5639 72.0869 12.4936C72.0875 12.5739 72.1183 12.6511 72.1733 12.7097C71.864 13.2245 71.3764 13.6078 70.8031 13.7867ZM79.2675 13.4756C79.7764 13.4619 80.284 13.419 80.788 13.347C81.1681 13.2915 81.544 13.2107 81.9133 13.1049C81.061 13.3873 80.1646 13.5129 79.2675 13.4756Z" fill="url(#paint2_linear_2470_5560)"/>
<path d="M62.5741 2.65064C61.4141 1.25587 58.7639 1.41275 57.6266 2.77059C56.5366 4.07193 57.0425 6.1319 58.8707 6.20756C58.9013 6.20903 58.9317 6.20284 58.9593 6.18956C58.9869 6.17628 59.0108 6.15632 59.0287 6.13149C59.1913 6.13197 59.353 6.10685 59.5078 6.05704C59.7384 6.0408 59.958 5.95277 60.136 5.80533C60.314 5.65788 60.4413 5.45841 60.5002 5.2349C60.6916 4.90878 60.7674 4.52768 60.7156 4.15312C60.6855 3.95578 60.3743 4.00839 60.374 4.19934C60.3772 4.4444 60.3319 4.68767 60.2406 4.91512C60.2267 4.92581 60.2143 4.93823 60.2035 4.95208C59.336 6.16877 57.8601 4.76527 58.684 3.6311C58.9984 3.21916 59.4571 2.94141 59.9678 2.85364C61.0455 3.01696 62.2298 3.33016 62.3767 4.46576C62.3802 4.49733 62.3904 4.52777 62.4068 4.55499C62.4232 4.5822 62.4453 4.60554 62.4715 4.62338C62.4685 4.91455 62.4851 5.20977 62.4851 5.49534C62.4867 5.5087 62.4899 5.52181 62.4946 5.53442C62.2329 6.27082 61.7988 6.9339 61.2285 7.46825C59.5755 9.09481 57.3336 9.96001 55.1193 10.4872C54.9617 10.5247 54.991 10.7954 55.1584 10.7763C57.6415 10.492 60.2855 9.4415 62.0063 7.56423C63.2199 6.24028 63.837 4.16912 62.5741 2.65064ZM57.8337 3.76765C57.8452 3.60674 57.8982 3.45156 57.9876 3.31727C58.077 3.18298 58.1997 3.07416 58.3437 3.00143C58.1124 3.21029 57.9371 3.4737 57.8337 3.76765Z" fill="#222221"/>
<path d="M62.5741 2.65064C61.4141 1.25587 58.7639 1.41275 57.6266 2.77059C56.5366 4.07193 57.0425 6.1319 58.8707 6.20756C58.9013 6.20903 58.9317 6.20284 58.9593 6.18956C58.9869 6.17628 59.0108 6.15632 59.0287 6.13149C59.1913 6.13197 59.353 6.10685 59.5078 6.05704C59.7384 6.0408 59.958 5.95277 60.136 5.80533C60.314 5.65788 60.4413 5.45841 60.5002 5.2349C60.6916 4.90878 60.7674 4.52768 60.7156 4.15312C60.6855 3.95578 60.3743 4.00839 60.374 4.19934C60.3772 4.4444 60.3319 4.68767 60.2406 4.91512C60.2267 4.92581 60.2143 4.93823 60.2035 4.95208C59.336 6.16877 57.8601 4.76527 58.684 3.6311C58.9984 3.21916 59.4571 2.94141 59.9678 2.85364C61.0455 3.01696 62.2298 3.33016 62.3767 4.46576C62.3802 4.49733 62.3904 4.52777 62.4068 4.55499C62.4232 4.5822 62.4453 4.60554 62.4715 4.62338C62.4685 4.91455 62.4851 5.20977 62.4851 5.49534C62.4867 5.5087 62.4899 5.52181 62.4946 5.53442C62.2329 6.27082 61.7988 6.9339 61.2285 7.46825C59.5755 9.09481 57.3336 9.96001 55.1193 10.4872C54.9617 10.5247 54.991 10.7954 55.1584 10.7763C57.6415 10.492 60.2855 9.4415 62.0063 7.56423C63.2199 6.24028 63.837 4.16912 62.5741 2.65064ZM57.8337 3.76765C57.8452 3.60674 57.8982 3.45156 57.9876 3.31727C58.077 3.18298 58.1997 3.07416 58.3437 3.00143C58.1124 3.21029 57.9371 3.4737 57.8337 3.76765Z" fill="url(#paint3_linear_2470_5560)"/>
<path d="M69.6153 10.9827C69.5811 10.9205 69.539 10.8675 69.5007 10.8101C69.1942 10.0377 68.5092 9.71297 67.6855 9.67259C66.3201 9.44562 64.9181 9.70031 63.7198 10.3931C62.0481 11.417 60.7541 13.9442 62.5932 15.4448C62.6334 15.4792 62.6848 15.4976 62.7377 15.4964C63.0939 15.7336 63.4969 15.8915 63.9194 15.9593C64.8935 16.1331 65.6344 15.7606 66.0037 14.8404C66.3491 13.9799 66.4139 12.8215 65.5602 12.2255C64.9104 11.7717 63.859 12.0192 63.7305 12.8721C63.6957 13.103 64.0242 13.3015 64.1462 13.0474C64.2129 12.8962 64.323 12.7683 64.4626 12.6799C64.9536 13.0361 65.4545 13.5547 65.4136 14.2134C65.3495 15.2463 64.217 15.369 63.5854 14.7276C63.2024 14.3324 62.9645 13.8192 62.9104 13.2715C62.9538 13.2136 62.9787 13.1438 62.9817 13.0715C62.9847 12.9991 62.9657 12.9276 62.9272 12.8663C62.9211 12.8574 62.9124 12.8538 62.9058 12.8459C62.9235 12.5826 62.9959 12.3259 63.1184 12.0922C63.2409 11.8586 63.4109 11.6531 63.6174 11.4888C63.6247 11.4816 63.6313 11.4739 63.6374 11.4656C64.265 11.0466 64.9505 10.7216 65.6721 10.5008C66.2828 10.3324 67.4296 10.1177 68.2426 10.3824C68.337 10.4183 68.4305 10.4559 68.5203 10.5005C68.7828 10.6341 68.984 10.8635 69.0823 11.1412C69.0989 11.1882 69.1287 11.2296 69.1681 11.2602C69.2076 11.2908 69.255 11.3095 69.3047 11.314C69.3545 11.3184 69.4044 11.3085 69.4487 11.2854C69.4929 11.2622 69.5296 11.2269 69.5544 11.1835C69.5885 11.1644 69.6139 11.1328 69.6253 11.0954C69.6367 11.0579 69.6331 11.0175 69.6153 10.9827Z" fill="#222221"/>
<path d="M69.6153 10.9827C69.5811 10.9205 69.539 10.8675 69.5007 10.8101C69.1942 10.0377 68.5092 9.71297 67.6855 9.67259C66.3201 9.44562 64.9181 9.70031 63.7198 10.3931C62.0481 11.417 60.7541 13.9442 62.5932 15.4448C62.6334 15.4792 62.6848 15.4976 62.7377 15.4964C63.0939 15.7336 63.4969 15.8915 63.9194 15.9593C64.8935 16.1331 65.6344 15.7606 66.0037 14.8404C66.3491 13.9799 66.4139 12.8215 65.5602 12.2255C64.9104 11.7717 63.859 12.0192 63.7305 12.8721C63.6957 13.103 64.0242 13.3015 64.1462 13.0474C64.2129 12.8962 64.323 12.7683 64.4626 12.6799C64.9536 13.0361 65.4545 13.5547 65.4136 14.2134C65.3495 15.2463 64.217 15.369 63.5854 14.7276C63.2024 14.3324 62.9645 13.8192 62.9104 13.2715C62.9538 13.2136 62.9787 13.1438 62.9817 13.0715C62.9847 12.9991 62.9657 12.9276 62.9272 12.8663C62.9211 12.8574 62.9124 12.8538 62.9058 12.8459C62.9235 12.5826 62.9959 12.3259 63.1184 12.0922C63.2409 11.8586 63.4109 11.6531 63.6174 11.4888C63.6247 11.4816 63.6313 11.4739 63.6374 11.4656C64.265 11.0466 64.9505 10.7216 65.6721 10.5008C66.2828 10.3324 67.4296 10.1177 68.2426 10.3824C68.337 10.4183 68.4305 10.4559 68.5203 10.5005C68.7828 10.6341 68.984 10.8635 69.0823 11.1412C69.0989 11.1882 69.1287 11.2296 69.1681 11.2602C69.2076 11.2908 69.255 11.3095 69.3047 11.314C69.3545 11.3184 69.4044 11.3085 69.4487 11.2854C69.4929 11.2622 69.5296 11.2269 69.5544 11.1835C69.5885 11.1644 69.6139 11.1328 69.6253 11.0954C69.6367 11.0579 69.6331 11.0175 69.6153 10.9827Z" fill="url(#paint4_linear_2470_5560)"/>
<path d="M82.2851 3.29421C80.1161 2.72983 76.9004 4.12118 77.3217 6.78498C77.652 8.87394 80.3868 9.65412 81.4046 7.64477C81.4252 7.60721 81.4378 7.56578 81.4415 7.52312C81.4453 7.48045 81.4402 7.43747 81.4265 7.39688C81.4676 7.28523 81.502 7.17119 81.5293 7.05538C81.5534 7.01559 81.5632 6.96877 81.5571 6.92267C81.6044 6.6913 81.6206 6.45464 81.6051 6.21899C81.6037 6.17768 81.5878 6.13817 81.5601 6.10748C81.5324 6.07679 81.4948 6.05691 81.4538 6.05137C81.4129 6.04583 81.3712 6.05498 81.3364 6.07721C81.3015 6.09943 81.2757 6.13329 81.2635 6.17277C81.1969 6.38765 81.1441 6.63962 81.0745 6.8864C80.8979 7.0242 80.6928 7.1207 80.474 7.16885C80.2553 7.217 80.0286 7.21556 79.8104 7.16464C79.5923 7.11372 79.3884 7.01462 79.2136 6.8746C79.0388 6.73458 78.8976 6.5572 78.8002 6.35547C78.8099 5.8809 79.0026 5.42843 79.338 5.09257C79.6734 4.75671 80.1256 4.56346 80.6002 4.55319C82.6724 4.47077 83.4378 7.41032 82.9679 9.02218C81.2846 11.6815 77.5843 11.0626 74.9712 10.7246C74.7945 10.7017 74.7632 10.9876 74.9297 11.0312C77.674 11.7502 81.3476 12.1741 83.3162 9.60338C84.7109 7.78226 84.9789 3.99516 82.2851 3.29421ZM81.7003 4.02368C81.562 3.97733 81.4207 3.93503 81.2727 3.90067C81.2409 3.89247 81.2073 3.89654 81.1785 3.91206C81.1496 3.92758 81.1277 3.9534 81.117 3.98438C80.9653 3.95424 80.8112 3.93739 80.6565 3.93402C80.9328 3.89655 81.2121 3.88492 81.4906 3.89928C81.5692 3.90398 81.6473 3.91465 81.7243 3.93121C81.7096 3.9599 81.7015 3.99147 81.7003 4.02368Z" fill="#222221"/>
<path d="M82.2851 3.29421C80.1161 2.72983 76.9004 4.12118 77.3217 6.78498C77.652 8.87394 80.3868 9.65412 81.4046 7.64477C81.4252 7.60721 81.4378 7.56578 81.4415 7.52312C81.4453 7.48045 81.4402 7.43747 81.4265 7.39688C81.4676 7.28523 81.502 7.17119 81.5293 7.05538C81.5534 7.01559 81.5632 6.96877 81.5571 6.92267C81.6044 6.6913 81.6206 6.45464 81.6051 6.21899C81.6037 6.17768 81.5878 6.13817 81.5601 6.10748C81.5324 6.07679 81.4948 6.05691 81.4538 6.05137C81.4129 6.04583 81.3712 6.05498 81.3364 6.07721C81.3015 6.09943 81.2757 6.13329 81.2635 6.17277C81.1969 6.38765 81.1441 6.63962 81.0745 6.8864C80.8979 7.0242 80.6928 7.1207 80.474 7.16885C80.2553 7.217 80.0286 7.21556 79.8104 7.16464C79.5923 7.11372 79.3884 7.01462 79.2136 6.8746C79.0388 6.73458 78.8976 6.5572 78.8002 6.35547C78.8099 5.8809 79.0026 5.42843 79.338 5.09257C79.6734 4.75671 80.1256 4.56346 80.6002 4.55319C82.6724 4.47077 83.4378 7.41032 82.9679 9.02218C81.2846 11.6815 77.5843 11.0626 74.9712 10.7246C74.7945 10.7017 74.7632 10.9876 74.9297 11.0312C77.674 11.7502 81.3476 12.1741 83.3162 9.60338C84.7109 7.78226 84.9789 3.99516 82.2851 3.29421ZM81.7003 4.02368C81.562 3.97733 81.4207 3.93503 81.2727 3.90067C81.2409 3.89247 81.2073 3.89654 81.1785 3.91206C81.1496 3.92758 81.1277 3.9534 81.117 3.98438C80.9653 3.95424 80.8112 3.93739 80.6565 3.93402C80.9328 3.89655 81.2121 3.88492 81.4906 3.89928C81.5692 3.90398 81.6473 3.91465 81.7243 3.93121C81.7096 3.9599 81.7015 3.99147 81.7003 4.02368Z" fill="url(#paint5_linear_2470_5560)"/>
<path d="M56.6536 8.56339L56.6283 8.53942C56.5908 8.50306 56.5456 8.47562 56.496 8.45914C56.4464 8.44267 56.3938 8.43758 56.3419 8.44426C56.2901 8.45093 56.2405 8.4692 56.1967 8.49771C56.1529 8.52622 56.1161 8.56423 56.089 8.60891L56.0716 8.63838C56.0319 8.70956 56.0161 8.79161 56.0266 8.87245C56.037 8.95329 56.0731 9.02865 56.1296 9.08743L56.1528 9.11351C56.1904 9.1506 56.236 9.17864 56.2861 9.19551C56.3362 9.21238 56.3894 9.21763 56.4418 9.21088C56.4943 9.20412 56.5444 9.18554 56.5886 9.15653C56.6328 9.12752 56.6698 9.08884 56.6968 9.04342L56.7116 9.01244C56.751 8.94118 56.7666 8.85918 56.7562 8.77841C56.7458 8.69764 56.7099 8.62231 56.6536 8.56339Z" fill="#222221"/>
<path d="M56.6536 8.56339L56.6283 8.53942C56.5908 8.50306 56.5456 8.47562 56.496 8.45914C56.4464 8.44267 56.3938 8.43758 56.3419 8.44426C56.2901 8.45093 56.2405 8.4692 56.1967 8.49771C56.1529 8.52622 56.1161 8.56423 56.089 8.60891L56.0716 8.63838C56.0319 8.70956 56.0161 8.79161 56.0266 8.87245C56.037 8.95329 56.0731 9.02865 56.1296 9.08743L56.1528 9.11351C56.1904 9.1506 56.236 9.17864 56.2861 9.19551C56.3362 9.21238 56.3894 9.21763 56.4418 9.21088C56.4943 9.20412 56.5444 9.18554 56.5886 9.15653C56.6328 9.12752 56.6698 9.08884 56.6968 9.04342L56.7116 9.01244C56.751 8.94118 56.7666 8.85918 56.7562 8.77841C56.7458 8.69764 56.7099 8.62231 56.6536 8.56339Z" fill="url(#paint6_linear_2470_5560)"/>
<path d="M59.0411 7.36434L58.9971 7.36759C58.9055 7.37094 58.8189 7.40966 58.7553 7.47559C58.6918 7.54153 58.6563 7.62954 58.6562 7.72112C58.6563 7.8127 58.6918 7.90072 58.7553 7.96665C58.8189 8.03258 58.9055 8.0713 58.9971 8.07465L59.0411 8.07787C59.5001 8.11142 59.5009 7.33073 59.0411 7.36434Z" fill="#222221"/>
<path d="M59.0411 7.36434L58.9971 7.36759C58.9055 7.37094 58.8189 7.40966 58.7553 7.47559C58.6918 7.54153 58.6563 7.62954 58.6562 7.72112C58.6563 7.8127 58.6918 7.90072 58.7553 7.96665C58.8189 8.03258 58.9055 8.0713 58.9971 8.07465L59.0411 8.07787C59.5001 8.11142 59.5009 7.33073 59.0411 7.36434Z" fill="url(#paint7_linear_2470_5560)"/>
<path d="M61.4074 5.77308C61.3431 5.73635 61.2708 5.71579 61.1968 5.71318C61.1228 5.71056 61.0492 5.72596 60.9825 5.75806C60.9092 5.78619 60.8452 5.83414 60.7976 5.89655C60.75 5.95896 60.7207 6.03337 60.713 6.11147C60.7053 6.18957 60.7194 6.26828 60.7538 6.33881C60.7883 6.40933 60.8416 6.46889 60.908 6.51083C60.9637 6.54649 61.0291 6.56383 61.0952 6.56043C61.1612 6.55703 61.2245 6.53305 61.2763 6.49187C61.2801 6.49142 61.2835 6.4925 61.2874 6.4919C61.3575 6.48366 61.4236 6.45462 61.4772 6.40851C61.5307 6.3624 61.5692 6.30134 61.5877 6.23317C61.6097 6.14726 61.6041 6.05661 61.5718 5.97405C61.5394 5.89149 61.4819 5.82118 61.4074 5.77308Z" fill="#222221"/>
<path d="M61.4074 5.77308C61.3431 5.73635 61.2708 5.71579 61.1968 5.71318C61.1228 5.71056 61.0492 5.72596 60.9825 5.75806C60.9092 5.78619 60.8452 5.83414 60.7976 5.89655C60.75 5.95896 60.7207 6.03337 60.713 6.11147C60.7053 6.18957 60.7194 6.26828 60.7538 6.33881C60.7883 6.40933 60.8416 6.46889 60.908 6.51083C60.9637 6.54649 61.0291 6.56383 61.0952 6.56043C61.1612 6.55703 61.2245 6.53305 61.2763 6.49187C61.2801 6.49142 61.2835 6.4925 61.2874 6.4919C61.3575 6.48366 61.4236 6.45462 61.4772 6.40851C61.5307 6.3624 61.5692 6.30134 61.5877 6.23317C61.6097 6.14726 61.6041 6.05661 61.5718 5.97405C61.5394 5.89149 61.4819 5.82118 61.4074 5.77308Z" fill="url(#paint8_linear_2470_5560)"/>
<path d="M74.8296 8.80105L74.752 8.89966C74.6941 8.96199 74.6626 9.04437 74.6641 9.12946C74.6657 9.21455 74.7002 9.29573 74.7603 9.3559C74.8205 9.41608 74.9017 9.45058 74.9868 9.45213C75.0719 9.45368 75.1543 9.42217 75.2166 9.36423L75.3152 9.28665C75.6649 9.01148 75.105 8.45105 74.8296 8.80105Z" fill="#222221"/>
<path d="M74.8296 8.80105L74.752 8.89966C74.6941 8.96199 74.6626 9.04437 74.6641 9.12946C74.6657 9.21455 74.7002 9.29573 74.7603 9.3559C74.8205 9.41608 74.9017 9.45058 74.9868 9.45213C75.0719 9.45368 75.1543 9.42217 75.2166 9.36423L75.3152 9.28665C75.6649 9.01148 75.105 8.45105 74.8296 8.80105Z" fill="url(#paint9_linear_2470_5560)"/>
<path d="M78.0845 9.63108C78.0337 9.56369 77.96 9.51732 77.8772 9.5008C77.7945 9.48428 77.7086 9.49876 77.6358 9.54149C77.5272 9.6112 77.4468 9.71707 77.4087 9.84037C77.3946 9.89524 77.395 9.95284 77.4099 10.0075C77.4249 10.0622 77.4538 10.112 77.4939 10.152C77.5339 10.1921 77.5837 10.221 77.6384 10.236C77.6931 10.2509 77.7507 10.2513 77.8055 10.2372C77.9038 10.2169 77.9925 10.1643 78.0573 10.0878C78.1159 10.0276 78.1509 9.94833 78.1558 9.86449C78.1608 9.78065 78.1355 9.69781 78.0845 9.63108Z" fill="#222221"/>
<path d="M78.0845 9.63108C78.0337 9.56369 77.96 9.51732 77.8772 9.5008C77.7945 9.48428 77.7086 9.49876 77.6358 9.54149C77.5272 9.6112 77.4468 9.71707 77.4087 9.84037C77.3946 9.89524 77.395 9.95284 77.4099 10.0075C77.4249 10.0622 77.4538 10.112 77.4939 10.152C77.5339 10.1921 77.5837 10.221 77.6384 10.236C77.6931 10.2509 77.7507 10.2513 77.8055 10.2372C77.9038 10.2169 77.9925 10.1643 78.0573 10.0878C78.1159 10.0276 78.1509 9.94833 78.1558 9.86449C78.1608 9.78065 78.1355 9.69781 78.0845 9.63108Z" fill="url(#paint10_linear_2470_5560)"/>
<path d="M81.3612 9.04702C81.3323 8.99938 81.2922 8.95954 81.2443 8.93099C81.1965 8.90244 81.1424 8.88604 81.0867 8.88324C81.0311 8.88044 80.9756 8.89132 80.9251 8.91492C80.8746 8.93852 80.8307 8.97413 80.7972 9.01863C80.779 9.03002 80.7609 9.04155 80.7426 9.05277C80.4724 9.22036 80.6461 9.71703 80.9694 9.59073C81 9.57491 81.0331 9.56426 81.0673 9.55921C81.1269 9.55843 81.1853 9.54214 81.2367 9.51193C81.288 9.48172 81.3307 9.43865 81.3603 9.38695C81.39 9.33525 81.4057 9.27671 81.4058 9.2171C81.406 9.15749 81.3906 9.09887 81.3612 9.04702Z" fill="#222221"/>
<path d="M81.3612 9.04702C81.3323 8.99938 81.2922 8.95954 81.2443 8.93099C81.1965 8.90244 81.1424 8.88604 81.0867 8.88324C81.0311 8.88044 80.9756 8.89132 80.9251 8.91492C80.8746 8.93852 80.8307 8.97413 80.7972 9.01863C80.779 9.03002 80.7609 9.04155 80.7426 9.05277C80.4724 9.22036 80.6461 9.71703 80.9694 9.59073C81 9.57491 81.0331 9.56426 81.0673 9.55921C81.1269 9.55843 81.1853 9.54214 81.2367 9.51193C81.288 9.48172 81.3307 9.43865 81.3603 9.38695C81.39 9.33525 81.4057 9.27671 81.4058 9.2171C81.406 9.15749 81.3906 9.09887 81.3612 9.04702Z" fill="url(#paint11_linear_2470_5560)"/>
<path d="M0.0166551 9.65529C1.8134 15.0575 8.05103 15.3004 12.3776 12.7468C12.4911 12.7229 12.6037 12.6952 12.7175 12.6724C12.8345 12.6227 12.9549 12.5813 13.0778 12.5483C13.0842 12.5936 13.1006 12.6368 13.126 12.6747C13.1513 12.7127 13.1849 12.7445 13.2242 12.7677C13.4435 13.1688 13.7533 13.5133 14.129 13.7738C14.5046 14.0343 14.9358 14.2037 15.3883 14.2684C15.4289 14.2748 15.4703 14.268 15.5068 14.2492C15.5432 14.2304 15.5727 14.2004 15.591 14.1637C15.7691 14.1696 15.9434 14.1113 16.0821 13.9994C16.2208 13.8875 16.3146 13.7294 16.3465 13.5541C16.6451 12.4997 15.3776 12.0181 14.5917 11.9481C14.332 11.9273 14.0712 11.9214 13.8108 11.9304C14.1342 9.80103 16.2463 8.63335 18.3452 8.69181C20.2569 8.74505 22.0042 9.62415 23.6592 10.4988C25.6791 11.5663 27.6634 12.6141 29.8996 12.7065C31.481 13.1021 33.3085 13.2481 34.5253 12.2693C34.8578 12.0279 35.115 11.6971 35.2669 11.3154C35.4189 10.9337 35.4594 10.5167 35.3838 10.1128C35.4033 10.0887 35.4168 10.0603 35.4231 10.0299C35.4295 9.99949 35.4286 9.96804 35.4204 9.93809C35.0489 8.47772 32.6678 7.69434 32.0444 9.41474C31.9326 9.73557 31.9448 10.0866 32.0787 10.3989C32.2125 10.7112 32.4584 10.9621 32.7679 11.1023C33.3512 11.3357 34.0992 10.9451 34.0249 10.2684C34.0234 10.2288 34.0066 10.1912 33.9781 10.1637C33.9495 10.1362 33.9114 10.1208 33.8718 10.1208C33.8321 10.1208 33.794 10.1362 33.7654 10.1637C33.7369 10.1912 33.7201 10.2288 33.7187 10.2684C33.6782 10.879 33.0382 10.7109 32.8077 10.489C32.6604 10.3344 32.5755 10.1309 32.5692 9.9175C32.5759 9.717 32.6497 9.52455 32.7787 9.37096C32.9078 9.21738 33.0847 9.11155 33.281 9.07042C34.0303 8.85779 34.556 9.37326 34.9331 9.93783C35.5448 12.5591 31.5636 12.4412 29.8861 12.0206C28.2073 11.5998 26.6492 10.816 25.1196 10.0256C22.7063 8.7785 20.131 7.13673 17.3042 7.28696C15.3907 7.38866 13.4119 8.46362 12.9198 10.4446C12.7928 10.9524 12.7912 11.4835 12.915 11.9922C11.1572 12.204 9.38678 12.8325 7.63252 12.8863C5.14525 12.9626 2.25101 12.5643 0.930343 10.3318C0.798744 10.0612 0.683184 9.78304 0.58426 9.49883C0.461248 9.14308 -0.103451 9.29419 0.0166551 9.65529ZM13.6759 12.7097C13.7308 12.6511 13.7617 12.574 13.7623 12.4936C14.3448 12.5639 14.8109 12.9737 15.1553 13.7388C15.1346 13.7371 15.1137 13.7406 15.0946 13.749C15.0756 13.7573 15.0589 13.7703 15.0461 13.7867C14.4728 13.6078 13.9852 13.2245 13.6759 12.7097ZM3.93587 13.1049C4.30516 13.2107 4.68112 13.2915 5.06122 13.347C5.56517 13.419 6.07284 13.4619 6.58172 13.4756C5.68462 13.5129 4.78818 13.3873 3.93587 13.1049Z" fill="#222221"/>
<path d="M0.0166551 9.65529C1.8134 15.0575 8.05103 15.3004 12.3776 12.7468C12.4911 12.7229 12.6037 12.6952 12.7175 12.6724C12.8345 12.6227 12.9549 12.5813 13.0778 12.5483C13.0842 12.5936 13.1006 12.6368 13.126 12.6747C13.1513 12.7127 13.1849 12.7445 13.2242 12.7677C13.4435 13.1688 13.7533 13.5133 14.129 13.7738C14.5046 14.0343 14.9358 14.2037 15.3883 14.2684C15.4289 14.2748 15.4703 14.268 15.5068 14.2492C15.5432 14.2304 15.5727 14.2004 15.591 14.1637C15.7691 14.1696 15.9434 14.1113 16.0821 13.9994C16.2208 13.8875 16.3146 13.7294 16.3465 13.5541C16.6451 12.4997 15.3776 12.0181 14.5917 11.9481C14.332 11.9273 14.0712 11.9214 13.8108 11.9304C14.1342 9.80103 16.2463 8.63335 18.3452 8.69181C20.2569 8.74505 22.0042 9.62415 23.6592 10.4988C25.6791 11.5663 27.6634 12.6141 29.8996 12.7065C31.481 13.1021 33.3085 13.2481 34.5253 12.2693C34.8578 12.0279 35.115 11.6971 35.2669 11.3154C35.4189 10.9337 35.4594 10.5167 35.3838 10.1128C35.4033 10.0887 35.4168 10.0603 35.4231 10.0299C35.4295 9.99949 35.4286 9.96804 35.4204 9.93809C35.0489 8.47772 32.6678 7.69434 32.0444 9.41474C31.9326 9.73557 31.9448 10.0866 32.0787 10.3989C32.2125 10.7112 32.4584 10.9621 32.7679 11.1023C33.3512 11.3357 34.0992 10.9451 34.0249 10.2684C34.0234 10.2288 34.0066 10.1912 33.9781 10.1637C33.9495 10.1362 33.9114 10.1208 33.8718 10.1208C33.8321 10.1208 33.794 10.1362 33.7654 10.1637C33.7369 10.1912 33.7201 10.2288 33.7187 10.2684C33.6782 10.879 33.0382 10.7109 32.8077 10.489C32.6604 10.3344 32.5755 10.1309 32.5692 9.9175C32.5759 9.717 32.6497 9.52455 32.7787 9.37096C32.9078 9.21738 33.0847 9.11155 33.281 9.07042C34.0303 8.85779 34.556 9.37326 34.9331 9.93783C35.5448 12.5591 31.5636 12.4412 29.8861 12.0206C28.2073 11.5998 26.6492 10.816 25.1196 10.0256C22.7063 8.7785 20.131 7.13673 17.3042 7.28696C15.3907 7.38866 13.4119 8.46362 12.9198 10.4446C12.7928 10.9524 12.7912 11.4835 12.915 11.9922C11.1572 12.204 9.38678 12.8325 7.63252 12.8863C5.14525 12.9626 2.25101 12.5643 0.930343 10.3318C0.798744 10.0612 0.683184 9.78304 0.58426 9.49883C0.461248 9.14308 -0.103451 9.29419 0.0166551 9.65529ZM13.6759 12.7097C13.7308 12.6511 13.7617 12.574 13.7623 12.4936C14.3448 12.5639 14.8109 12.9737 15.1553 13.7388C15.1346 13.7371 15.1137 13.7406 15.0946 13.749C15.0756 13.7573 15.0589 13.7703 15.0461 13.7867C14.4728 13.6078 13.9852 13.2245 13.6759 12.7097ZM3.93587 13.1049C4.30516 13.2107 4.68112 13.2915 5.06122 13.347C5.56517 13.419 6.07284 13.4619 6.58172 13.4756C5.68462 13.5129 4.78818 13.3873 3.93587 13.1049Z" fill="url(#paint12_linear_2470_5560)"/>
<path d="M23.8418 7.56423C25.5627 9.4415 28.2067 10.492 30.6898 10.7763C30.8572 10.7954 30.8865 10.5247 30.7289 10.4872C28.5146 9.96001 26.2727 9.09481 24.6197 7.46825C24.0494 6.9339 23.6153 6.27082 23.3536 5.53442C23.3583 5.52181 23.3614 5.5087 23.3631 5.49534C23.3631 5.20977 23.3797 4.91455 23.3766 4.62338C23.4029 4.60554 23.425 4.5822 23.4414 4.55499C23.4577 4.52777 23.468 4.49733 23.4714 4.46576C23.6184 3.33016 24.8027 3.01696 25.8803 2.85364C26.3911 2.94141 26.8497 3.21916 27.1642 3.6311C27.9881 4.76527 26.5122 6.16877 25.6446 4.95208C25.6339 4.93823 25.6214 4.92581 25.6076 4.91512C25.5163 4.68767 25.4709 4.4444 25.4742 4.19934C25.4738 4.00839 25.1627 3.95578 25.1326 4.15312C25.0807 4.52768 25.1566 4.90878 25.348 5.2349C25.4068 5.45841 25.5342 5.65788 25.7122 5.80533C25.8901 5.95277 26.1098 6.0408 26.3404 6.05704C26.4952 6.10685 26.6568 6.13198 26.8195 6.13149C26.8374 6.15632 26.8612 6.17628 26.8888 6.18956C26.9164 6.20285 26.9469 6.20903 26.9775 6.20756C28.8057 6.1319 29.3115 4.07193 28.2216 2.77059C27.0843 1.41275 24.4341 1.25587 23.2741 2.65064C22.0111 4.16912 22.6282 6.24028 23.8418 7.56423ZM27.5045 3.00143C27.6485 3.07416 27.7712 3.18298 27.8606 3.31727C27.9499 3.45156 28.003 3.60674 28.0145 3.76765C27.9111 3.4737 27.7358 3.21029 27.5045 3.00143Z" fill="#222221"/>
<path d="M23.8418 7.56423C25.5627 9.4415 28.2067 10.492 30.6898 10.7763C30.8572 10.7954 30.8865 10.5247 30.7289 10.4872C28.5146 9.96001 26.2727 9.09481 24.6197 7.46825C24.0494 6.9339 23.6153 6.27082 23.3536 5.53442C23.3583 5.52181 23.3614 5.5087 23.3631 5.49534C23.3631 5.20977 23.3797 4.91455 23.3766 4.62338C23.4029 4.60554 23.425 4.5822 23.4414 4.55499C23.4577 4.52777 23.468 4.49733 23.4714 4.46576C23.6184 3.33016 24.8027 3.01696 25.8803 2.85364C26.3911 2.94141 26.8497 3.21916 27.1642 3.6311C27.9881 4.76527 26.5122 6.16877 25.6446 4.95208C25.6339 4.93823 25.6214 4.92581 25.6076 4.91512C25.5163 4.68767 25.4709 4.4444 25.4742 4.19934C25.4738 4.00839 25.1627 3.95578 25.1326 4.15312C25.0807 4.52768 25.1566 4.90878 25.348 5.2349C25.4068 5.45841 25.5342 5.65788 25.7122 5.80533C25.8901 5.95277 26.1098 6.0408 26.3404 6.05704C26.4952 6.10685 26.6568 6.13198 26.8195 6.13149C26.8374 6.15632 26.8612 6.17628 26.8888 6.18956C26.9164 6.20285 26.9469 6.20903 26.9775 6.20756C28.8057 6.1319 29.3115 4.07193 28.2216 2.77059C27.0843 1.41275 24.4341 1.25587 23.2741 2.65064C22.0111 4.16912 22.6282 6.24028 23.8418 7.56423ZM27.5045 3.00143C27.6485 3.07416 27.7712 3.18298 27.8606 3.31727C27.9499 3.45156 28.003 3.60674 28.0145 3.76765C27.9111 3.4737 27.7358 3.21029 27.5045 3.00143Z" fill="url(#paint13_linear_2470_5560)"/>
<path d="M16.2962 11.1835C16.3209 11.2269 16.3576 11.2622 16.4019 11.2854C16.4461 11.3085 16.4961 11.3184 16.5458 11.314C16.5956 11.3095 16.643 11.2908 16.6824 11.2602C16.7219 11.2296 16.7517 11.1882 16.7683 11.1412C16.8666 10.8635 17.0677 10.6341 17.3302 10.5005C17.4201 10.4559 17.5136 10.4183 17.608 10.3824C18.421 10.1177 19.5678 10.3324 20.1785 10.5008C20.9001 10.7216 21.5856 11.0466 22.2131 11.4656C22.2192 11.4739 22.2259 11.4816 22.2331 11.4888C22.4397 11.6531 22.6096 11.8586 22.7322 12.0922C22.8547 12.3259 22.9271 12.5826 22.9447 12.8459C22.9381 12.8538 22.9295 12.8574 22.9234 12.8663C22.8849 12.9276 22.8659 12.9992 22.8689 13.0715C22.8719 13.1438 22.8967 13.2136 22.9402 13.2715C22.886 13.8192 22.6481 14.3324 22.2652 14.7276C21.6335 15.369 20.5011 15.2463 20.4369 14.2134C20.3961 13.5547 20.897 13.0361 21.388 12.6799C21.5276 12.7683 21.6377 12.8962 21.7044 13.0474C21.8263 13.3015 22.1548 13.103 22.1201 12.8721C21.9916 12.0192 20.9402 11.7717 20.2903 12.2255C19.4367 12.8215 19.5015 13.9799 19.8469 14.8404C20.2162 15.7606 20.957 16.1331 21.9311 15.9593C22.3537 15.8915 22.7567 15.7336 23.1129 15.4964C23.1658 15.4976 23.2172 15.4792 23.2573 15.4448C25.0965 13.9442 23.8025 11.417 22.1308 10.3931C20.9324 9.70031 19.5305 9.44562 18.165 9.6726C17.3414 9.71297 16.6563 10.0377 16.3499 10.8101C16.3116 10.8675 16.2694 10.9205 16.2353 10.9827C16.2175 11.0175 16.2139 11.0579 16.2253 11.0954C16.2366 11.1328 16.2621 11.1644 16.2962 11.1835Z" fill="#222221"/>
<path d="M16.2962 11.1835C16.3209 11.2269 16.3576 11.2622 16.4019 11.2854C16.4461 11.3085 16.4961 11.3184 16.5458 11.314C16.5956 11.3095 16.643 11.2908 16.6824 11.2602C16.7219 11.2296 16.7517 11.1882 16.7683 11.1412C16.8666 10.8635 17.0677 10.6341 17.3302 10.5005C17.4201 10.4559 17.5136 10.4183 17.608 10.3824C18.421 10.1177 19.5678 10.3324 20.1785 10.5008C20.9001 10.7216 21.5856 11.0466 22.2131 11.4656C22.2192 11.4739 22.2259 11.4816 22.2331 11.4888C22.4397 11.6531 22.6096 11.8586 22.7322 12.0922C22.8547 12.3259 22.9271 12.5826 22.9447 12.8459C22.9381 12.8538 22.9295 12.8574 22.9234 12.8663C22.8849 12.9276 22.8659 12.9992 22.8689 13.0715C22.8719 13.1438 22.8967 13.2136 22.9402 13.2715C22.886 13.8192 22.6481 14.3324 22.2652 14.7276C21.6335 15.369 20.5011 15.2463 20.4369 14.2134C20.3961 13.5547 20.897 13.0361 21.388 12.6799C21.5276 12.7683 21.6377 12.8962 21.7044 13.0474C21.8263 13.3015 22.1548 13.103 22.1201 12.8721C21.9916 12.0192 20.9402 11.7717 20.2903 12.2255C19.4367 12.8215 19.5015 13.9799 19.8469 14.8404C20.2162 15.7606 20.957 16.1331 21.9311 15.9593C22.3537 15.8915 22.7567 15.7336 23.1129 15.4964C23.1658 15.4976 23.2172 15.4792 23.2573 15.4448C25.0965 13.9442 23.8025 11.417 22.1308 10.3931C20.9324 9.70031 19.5305 9.44562 18.165 9.6726C17.3414 9.71297 16.6563 10.0377 16.3499 10.8101C16.3116 10.8675 16.2694 10.9205 16.2353 10.9827C16.2175 11.0175 16.2139 11.0579 16.2253 11.0954C16.2366 11.1328 16.2621 11.1644 16.2962 11.1835Z" fill="url(#paint14_linear_2470_5560)"/>
<path d="M2.53116 9.60338C4.49979 12.1741 8.17336 11.7502 10.9177 11.0312C11.0841 10.9876 11.0529 10.7017 10.8762 10.7246C8.26309 11.0626 4.56277 11.6815 2.87945 9.02218C2.40957 7.41032 3.17499 4.47077 5.24716 4.55319C5.72171 4.56346 6.17394 4.75671 6.50936 5.09257C6.84478 5.42843 7.03744 5.8809 7.0471 6.35547C6.94979 6.5572 6.80856 6.73458 6.63375 6.8746C6.45894 7.01462 6.25501 7.11373 6.0369 7.16464C5.8188 7.21556 5.59206 7.217 5.37332 7.16885C5.15459 7.12071 4.94941 7.0242 4.77285 6.8864C4.70323 6.63962 4.65047 6.38765 4.58389 6.17277C4.57164 6.13329 4.54579 6.09943 4.51094 6.07721C4.4761 6.05498 4.4345 6.04583 4.39354 6.05137C4.35258 6.05691 4.31491 6.07679 4.28722 6.10748C4.25953 6.13817 4.24361 6.17768 4.24229 6.21899C4.22678 6.45464 4.24292 6.6913 4.29028 6.92267C4.28415 6.96877 4.29393 7.01559 4.31801 7.05538C4.34538 7.17119 4.37974 7.28523 4.42088 7.39688C4.40719 7.43747 4.40206 7.48045 4.40582 7.52312C4.40958 7.56578 4.42215 7.60721 4.44273 7.64477C5.46059 9.65412 8.1953 8.87394 8.52567 6.78498C8.94694 4.12118 5.73121 2.72983 3.5623 3.29421C0.868488 3.99516 1.13649 7.78226 2.53116 9.60338ZM4.12301 3.93121C4.20001 3.91465 4.27815 3.90398 4.35677 3.89928C4.63527 3.88492 4.91451 3.89655 5.19085 3.93402C5.03617 3.93739 4.88208 3.95424 4.73032 3.98438C4.71968 3.9534 4.69774 3.92758 4.66889 3.91206C4.64004 3.89654 4.6064 3.89247 4.57469 3.90067C4.42667 3.93503 4.28532 3.97733 4.14704 4.02368C4.1459 3.99147 4.13769 3.9599 4.12301 3.93121Z" fill="#222221"/>
<path d="M2.53116 9.60338C4.49979 12.1741 8.17336 11.7502 10.9177 11.0312C11.0841 10.9876 11.0529 10.7017 10.8762 10.7246C8.26309 11.0626 4.56277 11.6815 2.87945 9.02218C2.40957 7.41032 3.17499 4.47077 5.24716 4.55319C5.72171 4.56346 6.17394 4.75671 6.50936 5.09257C6.84478 5.42843 7.03744 5.8809 7.0471 6.35547C6.94979 6.5572 6.80856 6.73458 6.63375 6.8746C6.45894 7.01462 6.25501 7.11373 6.0369 7.16464C5.8188 7.21556 5.59206 7.217 5.37332 7.16885C5.15459 7.12071 4.94941 7.0242 4.77285 6.8864C4.70323 6.63962 4.65047 6.38765 4.58389 6.17277C4.57164 6.13329 4.54579 6.09943 4.51094 6.07721C4.4761 6.05498 4.4345 6.04583 4.39354 6.05137C4.35258 6.05691 4.31491 6.07679 4.28722 6.10748C4.25953 6.13817 4.24361 6.17768 4.24229 6.21899C4.22678 6.45464 4.24292 6.6913 4.29028 6.92267C4.28415 6.96877 4.29393 7.01559 4.31801 7.05538C4.34538 7.17119 4.37974 7.28523 4.42088 7.39688C4.40719 7.43747 4.40206 7.48045 4.40582 7.52312C4.40958 7.56578 4.42215 7.60721 4.44273 7.64477C5.46059 9.65412 8.1953 8.87394 8.52567 6.78498C8.94694 4.12118 5.73121 2.72983 3.5623 3.29421C0.868488 3.99516 1.13649 7.78226 2.53116 9.60338ZM4.12301 3.93121C4.20001 3.91465 4.27815 3.90398 4.35677 3.89928C4.63527 3.88492 4.91451 3.89655 5.19085 3.93402C5.03617 3.93739 4.88208 3.95424 4.73032 3.98438C4.71968 3.9534 4.69774 3.92758 4.66889 3.91206C4.64004 3.89654 4.6064 3.89247 4.57469 3.90067C4.42667 3.93503 4.28532 3.97733 4.14704 4.02368C4.1459 3.99147 4.13769 3.9599 4.12301 3.93121Z" fill="url(#paint15_linear_2470_5560)"/>
<path d="M29.1995 8.56339L29.2248 8.53942C29.2623 8.50306 29.3075 8.47562 29.3571 8.45914C29.4067 8.44267 29.4594 8.43758 29.5112 8.44426C29.563 8.45093 29.6126 8.4692 29.6564 8.49771C29.7002 8.52622 29.737 8.56423 29.7641 8.60891L29.7815 8.63838C29.8212 8.70956 29.837 8.79161 29.8266 8.87245C29.8161 8.95329 29.78 9.02865 29.7235 9.08743L29.7003 9.11351C29.6627 9.1506 29.6171 9.17864 29.567 9.19551C29.5169 9.21238 29.4637 9.21763 29.4113 9.21088C29.3589 9.20412 29.3087 9.18554 29.2645 9.15653C29.2203 9.12752 29.1834 9.08884 29.1564 9.04342L29.1415 9.01244C29.1021 8.94118 29.0865 8.85918 29.0969 8.77841C29.1073 8.69764 29.1433 8.62231 29.1995 8.56339Z" fill="#222221"/>
<path d="M29.1995 8.56339L29.2248 8.53942C29.2623 8.50306 29.3075 8.47562 29.3571 8.45914C29.4067 8.44267 29.4594 8.43758 29.5112 8.44426C29.563 8.45093 29.6126 8.4692 29.6564 8.49771C29.7002 8.52622 29.737 8.56423 29.7641 8.60891L29.7815 8.63838C29.8212 8.70956 29.837 8.79161 29.8266 8.87245C29.8161 8.95329 29.78 9.02865 29.7235 9.08743L29.7003 9.11351C29.6627 9.1506 29.6171 9.17864 29.567 9.19551C29.5169 9.21238 29.4637 9.21763 29.4113 9.21088C29.3589 9.20412 29.3087 9.18554 29.2645 9.15653C29.2203 9.12752 29.1834 9.08884 29.1564 9.04342L29.1415 9.01244C29.1021 8.94118 29.0865 8.85918 29.0969 8.77841C29.1073 8.69764 29.1433 8.62231 29.1995 8.56339Z" fill="url(#paint16_linear_2470_5560)"/>
<path d="M26.8055 7.36434L26.8495 7.36759C26.941 7.37094 27.0277 7.40966 27.0912 7.47559C27.1548 7.54153 27.1903 7.62954 27.1903 7.72112C27.1903 7.8127 27.1548 7.90072 27.0912 7.96665C27.0277 8.03258 26.941 8.0713 26.8495 8.07465L26.8055 8.07787C26.3465 8.11142 26.3457 7.33073 26.8055 7.36434Z" fill="#222221"/>
<path d="M26.8055 7.36434L26.8495 7.36759C26.941 7.37094 27.0277 7.40966 27.0912 7.47559C27.1548 7.54153 27.1903 7.62954 27.1903 7.72112C27.1903 7.8127 27.1548 7.90072 27.0912 7.96665C27.0277 8.03258 26.941 8.0713 26.8495 8.07465L26.8055 8.07787C26.3465 8.11142 26.3457 7.33073 26.8055 7.36434Z" fill="url(#paint17_linear_2470_5560)"/>
<path d="M24.4435 5.77308C24.5078 5.73635 24.5801 5.71579 24.6541 5.71318C24.7281 5.71056 24.8017 5.72596 24.8684 5.75806C24.9417 5.78619 25.0057 5.83414 25.0533 5.89655C25.1009 5.95896 25.1302 6.03337 25.1379 6.11147C25.1456 6.18957 25.1315 6.26828 25.0971 6.33881C25.0626 6.40933 25.0093 6.46889 24.9429 6.51083C24.8872 6.54649 24.8218 6.56383 24.7557 6.56043C24.6897 6.55703 24.6263 6.53305 24.5746 6.49187C24.5708 6.49142 24.5674 6.4925 24.5635 6.4919C24.4934 6.48366 24.4273 6.45462 24.3737 6.40851C24.3202 6.3624 24.2817 6.30134 24.2632 6.23317C24.2412 6.14726 24.2468 6.05662 24.2791 5.97405C24.3115 5.89149 24.369 5.82118 24.4435 5.77308Z" fill="#222221"/>
<path d="M24.4435 5.77308C24.5078 5.73635 24.5801 5.71579 24.6541 5.71318C24.7281 5.71056 24.8017 5.72596 24.8684 5.75806C24.9417 5.78619 25.0057 5.83414 25.0533 5.89655C25.1009 5.95896 25.1302 6.03337 25.1379 6.11147C25.1456 6.18957 25.1315 6.26828 25.0971 6.33881C25.0626 6.40933 25.0093 6.46889 24.9429 6.51083C24.8872 6.54649 24.8218 6.56383 24.7557 6.56043C24.6897 6.55703 24.6263 6.53305 24.5746 6.49187C24.5708 6.49142 24.5674 6.4925 24.5635 6.4919C24.4934 6.48366 24.4273 6.45462 24.3737 6.40851C24.3202 6.3624 24.2817 6.30134 24.2632 6.23317C24.2412 6.14726 24.2468 6.05662 24.2791 5.97405C24.3115 5.89149 24.369 5.82118 24.4435 5.77308Z" fill="url(#paint18_linear_2470_5560)"/>
<path d="M11.019 8.80105L11.0966 8.89966C11.1545 8.96199 11.186 9.04437 11.1845 9.12947C11.1829 9.21456 11.1484 9.29574 11.0882 9.35592C11.0281 9.4161 10.9469 9.45059 10.8618 9.45214C10.7767 9.45369 10.6943 9.42218 10.632 9.36423L10.5334 9.28665C10.1836 9.01148 10.7436 8.45105 11.019 8.80105Z" fill="#222221"/>
<path d="M11.019 8.80105L11.0966 8.89966C11.1545 8.96199 11.186 9.04437 11.1845 9.12947C11.1829 9.21456 11.1484 9.29574 11.0882 9.35592C11.0281 9.4161 10.9469 9.45059 10.8618 9.45214C10.7767 9.45369 10.6943 9.42218 10.632 9.36423L10.5334 9.28665C10.1836 9.01148 10.7436 8.45105 11.019 8.80105Z" fill="url(#paint19_linear_2470_5560)"/>
<path d="M7.76336 9.63108C7.81413 9.56369 7.8879 9.51732 7.97064 9.5008C8.05338 9.48428 8.13931 9.49876 8.21206 9.54149C8.32064 9.6112 8.40107 9.71707 8.43912 9.84037C8.45326 9.89524 8.45284 9.95284 8.43792 10.0075C8.42299 10.0622 8.39407 10.112 8.354 10.152C8.31394 10.1921 8.26412 10.221 8.20946 10.236C8.1548 10.2509 8.09719 10.2513 8.04233 10.2372C7.94405 10.2169 7.8554 10.1643 7.79055 10.0878C7.73198 10.0276 7.69702 9.94833 7.69203 9.86449C7.68703 9.78065 7.71235 9.69781 7.76336 9.63108Z" fill="#222221"/>
<path d="M7.76336 9.63108C7.81413 9.56369 7.8879 9.51732 7.97064 9.5008C8.05338 9.48428 8.13931 9.49876 8.21206 9.54149C8.32064 9.6112 8.40107 9.71707 8.43912 9.84037C8.45326 9.89524 8.45284 9.95284 8.43792 10.0075C8.42299 10.0622 8.39407 10.112 8.354 10.152C8.31394 10.1921 8.26412 10.221 8.20946 10.236C8.1548 10.2509 8.09719 10.2513 8.04233 10.2372C7.94405 10.2169 7.8554 10.1643 7.79055 10.0878C7.73198 10.0276 7.69702 9.94833 7.69203 9.86449C7.68703 9.78065 7.71235 9.69781 7.76336 9.63108Z" fill="url(#paint20_linear_2470_5560)"/>
<path d="M4.48995 9.04702C4.51884 8.99938 4.55897 8.95954 4.60682 8.93099C4.65467 8.90244 4.70878 8.88604 4.76443 8.88324C4.82009 8.88044 4.87558 8.89132 4.92605 8.91492C4.97653 8.93852 5.02045 8.97413 5.05398 9.01863C5.07219 9.03002 5.09028 9.04155 5.10858 9.05277C5.37873 9.22036 5.20504 9.71703 4.88181 9.59073C4.85112 9.57491 4.81803 9.56426 4.78387 9.55921C4.72427 9.55843 4.66589 9.54214 4.61451 9.51193C4.56312 9.48172 4.52049 9.43865 4.49082 9.38695C4.46115 9.33525 4.44547 9.27671 4.44531 9.2171C4.44516 9.15749 4.46055 9.09887 4.48995 9.04702Z" fill="#222221"/>
<path d="M4.48995 9.04702C4.51884 8.99938 4.55897 8.95954 4.60682 8.93099C4.65467 8.90244 4.70878 8.88604 4.76443 8.88324C4.82009 8.88044 4.87558 8.89132 4.92605 8.91492C4.97653 8.93852 5.02045 8.97413 5.05398 9.01863C5.07219 9.03002 5.09028 9.04155 5.10858 9.05277C5.37873 9.22036 5.20504 9.71703 4.88181 9.59073C4.85112 9.57491 4.81803 9.56426 4.78387 9.55921C4.72427 9.55843 4.66589 9.54214 4.61451 9.51193C4.56312 9.48172 4.52049 9.43865 4.49082 9.38695C4.46115 9.33525 4.44547 9.27671 4.44531 9.2171C4.44516 9.15749 4.46055 9.09887 4.48995 9.04702Z" fill="url(#paint21_linear_2470_5560)"/>
<defs>
<linearGradient id="paint0_linear_2470_5560" x1="49.7188" y1="0" x2="49.7188" y2="14.2946" gradientUnits="userSpaceOnUse">
<stop offset="0.213701" stop-color="#F9FD9E"/>
<stop offset="0.477964" stop-color="#FEDE76"/>
<stop offset="1" stop-color="#965A14"/>
</linearGradient>
<linearGradient id="paint1_linear_2470_5560" x1="36.4844" y1="0" x2="36.4844" y2="14.2946" gradientUnits="userSpaceOnUse">
<stop offset="0.213701" stop-color="#F9FD9E"/>
<stop offset="0.477964" stop-color="#FEDE76"/>
<stop offset="1" stop-color="#965A14"/>
</linearGradient>
<linearGradient id="paint2_linear_2470_5560" x1="68.1355" y1="7.27734" x2="68.1355" y2="14.3183" gradientUnits="userSpaceOnUse">
<stop offset="0.213701" stop-color="#F9FD9E"/>
<stop offset="0.477964" stop-color="#FEDE76"/>
<stop offset="1" stop-color="#965A14"/>
</linearGradient>
<linearGradient id="paint3_linear_2470_5560" x1="59.1428" y1="1.67578" x2="59.1428" y2="10.7773" gradientUnits="userSpaceOnUse">
<stop offset="0.213701" stop-color="#F9FD9E"/>
<stop offset="0.477964" stop-color="#FEDE76"/>
<stop offset="1" stop-color="#965A14"/>
</linearGradient>
<linearGradient id="paint4_linear_2470_5560" x1="65.6636" y1="9.5918" x2="65.6636" y2="16.0008" gradientUnits="userSpaceOnUse">
<stop offset="0.213701" stop-color="#F9FD9E"/>
<stop offset="0.477964" stop-color="#FEDE76"/>
<stop offset="1" stop-color="#965A14"/>
</linearGradient>
<linearGradient id="paint5_linear_2470_5560" x1="79.5838" y1="3.16992" x2="79.5838" y2="11.581" gradientUnits="userSpaceOnUse">
<stop offset="0.213701" stop-color="#F9FD9E"/>
<stop offset="0.477964" stop-color="#FEDE76"/>
<stop offset="1" stop-color="#965A14"/>
</linearGradient>
<linearGradient id="paint6_linear_2470_5560" x1="56.3914" y1="8.44141" x2="56.3914" y2="9.21373" gradientUnits="userSpaceOnUse">
<stop offset="0.213701" stop-color="#F9FD9E"/>
<stop offset="0.477964" stop-color="#FEDE76"/>
<stop offset="1" stop-color="#965A14"/>
</linearGradient>
<linearGradient id="paint7_linear_2470_5560" x1="59.0209" y1="7.36328" x2="59.0209" y2="8.07893" gradientUnits="userSpaceOnUse">
<stop offset="0.213701" stop-color="#F9FD9E"/>
<stop offset="0.477964" stop-color="#FEDE76"/>
<stop offset="1" stop-color="#965A14"/>
</linearGradient>
<linearGradient id="paint8_linear_2470_5560" x1="61.1559" y1="5.71289" x2="61.1559" y2="6.56085" gradientUnits="userSpaceOnUse">
<stop offset="0.213701" stop-color="#F9FD9E"/>
<stop offset="0.477964" stop-color="#FEDE76"/>
<stop offset="1" stop-color="#965A14"/>
</linearGradient>
<linearGradient id="paint9_linear_2470_5560" x1="75.0454" y1="8.68945" x2="75.0454" y2="9.45218" gradientUnits="userSpaceOnUse">
<stop offset="0.213701" stop-color="#F9FD9E"/>
<stop offset="0.477964" stop-color="#FEDE76"/>
<stop offset="1" stop-color="#965A14"/>
</linearGradient>
<linearGradient id="paint10_linear_2470_5560" x1="77.7774" y1="9.49414" x2="77.7774" y2="10.2475" gradientUnits="userSpaceOnUse">
<stop offset="0.213701" stop-color="#F9FD9E"/>
<stop offset="0.477964" stop-color="#FEDE76"/>
<stop offset="1" stop-color="#965A14"/>
</linearGradient>
<linearGradient id="paint11_linear_2470_5560" x1="81.0076" y1="8.88281" x2="81.0076" y2="9.61106" gradientUnits="userSpaceOnUse">
<stop offset="0.213701" stop-color="#F9FD9E"/>
<stop offset="0.477964" stop-color="#FEDE76"/>
<stop offset="1" stop-color="#965A14"/>
</linearGradient>
<linearGradient id="paint12_linear_2470_5560" x1="17.7137" y1="7.27734" x2="17.7137" y2="14.3183" gradientUnits="userSpaceOnUse">
<stop offset="0.213701" stop-color="#F9FD9E"/>
<stop offset="0.477964" stop-color="#FEDE76"/>
<stop offset="1" stop-color="#965A14"/>
</linearGradient>
<linearGradient id="paint13_linear_2470_5560" x1="26.7053" y1="1.67578" x2="26.7053" y2="10.7773" gradientUnits="userSpaceOnUse">
<stop offset="0.213701" stop-color="#F9FD9E"/>
<stop offset="0.477964" stop-color="#FEDE76"/>
<stop offset="1" stop-color="#965A14"/>
</linearGradient>
<linearGradient id="paint14_linear_2470_5560" x1="20.187" y1="9.5918" x2="20.187" y2="16.0008" gradientUnits="userSpaceOnUse">
<stop offset="0.213701" stop-color="#F9FD9E"/>
<stop offset="0.477964" stop-color="#FEDE76"/>
<stop offset="1" stop-color="#965A14"/>
</linearGradient>
<linearGradient id="paint15_linear_2470_5560" x1="6.26352" y1="3.16992" x2="6.26352" y2="11.581" gradientUnits="userSpaceOnUse">
<stop offset="0.213701" stop-color="#F9FD9E"/>
<stop offset="0.477964" stop-color="#FEDE76"/>
<stop offset="1" stop-color="#965A14"/>
</linearGradient>
<linearGradient id="paint16_linear_2470_5560" x1="29.4617" y1="8.44141" x2="29.4617" y2="9.21373" gradientUnits="userSpaceOnUse">
<stop offset="0.213701" stop-color="#F9FD9E"/>
<stop offset="0.477964" stop-color="#FEDE76"/>
<stop offset="1" stop-color="#965A14"/>
</linearGradient>
<linearGradient id="paint17_linear_2470_5560" x1="26.8256" y1="7.36328" x2="26.8256" y2="8.07893" gradientUnits="userSpaceOnUse">
<stop offset="0.213701" stop-color="#F9FD9E"/>
<stop offset="0.477964" stop-color="#FEDE76"/>
<stop offset="1" stop-color="#965A14"/>
</linearGradient>
<linearGradient id="paint18_linear_2470_5560" x1="24.695" y1="5.71289" x2="24.695" y2="6.56085" gradientUnits="userSpaceOnUse">
<stop offset="0.213701" stop-color="#F9FD9E"/>
<stop offset="0.477964" stop-color="#FEDE76"/>
<stop offset="1" stop-color="#965A14"/>
</linearGradient>
<linearGradient id="paint19_linear_2470_5560" x1="10.8032" y1="8.68945" x2="10.8032" y2="9.4522" gradientUnits="userSpaceOnUse">
<stop offset="0.213701" stop-color="#F9FD9E"/>
<stop offset="0.477964" stop-color="#FEDE76"/>
<stop offset="1" stop-color="#965A14"/>
</linearGradient>
<linearGradient id="paint20_linear_2470_5560" x1="8.07042" y1="9.49414" x2="8.07042" y2="10.2475" gradientUnits="userSpaceOnUse">
<stop offset="0.213701" stop-color="#F9FD9E"/>
<stop offset="0.477964" stop-color="#FEDE76"/>
<stop offset="1" stop-color="#965A14"/>
</linearGradient>
<linearGradient id="paint21_linear_2470_5560" x1="4.84355" y1="8.88281" x2="4.84355" y2="9.61106" gradientUnits="userSpaceOnUse">
<stop offset="0.213701" stop-color="#F9FD9E"/>
<stop offset="0.477964" stop-color="#FEDE76"/>
<stop offset="1" stop-color="#965A14"/>
</linearGradient>
</defs>
</svg>
